<?xml version="1.0" encoding="utf-8"?>
<!-- Generator: Adobe Illustrator 19.2.0, SVG Export Plug-In . SVG Version: 6.00 Build 0)  -->
<svg version="1.1" id="Layer_1" xmlns="http://www.w3.org/2000/svg" xmlns:xlink="http://www.w3.org/1999/xlink" x="0px" y="0px"
	 viewBox="0 0 80 80" style="enable-background:new 0 0 80 80;" xml:space="preserve">
<style type="text/css">
	.st0{fill:#387B9B;}
	.st1{fill:#FFFFFF;}
</style>
<g>
	<circle class="st0" cx="40" cy="40" r="39.5"/>
	<g>
		<path class="st1" d="M41.2,50.2c0-0.3,0.1-0.5,0.4-0.5l0,0c0.3,0,0.5,0.1,0.5,0.4l0,0c0,0.3-0.1,0.5-0.4,0.5l0,0c0,0-0.1,0-0.1,0
			l0,0C41.4,50.6,41.2,50.4,41.2,50.2z M37.7,50.5c-0.3-0.1-0.4-0.3-0.4-0.6l0,0c0.1-0.3,0.3-0.4,0.6-0.4l0,0
			c0.3,0.1,0.4,0.3,0.4,0.6l0,0C38.3,50.3,38.1,50.5,37.7,50.5L37.7,50.5C37.8,50.5,37.8,50.5,37.7,50.5z M44.8,49.1
			c-0.1-0.2,0-0.5,0.2-0.7l0,0c0.2-0.1,0.5,0,0.6,0.2l0,0c0.1,0.2,0,0.5-0.2,0.7l0,0c-0.1,0-0.2,0.1-0.2,0.1l0,0
			C45,49.3,44.9,49.2,44.8,49.1z M34,49.1c-0.2-0.1-0.3-0.4-0.2-0.7l0,0c0.1-0.2,0.4-0.3,0.7-0.2l0,0c0.2,0.1,0.3,0.4,0.2,0.7l0,0
			c-0.1,0.1-0.2,0.2-0.4,0.2l0,0C34.2,49.1,34.1,49.1,34,49.1z M47.8,46.8c-0.2-0.2-0.2-0.5-0.1-0.7l0,0c0.2-0.2,0.5-0.2,0.7-0.1
			l0,0c0.2,0.2,0.2,0.5,0.1,0.7l0,0c-0.1,0.1-0.2,0.2-0.4,0.2l0,0C48,46.9,47.9,46.9,47.8,46.8z M31.1,46.4
			c-0.2-0.2-0.1-0.5,0.1-0.7l0,0c0.2-0.2,0.5-0.1,0.7,0.1l0,0c0.2,0.2,0.1,0.5-0.1,0.7l0,0c-0.1,0.1-0.2,0.1-0.3,0.1l0,0
			C31.3,46.6,31.2,46.6,31.1,46.4z M49.9,43.6c-0.2-0.1-0.4-0.4-0.3-0.6l0,0c0.1-0.2,0.4-0.4,0.6-0.3l0,0c0.2,0.1,0.4,0.4,0.3,0.6
			l0,0c-0.1,0.2-0.3,0.3-0.4,0.3l0,0C50,43.6,49.9,43.6,49.9,43.6z M29.2,42.9c-0.1-0.3,0.1-0.5,0.3-0.6l0,0
			c0.3-0.1,0.5,0.1,0.6,0.3l0,0c0.1,0.3-0.1,0.5-0.3,0.6l0,0c0,0-0.1,0-0.1,0l0,0C29.4,43.3,29.2,43.1,29.2,42.9z M50.2,39.4
			c0-0.3,0.2-0.5,0.5-0.5l0,0c0.3,0,0.5,0.2,0.5,0.5l0,0c0,0.3-0.2,0.5-0.5,0.5l0,0C50.5,39.9,50.2,39.7,50.2,39.4z M29.1,39.5
			c-0.3,0-0.5-0.2-0.5-0.5l0,0c0-0.3,0.2-0.5,0.5-0.5l0,0c0.3,0,0.5,0.2,0.5,0.5l0,0C29.6,39.3,29.3,39.5,29.1,39.5L29.1,39.5
			L29.1,39.5z M49.8,36.5L49.8,36.5c-0.1-0.3,0.1-0.5,0.3-0.6l0,0c0.3-0.1,0.5,0.1,0.6,0.3l0,0c0.1,0.3-0.1,0.5-0.3,0.6l0,0
			c0,0-0.1,0-0.1,0l0,0C50.1,36.8,49.9,36.7,49.8,36.5z M29.7,35.8c-0.2-0.1-0.4-0.4-0.3-0.6l0,0c0.1-0.2,0.4-0.4,0.6-0.3l0,0
			c0.2,0.1,0.4,0.4,0.3,0.6l0,0c-0.1,0.2-0.3,0.3-0.4,0.3l0,0C29.8,35.8,29.8,35.8,29.7,35.8z M48.2,33.2c-0.2-0.2-0.1-0.5,0.1-0.7
			l0,0c0.2-0.2,0.5-0.1,0.7,0.1l0,0c0.2,0.2,0.1,0.5-0.1,0.7l0,0c-0.1,0.1-0.2,0.1-0.3,0.1l0,0C48.4,33.4,48.3,33.4,48.2,33.2z
			 M31.6,32.5c-0.2-0.2-0.2-0.5,0-0.7l0,0c0.2-0.2,0.5-0.2,0.7,0l0,0c0.2,0.2,0.2,0.5,0,0.7l0,0c-0.1,0.1-0.2,0.2-0.4,0.2l0,0
			C31.8,32.6,31.7,32.5,31.6,32.5z M45.6,30.7c-0.2-0.1-0.3-0.4-0.1-0.7l0,0c0.1-0.2,0.4-0.3,0.7-0.1l0,0v0l0,0
			c0.2,0.1,0.3,0.4,0.1,0.7l0,0c-0.1,0.1-0.2,0.2-0.4,0.2l0,0C45.7,30.8,45.6,30.8,45.6,30.7z M34.5,30c-0.1-0.2,0-0.5,0.2-0.6l0,0
			c0.2-0.1,0.5,0,0.6,0.2l0,0c0.1,0.2,0,0.5-0.2,0.6l0,0c-0.1,0-0.1,0.1-0.2,0.1l0,0C34.7,30.3,34.6,30.2,34.5,30z M42.2,29.3
			c-0.3-0.1-0.4-0.3-0.4-0.6l0,0c0.1-0.3,0.3-0.4,0.6-0.4l0,0c0.3,0.1,0.4,0.3,0.4,0.6l0,0c-0.1,0.2-0.2,0.4-0.5,0.4l0,0
			C42.3,29.3,42.3,29.3,42.2,29.3z M38.1,28.7c0-0.3,0.2-0.5,0.4-0.5l0,0c0.3,0,0.5,0.2,0.5,0.4l0,0c0,0.3-0.2,0.5-0.4,0.5l0,0
			c0,0,0,0-0.1,0l0,0C38.3,29.1,38.1,29,38.1,28.7z"/>
	</g>
	<g>
		<path class="st1" d="M38.3,65.5c-0.3,0-0.5-0.2-0.4-0.5l0,0c0-0.3,0.2-0.5,0.5-0.4l0,0c0.3,0,0.5,0.2,0.4,0.5l0,0
			C38.7,65.3,38.5,65.5,38.3,65.5L38.3,65.5C38.3,65.5,38.3,65.5,38.3,65.5z M41.6,65c0-0.3,0.2-0.5,0.4-0.5l0,0
			c0.3,0,0.5,0.2,0.5,0.4l0,0c0,0.3-0.2,0.5-0.4,0.5l0,0c0,0,0,0,0,0l0,0C41.9,65.5,41.6,65.3,41.6,65z M27.2,62.3L27.2,62.3
			L27.2,62.3c-0.2-0.1-0.3-0.4-0.2-0.6l0,0c0.1-0.2,0.4-0.3,0.6-0.2v0c0.2,0.1,0.3,0.4,0.2,0.6l0,0c-0.1,0.2-0.2,0.2-0.4,0.2l0,0
			C27.3,62.3,27.2,62.3,27.2,62.3z M52.5,61.8c-0.1-0.2-0.1-0.5,0.2-0.7l0,0c0.2-0.1,0.5-0.1,0.7,0.2l0,0c0.1,0.2,0.1,0.5-0.2,0.7
			l0,0C53.1,62,53,62,52.9,62l0,0C52.8,62,52.6,62,52.5,61.8z M23.9,60.1c-0.2-0.2-0.2-0.5-0.1-0.7l0,0c0.2-0.2,0.5-0.2,0.7-0.1l0,0
			c0.2,0.2,0.2,0.5,0.1,0.7l0,0c-0.1,0.1-0.2,0.2-0.4,0.2l0,0C24.1,60.2,24,60.2,23.9,60.1z M55.7,59.7c-0.2-0.2-0.1-0.5,0.1-0.7
			l0,0c0.2-0.2,0.5-0.1,0.7,0.1l0,0c0.2,0.2,0.1,0.5-0.1,0.7l0,0c0,0,0,0,0,0l0,0c-0.1,0.1-0.2,0.1-0.3,0.1l0,0
			C55.9,59.9,55.8,59.8,55.7,59.7z M21,57.5c-0.2-0.2-0.2-0.5,0-0.7l0,0c0.2-0.2,0.5-0.2,0.7,0l0,0c0.2,0.2,0.2,0.5,0,0.7l0,0
			c-0.1,0.1-0.2,0.1-0.3,0.1l0,0C21.2,57.7,21.1,57.6,21,57.5z M58.5,57.1c-0.2-0.2-0.2-0.5,0-0.7l0,0c0.2-0.2,0.5-0.2,0.7,0l0,0
			c0.2,0.2,0.2,0.5,0,0.7l0,0c-0.1,0.1-0.2,0.2-0.4,0.2l0,0C58.7,57.3,58.6,57.2,58.5,57.1z M18.5,54.5c-0.2-0.2-0.1-0.5,0.1-0.7
			l0,0c0.2-0.2,0.5-0.1,0.7,0.1l0,0c0.2,0.2,0.1,0.5-0.1,0.7l0,0c-0.1,0.1-0.2,0.1-0.3,0.1l0,0C18.8,54.7,18.6,54.7,18.5,54.5z
			 M60.9,54.2c-0.2-0.1-0.3-0.4-0.1-0.7l0,0c0.1-0.2,0.4-0.3,0.7-0.1l0,0c0.2,0.1,0.3,0.4,0.1,0.7l0,0c-0.1,0.1-0.2,0.2-0.4,0.2l0,0
			C61.1,54.3,61,54.2,60.9,54.2z M16.5,51.2c-0.1-0.2,0-0.5,0.2-0.6l0,0c0.2-0.1,0.5,0,0.6,0.2l0,0c0.1,0.2,0,0.5-0.2,0.6l0,0
			c-0.1,0-0.1,0.1-0.2,0.1l0,0C16.8,51.5,16.6,51.4,16.5,51.2z M62.9,50.9c-0.2-0.1-0.3-0.4-0.2-0.6l0,0c0.1-0.2,0.4-0.3,0.6-0.2
			l0,0c0.2,0.1,0.3,0.4,0.2,0.6l0,0c-0.1,0.2-0.3,0.3-0.4,0.3l0,0C63,51,63,50.9,62.9,50.9z M15,47.6c-0.1-0.3,0.1-0.5,0.3-0.6l0,0
			c0.3-0.1,0.5,0.1,0.6,0.3l0,0c0.1,0.3-0.1,0.5-0.3,0.6l0,0c0,0-0.1,0-0.1,0l0,0C15.3,47.9,15.1,47.8,15,47.6z M64.3,47.4
			c-0.3-0.1-0.4-0.3-0.3-0.6l0,0c0.1-0.3,0.3-0.4,0.6-0.3l0,0c0.3,0.1,0.4,0.3,0.3,0.6l0,0c0,0,0,0,0,0l0,0
			c-0.1,0.2-0.3,0.3-0.5,0.3l0,0C64.4,47.4,64.4,47.4,64.3,47.4z M14.1,43.9c0-0.3,0.1-0.5,0.4-0.6l0,0c0.3,0,0.5,0.1,0.6,0.4l0,0
			c0,0.3-0.1,0.5-0.4,0.6l0,0c0,0-0.1,0-0.1,0l0,0C14.4,44.2,14.1,44.1,14.1,43.9z M65.3,43.7c-0.3,0-0.4-0.3-0.4-0.5h0
			c0-0.3,0.3-0.4,0.5-0.4l0,0c0.3,0,0.4,0.3,0.4,0.5l0,0C65.8,43.5,65.6,43.7,65.3,43.7L65.3,43.7C65.3,43.7,65.3,43.7,65.3,43.7z
			 M13.7,40c0-0.3,0.2-0.5,0.5-0.5l0,0c0.3,0,0.5,0.2,0.5,0.5l0,0c0,0.3-0.2,0.5-0.5,0.5l0,0c0,0,0,0,0,0l0,0
			C14,40.5,13.7,40.2,13.7,40z M65.1,39.4c0-0.3,0.2-0.5,0.5-0.5l0,0c0.3,0,0.5,0.2,0.5,0.5l0,0c0,0.3-0.2,0.5-0.5,0.5l0,0
			C65.3,39.9,65.1,39.7,65.1,39.4z M14.4,36.6c-0.3,0-0.4-0.3-0.4-0.5l0,0c0-0.3,0.3-0.4,0.5-0.4l0,0c0.3,0,0.4,0.3,0.4,0.5l0,0
			C14.9,36.5,14.6,36.6,14.4,36.6L14.4,36.6C14.4,36.6,14.4,36.6,14.4,36.6z M64.7,34.5C64.6,34.3,64.8,34,65,34l0,0
			c0.3-0.1,0.5,0.1,0.6,0.4l0,0c0.1,0.3-0.1,0.5-0.4,0.6l0,0c0,0-0.1,0-0.1,0l0,0C64.9,34.9,64.7,34.8,64.7,34.5z M15,32.9
			c-0.3-0.1-0.4-0.3-0.3-0.6l0,0c0.1-0.3,0.3-0.4,0.6-0.3l0,0c0.3,0.1,0.4,0.3,0.3,0.6l0,0c-0.1,0.2-0.3,0.3-0.5,0.3l0,0
			C15.1,32.9,15.1,32.9,15,32.9z M63.7,30.9c-0.1-0.2,0-0.5,0.3-0.6l0,0c0.2-0.1,0.5,0,0.6,0.3l0,0c0.1,0.2,0,0.5-0.3,0.6l0,0
			c-0.1,0-0.1,0-0.2,0l0,0C63.9,31.3,63.7,31.1,63.7,30.9z M16.3,29.3c-0.2-0.1-0.3-0.4-0.2-0.6l0,0c0,0,0,0,0,0l0,0
			c0.1-0.2,0.4-0.3,0.6-0.2l0,0c0.2,0.1,0.3,0.4,0.2,0.6l0,0c-0.1,0.2-0.3,0.3-0.4,0.3l0,0C16.4,29.3,16.3,29.3,16.3,29.3z
			 M62.2,27.5L62.2,27.5c-0.1-0.2,0-0.5,0.2-0.6l0,0c0.2-0.1,0.5,0,0.6,0.2l0,0c0.1,0.2,0,0.5-0.2,0.6l0,0c-0.1,0-0.1,0.1-0.2,0.1
			l0,0C62.4,27.8,62.2,27.7,62.2,27.5z M18,25.9c-0.2-0.1-0.3-0.4-0.1-0.7l0,0c0.1-0.2,0.4-0.3,0.7-0.1l0,0c0.2,0.1,0.3,0.4,0.1,0.7
			l0,0c-0.1,0.1-0.2,0.2-0.4,0.2l0,0C18.2,26,18.1,25.9,18,25.9z M60.2,24.4c-0.2-0.2-0.1-0.5,0.1-0.7l0,0c0.2-0.2,0.5-0.1,0.7,0.1
			l0,0c0.2,0.2,0.1,0.5-0.1,0.7l0,0c-0.1,0.1-0.2,0.1-0.3,0.1l0,0C60.4,24.6,60.2,24.5,60.2,24.4z M20.3,22.8
			c-0.2-0.2-0.2-0.5,0-0.7l0,0c0.2-0.2,0.5-0.2,0.7,0l0,0c0.2,0.2,0.2,0.5,0,0.7l0,0c-0.1,0.1-0.2,0.2-0.4,0.2l0,0
			C20.5,22.9,20.4,22.9,20.3,22.8z M57.7,21.5c-0.2-0.2-0.2-0.5,0-0.7l0,0c0.2-0.2,0.5-0.2,0.7,0l0,0c0.2,0.2,0.2,0.5,0,0.7l0,0
			c-0.1,0.1-0.2,0.1-0.3,0.1l0,0C57.9,21.7,57.8,21.6,57.7,21.5z M23,20.1c-0.2-0.2-0.1-0.5,0.1-0.7l0,0v0l0,0
			c0.2-0.2,0.5-0.1,0.7,0.1l0,0c0.2,0.2,0.1,0.5-0.1,0.7v0c-0.1,0.1-0.2,0.1-0.3,0.1l0,0C23.2,20.3,23,20.2,23,20.1z M54.9,19.1
			c-0.2-0.2-0.3-0.5-0.1-0.7l0,0c0.2-0.2,0.5-0.3,0.7-0.1l0,0c0.2,0.2,0.3,0.5,0.1,0.7l0,0c-0.1,0.1-0.2,0.2-0.4,0.2l0,0
			C55,19.2,54.9,19.2,54.9,19.1z M26,17.8c-0.1-0.2-0.1-0.5,0.2-0.7l0,0c0.2-0.1,0.5-0.1,0.7,0.2l0,0c0.1,0.2,0.1,0.5-0.2,0.7l0,0
			c-0.1,0-0.2,0.1-0.3,0.1l0,0C26.2,18,26.1,17.9,26,17.8z M51.7,17.1L51.7,17.1c-0.2-0.1-0.3-0.4-0.2-0.6l0,0
			c0.1-0.2,0.4-0.3,0.6-0.2l0,0c0.2,0.1,0.3,0.4,0.2,0.6l0,0c-0.1,0.2-0.3,0.3-0.4,0.3l0,0C51.8,17.2,51.8,17.1,51.7,17.1z M29.3,16
			c-0.1-0.2,0-0.5,0.3-0.6l0,0c0.2-0.1,0.5,0,0.6,0.2l0,0c0.1,0.2,0,0.5-0.3,0.6l0,0c-0.1,0-0.1,0-0.2,0l0,0
			C29.6,16.3,29.4,16.1,29.3,16z M48.3,15.6C48,15.5,47.9,15.2,48,15l0,0c0.1-0.2,0.4-0.4,0.6-0.3l0,0h0l0,0
			c0.2,0.1,0.4,0.4,0.3,0.6l0,0c-0.1,0.2-0.3,0.3-0.5,0.3l0,0C48.4,15.6,48.3,15.6,48.3,15.6z M32.9,14.7c-0.1-0.3,0.1-0.5,0.3-0.6
			l0,0c0.3-0.1,0.5,0.1,0.6,0.3l0,0c0.1,0.3-0.1,0.5-0.3,0.6l0,0c0,0-0.1,0-0.1,0l0,0C33.2,15,33,14.9,32.9,14.7z M44.6,14.6
			c-0.3,0-0.4-0.3-0.4-0.6l0,0c0-0.3,0.3-0.4,0.6-0.4l0,0c0.3,0,0.4,0.3,0.4,0.6l0,0C45.2,14.5,45,14.6,44.6,14.6L44.6,14.6
			C44.7,14.6,44.7,14.6,44.6,14.6z M36.7,13.9c0-0.3,0.2-0.5,0.4-0.5l0,0v0l0,0c0.3,0,0.5,0.2,0.5,0.4l0,0c0,0.3-0.2,0.5-0.4,0.5
			l0,0c0,0,0,0-0.1,0l0,0C36.9,14.3,36.7,14.1,36.7,13.9z M40.9,14.2c-0.3,0-0.5-0.2-0.5-0.5l0,0c0-0.3,0.2-0.5,0.5-0.5l0,0
			c0.3,0,0.5,0.2,0.5,0.5l0,0C41.4,14,41.2,14.2,40.9,14.2L40.9,14.2C40.9,14.2,40.9,14.2,40.9,14.2z"/>
	</g>
	<g>
		<polygon class="st0" points="33.5,66.9 37.4,64.8 34.8,63.5 		"/>
		<path class="st0" d="M40,66.2l-7.8,4.1L29.3,78c3.4,1,7,1.5,10.7,1.5c3.7,0,7.4-0.5,10.8-1.5l-2.9-7.6L40,66.2z"/>
		<polygon class="st0" points="42.6,64.8 46.6,66.9 45.3,63.4 		"/>
		<polygon class="st0" points="40.1,49.7 35.7,61.2 40,63.4 44.4,61.1 		"/>
		<path class="st1" d="M51.2,69.4l-2.9-7.6l-0.9-2.3l-5.6-14.6L41.2,43c1.2-0.4,2-1.6,2-2.9c0-1.7-1.4-3.1-3.1-3.1
			c-1.7,0-3.1,1.4-3.1,3.1c0,1.3,0.8,2.5,2,2.9l-0.7,1.9l-5.6,14.7l-0.9,2.3l-2.8,7.5l-0.4,0.9L26,76.9c1.1,0.4,2.2,0.8,3.3,1.1
			l2.9-7.7l7.8-4.1l7.9,4.2l2.9,7.6c1.1-0.3,2.2-0.7,3.3-1.1l-2.6-6.7L51.2,69.4z M33.5,66.9l1.3-3.4l2.6,1.4L33.5,66.9z M35.7,61.2
			l4.4-11.5l4.3,11.4L40,63.4L35.7,61.2z M42.6,64.8l2.7-1.4l1.3,3.5L42.6,64.8z"/>
	</g>
</g>
</svg>
