<?xml version="1.0" encoding="utf-8"?>
<!-- Generator: Adobe Illustrator 19.2.0, SVG Export Plug-In . SVG Version: 6.00 Build 0)  -->
<svg version="1.1" id="Layer_1" xmlns="http://www.w3.org/2000/svg" xmlns:xlink="http://www.w3.org/1999/xlink" x="0px" y="0px"
	 viewBox="0 0 80 80" style="enable-background:new 0 0 80 80;" xml:space="preserve">
<style type="text/css">
	.st0{fill:#E54E27;}
	.st1{fill:#FFFFFF;}
</style>
<g>
	<circle class="st0" cx="40" cy="40" r="39.3"/>
	<g>
		<g>
			<path class="st1" d="M53.9,69.7c0.8-2.7,3.5-11.9,3.5-15.4V42.4c0-1.6-1.3-2.9-2.9-2.9c-1.6,0-2.9,1.3-2.9,2.9v5.1
				c0,0.3-0.2,0.5-0.5,0.5c-0.3,0-0.5-0.2-0.5-0.5v-7.9c0-1.6-1.3-2.9-2.9-2.9c-1.6,0-2.9,1.3-2.9,2.9v5.6c0,0.3-0.2,0.5-0.5,0.5
				c-0.3,0-0.5-0.2-0.5-0.5v-7.9c0-1.6-1.3-2.9-2.9-2.9c-1.6,0-2.9,1.3-2.9,2.9v5.6c0,0.3-0.2,0.5-0.5,0.5c-0.3,0-0.5-0.2-0.5-0.5
				V26.7c0-1.6-1.3-2.9-2.9-2.9c-1.6,0-2.9,1.3-2.9,2.9v25.2c0,0.2-0.1,0.4-0.3,0.5c-0.2,0.1-0.5,0-0.6-0.2l-6.7-7.7l-0.1-0.1
				c-0.5-0.5-1.2-0.8-2-0.8h0c-0.8,0-1.5,0.3-2,0.8c-0.7,0.7-1.2,1.9,0.1,4.2c2,3.4,4.1,6.7,6,9.6c1.4,2.1,2.7,4.2,3.7,5.9
				c0.6,1.1,2,4,2.7,5.5L53.9,69.7L53.9,69.7z M53.9,69.7"/>
		</g>
	</g>
	<path class="st1" d="M59.6,33.6c0-0.3,0.2-0.5,0.5-0.5l0,0c0.3,0,0.5,0.2,0.5,0.5l0,0c0,0.3-0.2,0.5-0.5,0.5l0,0
		C59.8,34.1,59.6,33.9,59.6,33.6z M55.8,33.6c0-0.3,0.2-0.5,0.5-0.5l0,0c0.3,0,0.5,0.2,0.5,0.5l0,0c0,0.3-0.2,0.5-0.5,0.5l0,0
		C56,34.1,55.8,33.9,55.8,33.6z M52,33.6c0-0.3,0.2-0.5,0.5-0.5l0,0c0.3,0,0.5,0.2,0.5,0.5l0,0c0,0.3-0.2,0.5-0.5,0.5l0,0
		C52.2,34.1,52,33.9,52,33.6z M48.2,33.6c0-0.3,0.2-0.5,0.5-0.5l0,0c0.3,0,0.5,0.2,0.5,0.5l0,0c0,0.3-0.2,0.5-0.5,0.5l0,0
		C48.4,34.1,48.2,33.9,48.2,33.6z M44.4,33.6c0-0.3,0.2-0.5,0.5-0.5l0,0c0.3,0,0.5,0.2,0.5,0.5l0,0c0,0.3-0.2,0.5-0.5,0.5l0,0
		C44.6,34.1,44.4,33.9,44.4,33.6z M40.6,33.6c0-0.3,0.2-0.5,0.5-0.5l0,0c0.3,0,0.5,0.2,0.5,0.5l0,0c0,0.3-0.2,0.5-0.5,0.5l0,0
		C40.8,34.1,40.6,33.9,40.6,33.6z M33,33.6c0-0.3,0.2-0.5,0.5-0.5l0,0c0.3,0,0.5,0.2,0.5,0.5l0,0c0,0.3-0.2,0.5-0.5,0.5l0,0
		C33.2,34.1,33,33.9,33,33.6z M29.2,33.6c0-0.3,0.2-0.5,0.5-0.5l0,0c0.3,0,0.5,0.2,0.5,0.5l0,0c0,0.3-0.2,0.5-0.5,0.5l0,0
		C29.4,34.1,29.2,33.9,29.2,33.6z M25.4,33.6c0-0.3,0.2-0.5,0.5-0.5l0,0c0.3,0,0.5,0.2,0.5,0.5l0,0c0,0.3-0.2,0.5-0.5,0.5l0,0
		C25.6,34.1,25.4,33.9,25.4,33.6z M21.6,33.6c0-0.3,0.2-0.5,0.5-0.5l0,0c0.3,0,0.5,0.2,0.5,0.5l0,0c0,0.3-0.2,0.5-0.5,0.5l0,0
		C21.8,34.1,21.6,33.9,21.6,33.6z M63.9,15.2c0-0.3,0.2-0.5,0.5-0.5l0,0c0.3,0,0.5,0.2,0.5,0.5l0,0c0,0.3-0.2,0.5-0.5,0.5l0,0
		C64.1,15.7,63.9,15.5,63.9,15.2z M60.1,15.2c0-0.3,0.2-0.5,0.5-0.5l0,0c0.3,0,0.5,0.2,0.5,0.5l0,0c0,0.3-0.2,0.5-0.5,0.5l0,0
		C60.3,15.7,60.1,15.5,60.1,15.2z M56.3,15.2c0-0.3,0.2-0.5,0.5-0.5l0,0c0.3,0,0.5,0.2,0.5,0.5l0,0c0,0.3-0.2,0.5-0.5,0.5l0,0
		C56.5,15.7,56.3,15.5,56.3,15.2z M52.5,15.2c0-0.3,0.2-0.5,0.5-0.5l0,0c0.3,0,0.5,0.2,0.5,0.5l0,0c0,0.3-0.2,0.5-0.5,0.5l0,0
		C52.7,15.7,52.5,15.5,52.5,15.2z M48.7,15.2c0-0.3,0.2-0.5,0.5-0.5l0,0c0.3,0,0.5,0.2,0.5,0.5l0,0c0,0.3-0.2,0.5-0.5,0.5l0,0
		C48.9,15.7,48.7,15.5,48.7,15.2z M44.9,15.2c0-0.3,0.2-0.5,0.5-0.5l0,0c0.3,0,0.5,0.2,0.5,0.5l0,0c0,0.3-0.2,0.5-0.5,0.5l0,0
		C45.1,15.7,44.9,15.5,44.9,15.2z M41.1,15.2c0-0.3,0.2-0.5,0.5-0.5l0,0c0.3,0,0.5,0.2,0.5,0.5l0,0c0,0.3-0.2,0.5-0.5,0.5l0,0
		C41.3,15.7,41.1,15.5,41.1,15.2z M37.3,15.2c0-0.3,0.2-0.5,0.5-0.5l0,0c0.3,0,0.5,0.2,0.5,0.5l0,0c0,0.3-0.2,0.5-0.5,0.5l0,0
		C37.5,15.7,37.3,15.5,37.3,15.2z M33.5,15.2c0-0.3,0.2-0.5,0.5-0.5l0,0c0.3,0,0.5,0.2,0.5,0.5l0,0c0,0.3-0.2,0.5-0.5,0.5l0,0
		C33.7,15.7,33.5,15.5,33.5,15.2z M29.7,15.2c0-0.3,0.2-0.5,0.5-0.5l0,0c0.3,0,0.5,0.2,0.5,0.5l0,0c0,0.3-0.2,0.5-0.5,0.5l0,0
		C29.9,15.7,29.7,15.5,29.7,15.2z M25.9,15.2c0-0.3,0.2-0.5,0.5-0.5l0,0c0.3,0,0.5,0.2,0.5,0.5l0,0c0,0.3-0.2,0.5-0.5,0.5l0,0
		C26.1,15.7,25.9,15.5,25.9,15.2z M22.1,15.2c0-0.3,0.2-0.5,0.5-0.5l0,0c0.3,0,0.5,0.2,0.5,0.5l0,0c0,0.3-0.2,0.5-0.5,0.5l0,0
		C22.3,15.7,22.1,15.5,22.1,15.2z M18.3,15.2c0-0.3,0.2-0.5,0.5-0.5l0,0c0.3,0,0.5,0.2,0.5,0.5l0,0c0,0.3-0.2,0.5-0.5,0.5l0,0
		C18.5,15.7,18.3,15.5,18.3,15.2z"/>
	<path class="st1" d="M63.9,30.1c0-0.3,0.2-0.5,0.5-0.5l0,0c0.3,0,0.5,0.2,0.5,0.5l0,0c0,0.3-0.2,0.5-0.5,0.5l0,0
		C64.1,30.6,63.9,30.4,63.9,30.1z"/>
	<path class="st1" d="M63.9,26.3c0-0.3,0.2-0.5,0.5-0.5l0,0c0.3,0,0.5,0.2,0.5,0.5l0,0c0,0.3-0.2,0.5-0.5,0.5l0,0
		C64.1,26.8,63.9,26.6,63.9,26.3z"/>
	<path class="st1" d="M63.9,22.5c0-0.3,0.2-0.5,0.5-0.5l0,0c0.3,0,0.5,0.2,0.5,0.5l0,0c0,0.3-0.2,0.5-0.5,0.5l0,0
		C64.1,23,63.9,22.8,63.9,22.5z"/>
	<path class="st1" d="M63.9,18.7c0-0.3,0.2-0.5,0.5-0.5l0,0c0.3,0,0.5,0.2,0.5,0.5l0,0c0,0.3-0.2,0.5-0.5,0.5l0,0
		C64.1,19.2,63.9,19,63.9,18.7z"/>
	<path class="st1" d="M18.3,29.9c0-0.3,0.2-0.5,0.5-0.5l0,0c0.3,0,0.5,0.2,0.5,0.5l0,0c0,0.3-0.2,0.5-0.5,0.5l0,0
		C18.5,30.4,18.3,30.1,18.3,29.9z"/>
	<path class="st1" d="M18.3,26.1c0-0.3,0.2-0.5,0.5-0.5l0,0c0.3,0,0.5,0.2,0.5,0.5l0,0c0,0.3-0.2,0.5-0.5,0.5l0,0
		C18.5,26.6,18.3,26.3,18.3,26.1z"/>
	<path class="st1" d="M18.3,22.3c0-0.3,0.2-0.5,0.5-0.5l0,0c0.3,0,0.5,0.2,0.5,0.5l0,0c0,0.3-0.2,0.5-0.5,0.5l0,0
		C18.5,22.8,18.3,22.5,18.3,22.3z"/>
	<path class="st1" d="M18.3,18.5c0-0.3,0.2-0.5,0.5-0.5l0,0c0.3,0,0.5,0.2,0.5,0.5l0,0c0,0.3-0.2,0.5-0.5,0.5l0,0
		C18.5,19,18.3,18.7,18.3,18.5z"/>
	<path class="st1" d="M18.3,33.6c0-0.3,0.2-0.5,0.5-0.5l0,0c0.3,0,0.5,0.2,0.5,0.5l0,0c0,0.3-0.2,0.5-0.5,0.5l0,0
		C18.5,34.1,18.3,33.9,18.3,33.6z"/>
	<path class="st1" d="M63.9,33.6c0-0.3,0.2-0.5,0.5-0.5l0,0c0.3,0,0.5,0.2,0.5,0.5l0,0c0,0.3-0.2,0.5-0.5,0.5l0,0
		C64.1,34.1,63.9,33.9,63.9,33.6z"/>
</g>
</svg>
