<?xml version="1.0" encoding="utf-8"?>
<!-- Generator: Adobe Illustrator 19.2.0, SVG Export Plug-In . SVG Version: 6.00 Build 0)  -->
<svg version="1.1" id="Layer_1" xmlns="http://www.w3.org/2000/svg" xmlns:xlink="http://www.w3.org/1999/xlink" x="0px" y="0px"
	 viewBox="0 0 577 431" style="enable-background:new 0 0 577 431;" xml:space="preserve">
<style type="text/css">
	.st0{fill:#387B9B;}
	.st1{fill:#87D37C;}
	.st2{fill:#6DA523;}
	.st3{opacity:0.1;}
	.st4{fill:#0F0F0F;}
	.st5{fill:#E8E9EA;}
	.st6{fill:#E54E27;}
</style>
<g>
	<g>
		<circle class="st0" cx="288.1" cy="215.7" r="160.2"/>
		<g>
			<g>
				<path class="st1" d="M185.9,240.9c-0.1,0.1-0.1,0.4-0.1,0.4S185.9,241.2,185.9,240.9z"/>
				<path class="st2" d="M282.3,238.8l-17-11.3l-6.3-0.5l-5.7-11.2l-10.8-5.6l-12,0.3l-5.7,4.8l-5.5-10.8l-11.7,0.3l-4.8,5.1h-12.2
					l-0.3-5.5l-5.3-5.2l-0.3-6.1c0,0-6.6-1.1-6.2,0.2c0.3,1.3-5,4.8-5,4.8c-1.3-0.6-5.5-10.9-5.5-10.9l5.3-5.5
					c0,0,16.4,0.4,18.1-0.1c1.7-0.4,9.5,4.5,10.6,5.1c1.1,0.6,12.3-11.2,11.9-12.1c-0.4-0.9,5.5-20.4,5.4-21.6
					c-0.1-1.2,10.9-11.5,10.9-11.5l17.6-0.3l-0.1-11.2l1.7-0.1l15.7,5.8l10.8-11.6l-5.9-0.2c0.9-3.7-9.7-17.9-10.9-16.8
					c-1.2,1.1-10.5,5.4-10.5,5.4l-23.6,0.4c0,0-6,10.8-6.2,11l-4.9-5.3l-6.4-0.3l0.3-11.6l14.9-5.3l2.6-0.1l5.9,5.5l15.1-5.4
					l12.8-0.2c-1.1-8.1-11-17-11-17h-11.8c1.2,1.3-15.2,10.9-15.2,10.9c-0.8,0.3-2.9,0-2.9,0c-2.2-7.1-20.8-11.4-20.8-11.4l-0.2,0.1
					c-61.1,41.7-67.5,107.4-67.5,107.4l0.8,0.6l2.7,1l7,0.8l5,5.3c0,0-0.3-1.5,6.8,0.1c7.1,1.6,15.5,11.1,15.5,11.1l12.2,0.3
					l5.3,5.6h11.5l0.1,6.3c0,0-5.5,4.5-6.7,6.8c-1.1,2.1-3.4,10.3-3.9,12.1c0.1-0.1,0.3,0.5,0.3,5c0.1,6.9,16.2,21.2,16.2,21.2
					l11.3,0.4l0.4,12l10.9,20.7c0,0-1.1,13.9-0.1,13.7c0,0,3.1,8.8,4.8,9.2c0,0,4.3,10.3,4.1,11.1c0,0,2.1,4.5,2.7,6.8
					c0.6,2.3,5.9,6.6,5.9,6.6l10.8-0.4c0,0-5-6-6.2-7.2c-1.2-1.2-4.6-8.4-4.6-8.4s0.3-0.5-0.1-2.5c-0.4-2,5.3-13.2,5.2-15.1
					c-0.1-1.9,12.2-6.2,12.2-6.2l-0.1-17.6l11.4-5.7c0,0-0.3-10.3,0.4-11.5c0.7-1.2,9.2-3.3,11.1-5.8c1.9-2.5,5-15.8,5.3-16.5
					C288.1,249.8,282.8,237.8,282.3,238.8z"/>
			</g>
			<polygon class="st2" points="248.2,153.4 253.8,158.3 259.3,153.4 253.8,147.5 247.7,147.5 247.7,152.1 			"/>
			<polygon class="st2" points="264.5,152.1 258.8,147.5 259.3,141.7 270.8,141.7 270.3,146.9 265.9,151.3 			"/>
			<polygon class="st2" points="339.5,113 339.5,118.6 345.5,123.6 349.5,119 345.8,113.8 			"/>
			<polygon class="st2" points="351.6,113 356.6,108.1 367.2,113 362.5,123.6 356.8,123.6 356.8,117.6 			"/>
			<path class="st2" d="M379.5,84.2v16.7c0,0,0.8,1.9,6.6,7.3l10.7,4.2l-5.1,6l-12.2,0.7l-5.6,4.6v11.5l-5.6-4.7l-11.7,0.1l-5,10.8
				L357,152l10.2,1.1l7.5-7.1c0,0,11.1-3.4,15.1-9.7c4.1-6.2,5.2,8,5.2,8l1.7,8.8l5.7,5l10.7-5.3l-9.7-11.5l4.5-5.1l11.2,9.5
				l0.6,6.5l6.6,0.8l4.7,5.1l6.7,0.6C437.8,158.7,423.1,114.2,379.5,84.2z"/>
			<path class="st2" d="M410.1,319.6l-8-6.1v-11.7l-9.9-20.9l10.7-13l-5.3-10.7l0.5-13.5l-10.2-4.1l-11.7-1.8l-12,7.1l-12.6-1
				l-12.1-5.1c0,0-5.9-14.8-5.9-15.5c0-0.8,0-17,0-17l4.8-5.1l1-19.8l5-4.8h11.3l8.7-5.3l20.9-1.5l15.8,10.7c0,0,14-9.9,18.8-8.7
				c4.8,1.3,7.9,3.3,10.7,3.8c2.8,0.5,12.7,0.4,12.7,0.4S469,248.9,410.1,319.6z"/>
		</g>
	</g>
	<g class="st3">
		<path class="st4" d="M315,59c61.8,17.9,107.1,74.9,107.1,142.5c0,81.9-66.4,148.3-148.3,148.3c-67.6,0-124.6-45.2-142.5-107.1
			c11,79.1,78.9,140,161.1,140c89.8,0,162.7-72.8,162.7-162.7C455,138,394.1,70,315,59z"/>
	</g>
	<g>
		<g>
			<path class="st5" d="M285.4,250c0-0.6,0.5-1,1-1l0,0c0.6,0,1,0.4,1,1l0,0c0,0.6-0.5,1-1,1l0,0C285.9,251,285.4,250.5,285.4,250z
				 M293.4,250c0-0.6,0.5-1,1-1l0,0c0.5,0,1,0.4,1,1l0,0c0,0.5-0.4,1-1,1l0,0c0,0,0,0,0,0l0,0C293.9,251,293.4,250.5,293.4,250z
				 M278.4,251c-0.5,0-1-0.5-1-1l0,0c0-0.6,0.5-1,1-1l0,0c0.5,0,1,0.5,1,1l0,0C279.4,250.5,279,251,278.4,251L278.4,251L278.4,251z
				 M301.4,249.9c0-0.6,0.4-1,1-1l0,0c0.5,0,1,0.4,1,1l0,0c0,0.6-0.4,1-1,1l0,0l0,0l0,0C301.9,250.9,301.4,250.5,301.4,249.9z
				 M270.4,250.9c-0.5,0-1-0.5-1-1l0,0c0-0.5,0.5-1,1-1l0,0c0.5,0,1,0.5,1,1l0,0C271.4,250.5,271,250.9,270.4,250.9L270.4,250.9
				L270.4,250.9z M309.4,249.9c0-0.5,0.4-1,1-1h0c0.6,0,1,0.4,1,1l0,0c0,0.5-0.4,1-1,1l0,0c0,0,0,0,0,0l0,0c0,0,0,0,0,0l0,0
				C309.9,250.9,309.4,250.4,309.4,249.9z M262.4,250.8c-0.6,0-1-0.5-1-1l0,0c0-0.6,0.5-1,1-1v0c0.5,0,1,0.5,1,1l0,0
				C263.4,250.4,263,250.8,262.4,250.8L262.4,250.8C262.4,250.8,262.4,250.8,262.4,250.8z M317.4,249.8c0-0.6,0.4-1,1-1l0,0
				c0.6,0,1,0.4,1,1l0,0c0,0.6-0.4,1-1,1l0,0h0l0,0C317.9,250.8,317.4,250.3,317.4,249.8z M254.4,250.7c-0.5,0-1-0.5-1-1l0,0
				c0-0.6,0.5-1,1-1l0,0c0.5,0,1,0.5,1,1l0,0C255.4,250.3,255,250.7,254.4,250.7L254.4,250.7C254.4,250.7,254.4,250.7,254.4,250.7z
				 M325.4,249.6c0-0.5,0.4-1,1-1l0,0c0.6,0,1,0.4,1,1l0,0c0,0.5-0.4,1-1,1l0,0h0l0,0C325.9,250.6,325.4,250.2,325.4,249.6z
				 M246.4,250.6c-0.6,0-1-0.5-1-1l0,0c0-0.6,0.5-1,1-1l0,0c0.6,0,1,0.5,1,1l0,0C247.4,250.1,247,250.6,246.4,250.6L246.4,250.6
				C246.4,250.6,246.4,250.6,246.4,250.6z M333.4,249.5c0-0.5,0.4-1,1-1l0,0c0.6,0,1,0.4,1,1l0,0c0,0.6-0.4,1-1,1l0,0c0,0,0,0,0,0
				l0,0C333.9,250.5,333.4,250,333.4,249.5z M238.4,250.4c-0.5,0-1-0.5-1-1l0,0c0-0.6,0.5-1,1-1l0,0c0.5,0,1,0.5,1,1l0,0
				C239.4,250,239,250.4,238.4,250.4L238.4,250.4C238.4,250.4,238.4,250.4,238.4,250.4z M341.4,249.3c0-0.5,0.4-1,1-1l0,0
				c0.5,0,1,0.4,1,1l0,0c0,0.5-0.4,1-1,1l0,0c0,0,0,0,0,0l0,0c0,0,0,0,0,0l0,0C341.9,250.3,341.4,249.9,341.4,249.3z M230.4,250.2
				c-0.5,0-1-0.5-1-1l0,0c0-0.5,0.5-1,1-1l0,0c0.5,0,1,0.5,1,1l0,0C231.4,249.8,230.9,250.2,230.4,250.2L230.4,250.2
				C230.4,250.2,230.4,250.2,230.4,250.2z M349.4,249.1c0-0.6,0.4-1,1-1l0,0c0.5,0,1,0.4,1,1l0,0c0,0.6-0.4,1-1,1l0,0c0,0,0,0,0,0
				l0,0C349.9,250.1,349.4,249.6,349.4,249.1z M222.4,250C222.4,250,222.4,250,222.4,250L222.4,250c-0.5,0-1-0.5-1-1l0,0
				c0-0.5,0.5-1,1-1l0,0c0.6,0,1,0.5,1,1l0,0C223.4,249.5,222.9,250,222.4,250L222.4,250C222.4,250,222.4,250,222.4,250z
				 M357.4,248.8c0-0.6,0.4-1,1-1l0,0c0.5,0,1,0.4,1,1l0,0c0,0.5-0.4,1-1,1l0,0l0,0l0,0c0,0,0,0,0,0l0,0
				C357.9,249.8,357.4,249.4,357.4,248.8z M214.4,249.7c-0.5,0-1-0.5-1-1l0,0c0-0.5,0.5-1,1-1h0c0.5,0,1,0.5,1,1l0,0
				C215.4,249.3,214.9,249.7,214.4,249.7L214.4,249.7C214.4,249.7,214.4,249.7,214.4,249.7z M365.4,248.6c0-0.5,0.4-1,1-1l0,0
				c0.6,0,1,0.4,1,1l0,0c0,0.5-0.4,1-1,1l0,0c0,0,0,0,0,0l0,0C365.9,249.5,365.4,249.1,365.4,248.6z M206.4,249.4c-0.5,0-1-0.5-1-1
				l0,0c0-0.6,0.5-1,1-1l0,0c0.5,0,1,0.5,1,1l0,0C207.4,249,206.9,249.4,206.4,249.4L206.4,249.4
				C206.4,249.4,206.4,249.4,206.4,249.4z M373.4,248.2c0-0.6,0.4-1,1-1l0,0c0.5,0,1,0.4,1,1l0,0c0,0.5-0.4,1-1,1l0,0c0,0,0,0,0,0
				l0,0C373.9,249.2,373.4,248.8,373.4,248.2z M198.4,249.1c-0.5,0-1-0.5-1-1l0,0c0-0.6,0.5-1,1-1l0,0c0.5,0,1,0.5,1,1.1l0,0
				C199.4,248.6,199,249.1,198.4,249.1L198.4,249.1C198.4,249.1,198.4,249.1,198.4,249.1z M381.4,247.9c0-0.5,0.4-1,1-1l0,0
				c0.5,0,1,0.4,1,1l0,0c0,0.5-0.4,1-0.9,1l0,0c0,0,0,0-0.1,0l0,0C381.9,248.8,381.4,248.4,381.4,247.9z M190.4,248.7
				c-0.5,0-1-0.5-1-1l0,0c0-0.5,0.5-1,1-1l0,0c0.5,0,1,0.5,1,1.1l0,0C191.4,248.3,191,248.7,190.4,248.7L190.4,248.7
				C190.4,248.7,190.4,248.7,190.4,248.7z M389.4,247.5c0-0.6,0.4-1,0.9-1.1l0,0c0.6,0,1,0.4,1.1,0.9l0,0c0,0.6-0.4,1-0.9,1.1l0,0
				c0,0,0,0-0.1,0l0,0C389.9,248.5,389.4,248,389.4,247.5z M182.4,248.3C182.4,248.3,182.4,248.3,182.4,248.3L182.4,248.3
				c-0.5,0-1-0.5-0.9-1.1l0,0c0-0.5,0.5-1,1-0.9h0c0.5,0,1,0.5,0.9,1.1l0,0C183.4,247.9,183,248.3,182.4,248.3L182.4,248.3
				C182.4,248.3,182.4,248.3,182.4,248.3z M397.4,247.1c0-0.5,0.4-1,0.9-1l0,0c0.5,0,1,0.4,1.1,0.9l0,0c0,0.5-0.4,1-1,1.1l0,0
				c0,0,0,0,0,0l0,0c0,0,0,0-0.1,0l0,0C397.9,248,397.4,247.6,397.4,247.1z M174.4,247.8c-0.5,0-1-0.5-0.9-1.1l0,0
				c0-0.6,0.5-1,1.1-0.9l0,0c0.5,0,1,0.5,0.9,1.1l0,0C175.4,247.4,175,247.8,174.4,247.8L174.4,247.8
				C174.4,247.8,174.4,247.8,174.4,247.8z M405.4,246.6c0-0.5,0.4-1,0.9-1.1l0,0c0.5,0,1,0.4,1,0.9l0,0c0,0.6-0.4,1-0.9,1.1l0,0
				c0,0,0,0-0.1,0l0,0C405.9,247.6,405.4,247.1,405.4,246.6z M166.4,247.3L166.4,247.3L166.4,247.3c-0.5,0-1-0.5-0.9-1.1l0,0
				c0-0.5,0.5-1,1.1-0.9l0,0c0.6,0,1,0.5,0.9,1.1l0,0C167.4,246.9,167,247.4,166.4,247.3L166.4,247.3
				C166.4,247.4,166.4,247.4,166.4,247.3z M413.4,246.1c0-0.5,0.4-1,0.9-1.1l0,0c0.5,0,1,0.4,1.1,0.9l0,0c0,0.5-0.4,1-0.9,1.1l0,0
				c0,0,0,0-0.1,0l0,0C413.8,247.1,413.4,246.6,413.4,246.1z M158.4,246.8c-0.5,0-1-0.5-0.9-1.1l0,0c0-0.6,0.5-1,1.1-0.9l0,0
				c0.5,0,1,0.5,0.9,1.1l0,0C159.4,246.4,159,246.8,158.4,246.8L158.4,246.8C158.4,246.8,158.4,246.8,158.4,246.8z M421.4,245.6
				c0-0.5,0.4-1,0.9-1.1l0,0c0.5,0,1,0.4,1.1,0.9l0,0c0,0.6-0.4,1-0.9,1.1l0,0c0,0,0,0-0.1,0l0,0
				C421.8,246.5,421.4,246.1,421.4,245.6z M150.4,246.3c-0.5,0-1-0.5-0.9-1.1l0,0c0-0.6,0.5-1,1.1-0.9l0,0c0.6,0,1,0.5,0.9,1.1l0,0
				C151.4,245.9,151,246.3,150.4,246.3L150.4,246.3C150.5,246.3,150.4,246.3,150.4,246.3z M429.3,245c0-0.6,0.4-1,0.9-1.1l0,0
				c0.5,0,1,0.4,1.1,0.9l0,0c0,0.5-0.4,1-0.9,1.1l0,0c0,0,0,0-0.1,0l0,0C429.8,245.9,429.4,245.5,429.3,245z M142.4,245.7
				C142.4,245.7,142.4,245.7,142.4,245.7L142.4,245.7c-0.5,0-1-0.5-0.9-1.1l0,0c0-0.5,0.5-1,1.1-0.9l0,0c0.5,0,1,0.5,0.9,1.1l0,0
				C143.5,245.3,143,245.7,142.4,245.7L142.4,245.7C142.5,245.7,142.5,245.7,142.4,245.7z M437.3,244.4c0-0.6,0.4-1,0.9-1.1l0,0
				c0.5,0,1,0.4,1.1,0.9l0,0c0,0.5-0.4,1-0.9,1.1l0,0c0,0-0.1,0-0.1,0l0,0C437.8,245.3,437.4,244.9,437.3,244.4z M134.4,245
				c-0.5,0-1-0.5-0.9-1.1l0,0c0-0.5,0.5-1,1.1-0.9l0,0c0.5,0,1,0.5,0.9,1.1l0,0C135.5,244.6,135,245,134.4,245L134.4,245
				C134.5,245,134.5,245,134.4,245z M445.3,243.7c0-0.6,0.4-1,0.9-1.1l0,0c0.6,0,1,0.4,1.1,0.9l0,0c0,0.5-0.4,1-0.9,1.1l0,0
				c0,0-0.1,0-0.1,0l0,0C445.8,244.6,445.3,244.2,445.3,243.7z M126.5,244.3L126.5,244.3L126.5,244.3c-0.5-0.1-1-0.5-0.9-1.1l0,0
				c0.1-0.5,0.5-1,1.1-0.9l0,0c0.6,0,1,0.5,0.9,1.1l0,0C127.5,243.9,127.1,244.3,126.5,244.3L126.5,244.3
				C126.5,244.3,126.5,244.3,126.5,244.3z M453.3,243c0-0.5,0.3-1,0.9-1.1l0,0c0.6-0.1,1,0.4,1.1,0.9l0,0c0.1,0.6-0.4,1-0.9,1.1l0,0
				c0,0-0.1,0-0.1,0l0,0C453.7,243.9,453.3,243.5,453.3,243z M118.5,243.5c-0.6-0.1-1-0.5-0.9-1.1l0,0c0.1-0.5,0.5-1,1.1-0.9l0,0
				c0.6,0,0.9,0.5,0.9,1.1l0,0C119.5,243.2,119.1,243.5,118.5,243.5L118.5,243.5C118.6,243.5,118.5,243.5,118.5,243.5z M461.2,242.2
				c-0.1-0.5,0.3-1,0.9-1.1l0,0c0.6-0.1,1,0.3,1.1,0.9l0,0c0,0.5-0.3,1-0.9,1.1l0,0c0,0-0.1,0-0.1,0l0,0
				C461.7,243.1,461.3,242.7,461.2,242.2z M110.5,242.7c-0.5-0.1-0.9-0.6-0.9-1.1l0,0c0.1-0.5,0.5-0.9,1.1-0.9l0,0
				c0.6,0,1,0.5,0.9,1.1l0,0c-0.1,0.5-0.5,0.9-1,0.9l0,0C110.6,242.7,110.6,242.7,110.5,242.7z M469.2,241.3c-0.1-0.5,0.3-1,0.9-1.1
				l0,0c0.5-0.1,1,0.3,1.1,0.9l0,0c0.1,0.5-0.3,1-0.9,1.1l0,0c0,0-0.1,0-0.1,0l0,0C469.7,242.2,469.2,241.8,469.2,241.3z
				 M102.6,241.8c-0.5-0.1-0.9-0.6-0.9-1.1l0,0c0.1-0.6,0.5-0.9,1.1-0.9l0,0c0.5,0.1,0.9,0.6,0.9,1.1l0,0c0,0.5-0.5,0.9-1,0.9l0,0
				C102.6,241.9,102.6,241.8,102.6,241.8z M477.1,240.4c-0.1-0.5,0.3-1,0.9-1.1l0,0c0.5-0.1,1,0.3,1.1,0.9l0,0
				c0.1,0.6-0.3,1.1-0.9,1.1l0,0c0,0-0.1,0-0.1,0l0,0C477.6,241.3,477.2,240.9,477.1,240.4z M94.6,240.9c-0.5-0.1-0.9-0.6-0.9-1.1
				l0,0c0.1-0.6,0.6-0.9,1.1-0.9l0,0c0.5,0.1,0.9,0.6,0.9,1.1l0,0c-0.1,0.5-0.5,0.9-1,0.9l0,0C94.7,240.9,94.6,240.9,94.6,240.9z
				 M485.1,239.5c-0.1-0.5,0.3-1,0.9-1.1l0,0c0.6-0.1,1.1,0.3,1.1,0.9l0,0c0.1,0.5-0.3,1.1-0.9,1.1l0,0c-0.1,0-0.1,0-0.1,0l0,0
				C485.6,240.3,485.1,240,485.1,239.5z M86.7,239.9L86.7,239.9L86.7,239.9c-0.5-0.1-0.9-0.6-0.9-1.1l0,0c0.1-0.6,0.6-0.9,1.1-0.9
				l0,0c0.5,0.1,0.9,0.6,0.9,1.1l0,0c-0.1,0.5-0.5,0.9-1,0.9l0,0C86.7,239.9,86.7,239.9,86.7,239.9z M493,238.4
				c-0.1-0.5,0.3-1,0.9-1.1l0,0c0.5-0.1,1,0.3,1.1,0.9l0,0c0.1,0.5-0.3,1-0.9,1.1l0,0l0,0l0,0c0,0-0.1,0-0.1,0l0,0
				C493.5,239.3,493.1,238.9,493,238.4z M78.7,238.8c-0.5-0.1-0.9-0.6-0.8-1.1l0,0c0.1-0.5,0.6-0.9,1.1-0.8l0,0
				c0.5,0.1,0.9,0.6,0.8,1.1l0,0c-0.1,0.5-0.5,0.9-1,0.9l0,0C78.8,238.8,78.8,238.8,78.7,238.8z M500.9,237.3
				c-0.1-0.5,0.3-1.1,0.8-1.1l0,0c0.6-0.1,1.1,0.3,1.1,0.8l0,0c0.1,0.5-0.3,1-0.8,1.1l0,0c-0.1,0-0.1,0-0.2,0l0,0
				C501.4,238.1,501,237.8,500.9,237.3z M70.8,237.6C70.8,237.6,70.8,237.6,70.8,237.6L70.8,237.6c-0.5-0.1-0.9-0.6-0.8-1.1l0,0
				c0.1-0.5,0.6-0.9,1.1-0.8l0,0c0.5,0.1,0.9,0.6,0.8,1.1l0,0c-0.1,0.5-0.5,0.9-1,0.9l0,0C70.9,237.6,70.8,237.6,70.8,237.6z
				 M508.8,236.1c-0.1-0.5,0.3-1.1,0.8-1.1l0,0c0.5-0.1,1.1,0.3,1.2,0.8l0,0c0.1,0.5-0.3,1-0.8,1.1l0,0c-0.1,0-0.1,0-0.2,0l0,0
				C509.4,236.9,508.9,236.5,508.8,236.1z M62.9,236.3c-0.5-0.1-0.9-0.6-0.8-1.2l0,0c0.1-0.5,0.6-0.9,1.2-0.8l0,0
				c0.5,0.1,0.9,0.6,0.8,1.1l0,0c-0.1,0.5-0.5,0.8-1,0.8l0,0C63,236.3,62.9,236.3,62.9,236.3z M516.7,234.7
				c-0.1-0.5,0.3-1.1,0.8-1.2l0,0c0.5-0.1,1.1,0.3,1.2,0.8l0,0c0.1,0.5-0.3,1.1-0.8,1.2l0,0c-0.1,0-0.1,0-0.2,0l0,0
				C517.2,235.5,516.8,235.2,516.7,234.7z M55,234.9c-0.5-0.1-0.9-0.6-0.8-1.2l0,0c0.1-0.5,0.6-0.9,1.2-0.8h0
				c0.5,0.1,0.9,0.6,0.8,1.2l0,0c-0.1,0.5-0.5,0.8-1,0.8l0,0C55.1,234.9,55,234.9,55,234.9z M524.6,233.3c-0.1-0.5,0.2-1.1,0.8-1.2
				l0,0c0.5-0.1,1.1,0.3,1.2,0.8l0,0c0.1,0.5-0.3,1.1-0.8,1.2l0,0c-0.1,0-0.1,0-0.2,0l0,0C525.1,234.1,524.7,233.7,524.6,233.3z
				 M47.1,233.4C47.1,233.4,47.1,233.4,47.1,233.4L47.1,233.4c-0.5-0.1-0.9-0.6-0.8-1.2l0,0c0.1-0.5,0.6-0.9,1.2-0.8l0,0
				c0.5,0.1,0.9,0.6,0.8,1.2l0,0c-0.1,0.5-0.5,0.8-1,0.8l0,0C47.2,233.4,47.2,233.4,47.1,233.4z M532.5,231.6
				c-0.1-0.5,0.2-1.1,0.8-1.2l0,0c0.5-0.1,1.1,0.2,1.2,0.8l0,0c0.1,0.5-0.2,1.1-0.8,1.2l0,0c-0.1,0-0.1,0-0.2,0l0,0
				C533,232.4,532.6,232.1,532.5,231.6z M39.3,231.7c-0.5-0.1-0.9-0.7-0.8-1.2l0,0c0.1-0.5,0.7-0.9,1.2-0.8l0,0
				c0.5,0.1,0.9,0.7,0.8,1.2l0,0c-0.1,0.5-0.5,0.8-1,0.8l0,0C39.4,231.7,39.3,231.7,39.3,231.7z M540.3,229.8
				c-0.1-0.5,0.2-1.1,0.7-1.2l0,0c0.5-0.1,1.1,0.2,1.2,0.7l0,0c0.1,0.5-0.2,1.1-0.7,1.2l0,0l0,0l0,0c-0.1,0-0.2,0-0.3,0l0,0
				C540.8,230.6,540.4,230.3,540.3,229.8z M31.5,229.7L31.5,229.7L31.5,229.7c-0.5-0.1-0.9-0.7-0.7-1.2l0,0c0.1-0.5,0.7-0.9,1.2-0.7
				l0,0c0.5,0.1,0.9,0.7,0.7,1.2l0,0c-0.1,0.5-0.5,0.7-1,0.7l0,0C31.6,229.8,31.5,229.7,31.5,229.7z M548,227.8
				c-0.1-0.5,0.2-1.1,0.7-1.2l0,0c0.5-0.2,1.1,0.1,1.2,0.7l0,0c0.2,0.5-0.1,1.1-0.7,1.2l0,0c-0.1,0-0.2,0-0.3,0l0,0
				C548.5,228.5,548.1,228.2,548,227.8z M23.7,227.5c-0.5-0.2-0.8-0.7-0.6-1.3l0,0c0.2-0.5,0.7-0.8,1.3-0.7h0
				c0.5,0.2,0.8,0.7,0.6,1.3l0,0c-0.1,0.4-0.5,0.7-1,0.7l0,0C23.9,227.5,23.8,227.5,23.7,227.5z M555.6,225.4
				c-0.2-0.5,0.1-1.1,0.6-1.3l0,0c0.5-0.2,1.1,0.1,1.3,0.6l0,0c0.2,0.5-0.1,1.1-0.6,1.3l0,0c-0.1,0-0.2,0.1-0.3,0.1l0,0
				C556.2,226,555.8,225.8,555.6,225.4z M16.1,224.8L16.1,224.8L16.1,224.8c-0.5-0.2-0.8-0.8-0.6-1.3l0,0c0.2-0.5,0.8-0.8,1.3-0.6
				l0,0c0.5,0.2,0.8,0.8,0.6,1.3l0,0c-0.1,0.4-0.5,0.6-0.9,0.6l0,0C16.4,224.9,16.2,224.9,16.1,224.8z M563.1,222.4
				c-0.2-0.5,0-1.1,0.5-1.3l0,0c0.5-0.2,1.1,0,1.3,0.5l0,0c0.2,0.5,0,1.1-0.5,1.3l0,0c-0.1,0.1-0.3,0.1-0.4,0.1l0,0
				C563.6,223,563.2,222.8,563.1,222.4z M8.7,221.4L8.7,221.4L8.7,221.4c-0.5-0.3-0.7-0.9-0.4-1.4l0,0c0.3-0.5,0.9-0.7,1.4-0.4h0
				c0.5,0.3,0.7,0.9,0.4,1.4l0,0c-0.2,0.3-0.5,0.5-0.9,0.5l0,0C9.1,221.5,8.9,221.5,8.7,221.4z M570,218.6c-0.3-0.4-0.3-1.1,0.2-1.4
				l0,0c0.4-0.4,1.1-0.3,1.4,0.1l0,0c0.3,0.4,0.3,1.1-0.2,1.4l0,0c-0.2,0.1-0.4,0.2-0.6,0.2l0,0C570.5,218.9,570.2,218.8,570,218.6z
				 M2.2,216.3c-0.3-0.4-0.3-1.1,0.2-1.4l0,0c0.4-0.4,1.1-0.3,1.4,0.1l0,0c0.4,0.4,0.3,1.1-0.1,1.4l0,0c-0.2,0.1-0.4,0.2-0.6,0.2
				l0,0C2.7,216.7,2.4,216.5,2.2,216.3z M573.8,211.5c0-0.2,0.1-0.4,0.2-0.6l0,0c-0.1-0.1-0.3-0.3-0.3-0.5l0,0
				c-0.1-0.5,0.2-1.1,0.7-1.2l0,0c0.5-0.1,1.1,0.2,1.2,0.7l0,0c0.1,0.3,0,0.6-0.2,0.8l0,0c0.2,0.2,0.4,0.5,0.4,0.8l0,0
				c0,0.5-0.5,1-1,1l0,0C574.2,212.5,573.8,212.1,573.8,211.5z M1.7,209.4c-0.5-0.3-0.7-0.9-0.4-1.4l0,0l0,0l0,0
				c0.3-0.5,0.9-0.6,1.4-0.4l0,0c0.5,0.3,0.6,0.9,0.4,1.4h0c-0.2,0.3-0.5,0.5-0.9,0.5l0,0C2,209.5,1.9,209.4,1.7,209.4z
				 M569.1,205.1L569.1,205.1c-0.5-0.3-0.6-0.9-0.2-1.4l0,0c0.3-0.4,0.9-0.6,1.4-0.3l0,0c0.5,0.3,0.6,1,0.3,1.4l0,0
				c-0.2,0.3-0.5,0.4-0.8,0.4l0,0C569.5,205.2,569.3,205.2,569.1,205.1z M7.2,203.7c-0.3-0.5-0.1-1.1,0.3-1.4l0,0
				c0.5-0.3,1.1-0.1,1.4,0.3l0,0c0.3,0.5,0.1,1.1-0.3,1.4l0,0c-0.2,0.1-0.3,0.1-0.5,0.1l0,0C7.7,204.2,7.4,204,7.2,203.7z
				 M562.3,201.3L562.3,201.3c-0.5-0.2-0.7-0.8-0.5-1.3l0,0c0.2-0.5,0.8-0.7,1.3-0.5l0,0c0.5,0.2,0.7,0.8,0.5,1.3l0,0
				c-0.2,0.4-0.5,0.6-0.9,0.6l0,0C562.5,201.4,562.4,201.4,562.3,201.3z M14.3,200c-0.2-0.5,0-1.1,0.5-1.3l0,0
				c0.5-0.2,1.1,0,1.3,0.5l0,0c0.2,0.5,0,1.1-0.5,1.3h0c-0.1,0.1-0.3,0.1-0.4,0.1l0,0C14.8,200.7,14.4,200.4,14.3,200z M554.9,198.5
				c-0.5-0.2-0.8-0.7-0.6-1.3l0,0c0.2-0.5,0.8-0.8,1.3-0.6l0,0l0,0l0,0c0.5,0.2,0.8,0.8,0.6,1.3l0,0c-0.1,0.4-0.5,0.7-1,0.7l0,0
				C555.1,198.5,555,198.5,554.9,198.5z M21.7,197.2c-0.2-0.5,0.1-1.1,0.6-1.3l0,0c0.5-0.2,1.1,0.1,1.3,0.6l0,0
				c0.2,0.5-0.1,1.1-0.6,1.3l0,0c-0.1,0-0.2,0-0.3,0l0,0C22.3,197.9,21.9,197.6,21.7,197.2z M547.3,196.1L547.3,196.1
				c-0.5-0.1-0.8-0.7-0.7-1.2l0,0c0.1-0.5,0.7-0.8,1.2-0.7l0,0c0.5,0.2,0.8,0.7,0.7,1.2l0,0c-0.1,0.4-0.5,0.7-1,0.7l0,0
				C547.5,196.1,547.4,196.1,547.3,196.1z M29.4,194.9c-0.1-0.5,0.2-1.1,0.7-1.2l0,0c0.5-0.1,1.1,0.2,1.2,0.7l0,0
				c0.1,0.5-0.2,1.1-0.7,1.2l0,0c-0.1,0-0.2,0-0.3,0l0,0C29.9,195.6,29.5,195.3,29.4,194.9z M539.6,194.1L539.6,194.1
				c-0.5-0.1-0.9-0.7-0.7-1.2l0,0c0.1-0.5,0.7-0.9,1.2-0.7l0,0l0,0l0,0c0.5,0.1,0.9,0.7,0.7,1.2l0,0c-0.1,0.5-0.5,0.8-1,0.8l0,0
				C539.8,194.1,539.7,194.1,539.6,194.1z M37.1,192.9c-0.1-0.5,0.2-1.1,0.7-1.2l0,0c0.5-0.1,1.1,0.2,1.2,0.7l0,0
				c0.1,0.5-0.2,1.1-0.7,1.2l0,0c-0.1,0-0.2,0-0.2,0l0,0C37.7,193.6,37.3,193.3,37.1,192.9z M531.8,192.3L531.8,192.3
				c-0.5-0.1-0.9-0.6-0.8-1.2l0,0c0.1-0.5,0.7-0.9,1.2-0.8l0,0c0.5,0.1,0.9,0.6,0.8,1.2l0,0c-0.1,0.5-0.5,0.8-1,0.8l0,0
				C532,192.3,531.9,192.3,531.8,192.3z M45,191.1c-0.1-0.5,0.2-1.1,0.8-1.2l0,0c0.5-0.1,1.1,0.2,1.2,0.8l0,0
				c0.1,0.5-0.2,1.1-0.8,1.2l0,0c-0.1,0-0.1,0-0.2,0l0,0C45.5,191.9,45,191.6,45,191.1z M524,190.7L524,190.7
				c-0.5-0.1-0.9-0.6-0.8-1.2l0,0c0.1-0.5,0.6-0.9,1.2-0.8l0,0l0,0l0,0c0.5,0.1,0.9,0.6,0.8,1.2l0,0c-0.1,0.5-0.5,0.8-1,0.8l0,0
				C524.1,190.7,524.1,190.7,524,190.7z M52.8,189.5c-0.1-0.5,0.3-1.1,0.8-1.2l0,0c0.5-0.1,1.1,0.3,1.2,0.8l0,0
				c0.1,0.5-0.3,1.1-0.8,1.2l0,0c-0.1,0-0.1,0-0.2,0l0,0C53.3,190.3,52.9,190,52.8,189.5z M516.2,189.2c-0.6-0.1-0.9-0.6-0.8-1.2
				l0,0c0.1-0.5,0.6-0.9,1.2-0.8l0,0c0.5,0.1,0.9,0.6,0.8,1.2l0,0c-0.1,0.5-0.5,0.8-1,0.8l0,0C516.3,189.2,516.2,189.2,516.2,189.2z
				 M60.7,188.1c-0.1-0.5,0.3-1.1,0.8-1.2l0,0c0.6-0.1,1.1,0.3,1.2,0.8l0,0c0.1,0.5-0.3,1.1-0.8,1.1l0,0c-0.1,0-0.1,0-0.2,0l0,0
				C61.2,188.9,60.8,188.6,60.7,188.1z M508.3,187.9L508.3,187.9c-0.5-0.1-0.9-0.6-0.8-1.1l0,0c0.1-0.5,0.6-0.9,1.1-0.8l0,0
				c0.5,0.1,0.9,0.6,0.8,1.1l0,0c-0.1,0.5-0.5,0.8-1,0.8l0,0C508.4,187.9,508.3,187.9,508.3,187.9z M68.6,186.8
				c-0.1-0.5,0.3-1.1,0.8-1.1l0,0c0.5-0.1,1.1,0.3,1.1,0.8l0,0c0.1,0.5-0.3,1.1-0.8,1.1l0,0c-0.1,0-0.1,0-0.2,0l0,0
				C69.1,187.6,68.6,187.2,68.6,186.8z M500.4,186.7c-0.5-0.1-0.9-0.6-0.8-1.1l0,0c0.1-0.5,0.6-0.9,1.1-0.8l0,0
				c0.5,0.1,0.9,0.6,0.8,1.1l0,0c-0.1,0.5-0.5,0.9-1,0.9l0,0C500.5,186.7,500.4,186.7,500.4,186.7z M76.5,185.5
				c-0.1-0.6,0.3-1.1,0.9-1.1l0,0c0.5-0.1,1,0.3,1.1,0.9l0,0c0.1,0.5-0.3,1.1-0.8,1.1l0,0c-0.1,0-0.1,0-0.2,0l0,0
				C77,186.4,76.5,186,76.5,185.5z M492.5,185.5c-0.5-0.1-0.9-0.6-0.9-1.1l0,0c0.1-0.5,0.6-0.9,1.1-0.8l0,0c0,0,0,0,0,0l0,0
				c0.6,0.1,0.9,0.6,0.9,1.1l0,0c-0.1,0.5-0.5,0.9-1,0.9l0,0C492.6,185.6,492.5,185.5,492.5,185.5z M84.4,184.4
				c-0.1-0.5,0.3-1,0.9-1.1l0,0c0.5-0.1,1,0.3,1.1,0.9l0,0c0.1,0.6-0.3,1.1-0.9,1.1l0,0c0,0-0.1,0-0.1,0l0,0
				C84.9,185.3,84.5,184.9,84.4,184.4z M484.5,184.5L484.5,184.5c-0.5-0.1-0.9-0.6-0.9-1.1l0,0c0.1-0.5,0.6-0.9,1.1-0.9l0,0
				c0.5,0.1,0.9,0.6,0.9,1.1l0,0c-0.1,0.5-0.5,0.9-1,0.9l0,0C484.6,184.5,484.6,184.5,484.5,184.5z M92.3,183.4
				c-0.1-0.6,0.3-1.1,0.9-1.1l0,0c0.5-0.1,1,0.3,1.1,0.9l0,0c0.1,0.5-0.3,1-0.9,1.1l0,0c0,0-0.1,0-0.1,0l0,0
				C92.8,184.3,92.4,183.9,92.3,183.4z M476.6,183.5c-0.5-0.1-0.9-0.6-0.9-1.1l0,0c0.1-0.5,0.6-0.9,1.1-0.9l0,0c0,0,0,0,0,0l0,0
				c0.5,0.1,0.9,0.6,0.9,1.1l0,0c-0.1,0.5-0.5,0.9-1,0.9l0,0C476.7,183.5,476.6,183.5,476.6,183.5z M100.3,182.4
				c-0.1-0.5,0.3-1,0.9-1.1l0,0c0.5-0.1,1,0.3,1.1,0.9l0,0c0.1,0.6-0.3,1.1-0.9,1.1l0,0c0,0-0.1,0-0.1,0l0,0
				C100.8,183.3,100.3,182.9,100.3,182.4z M468.7,182.6c-0.6-0.1-1-0.5-0.9-1.1l0,0c0.1-0.5,0.6-0.9,1.1-0.9l0,0
				c0.5,0.1,0.9,0.6,0.9,1.1l0,0c-0.1,0.5-0.5,0.9-1,0.9l0,0C468.7,182.6,468.7,182.6,468.7,182.6z M108.2,181.5
				c0-0.6,0.3-1,0.9-1.1l0,0c0.5-0.1,1,0.3,1.1,0.9l0,0c0.1,0.5-0.3,1-0.9,1.1l0,0c0,0-0.1,0-0.1,0l0,0
				C108.7,182.4,108.3,182.1,108.2,181.5z M460.7,181.8L460.7,181.8c-0.5-0.1-0.9-0.5-0.9-1.1l0,0c0.1-0.5,0.5-0.9,1.1-0.9l0,0
				c0.5,0.1,0.9,0.6,0.9,1.1l0,0c0,0.5-0.5,0.9-1,0.9l0,0C460.8,181.8,460.7,181.8,460.7,181.8z M116.2,180.7
				c-0.1-0.6,0.3-1,0.9-1.1l0,0c0.5-0.1,1,0.3,1.1,0.9l0,0c0.1,0.6-0.3,1-0.9,1.1l0,0c0,0-0.1,0-0.1,0l0,0
				C116.7,181.6,116.3,181.2,116.2,180.7z M452.8,181c-0.5-0.1-1-0.5-0.9-1.1l0,0c0-0.6,0.5-1,1.1-0.9l0,0c0.5,0.1,1,0.5,0.9,1.1
				l0,0C453.8,180.6,453.4,181,452.8,181L452.8,181C452.8,181,452.8,181,452.8,181z M124.2,179.9c0-0.5,0.3-1,0.9-1.1l0,0
				c0.6-0.1,1,0.3,1.1,0.9l0,0c0.1,0.5-0.3,1-0.9,1.1l0,0c0,0-0.1,0-0.1,0l0,0C124.7,180.8,124.2,180.5,124.2,179.9z"/>
		</g>
	</g>
	<g>
		<g>
			<path class="st5" d="M468.8,429.4c-0.5-0.1-1-0.5-0.9-1.1l0,0c0.1-0.5,0.5-0.9,1.1-0.9l0,0c0.5,0.1,0.9,0.5,0.9,1.1l0,0
				C469.8,429,469.4,429.4,468.8,429.4L468.8,429.4C468.9,429.4,468.8,429.4,468.8,429.4z M475.9,428.3c-0.1-0.5,0.3-1.1,0.8-1.2
				l0,0c0.5-0.1,1.1,0.2,1.2,0.8l0,0c0.1,0.5-0.2,1.1-0.8,1.2l0,0c-0.1,0-0.1,0-0.2,0l0,0C476.4,429.1,476,428.8,475.9,428.3z
				 M460.8,427.9c-0.5-0.1-0.9-0.7-0.7-1.2l0,0c0.1-0.5,0.7-0.9,1.2-0.7l0,0c0.5,0.1,0.8,0.7,0.7,1.2l0,0c-0.1,0.5-0.5,0.7-1,0.7
				l0,0C461,427.9,460.9,427.9,460.8,427.9z M483.2,425.4c-0.4-0.4-0.4-1,0-1.4h0c0.4-0.4,1-0.4,1.4,0l0,0c0.4,0.4,0.4,1,0,1.4l0,0
				c-0.2,0.2-0.4,0.3-0.7,0.3l0,0C483.7,425.7,483.4,425.6,483.2,425.4z M453.1,425.4c-0.5-0.2-0.8-0.8-0.6-1.3l0,0
				c0.2-0.5,0.8-0.8,1.3-0.6l0,0c0.5,0.2,0.8,0.8,0.6,1.3l0,0c-0.1,0.4-0.5,0.7-0.9,0.7l0,0C453.3,425.5,453.2,425.5,453.1,425.4z
				 M445.6,422.4c-0.5-0.2-0.7-0.8-0.5-1.3l0,0c0.2-0.5,0.8-0.7,1.3-0.5l0,0c0.5,0.2,0.7,0.8,0.5,1.3l0,0c-0.2,0.4-0.5,0.6-0.9,0.6
				l0,0C445.9,422.5,445.7,422.5,445.6,422.4z M487.3,419.7c-0.5-0.2-0.8-0.7-0.7-1.3l0,0c0.2-0.5,0.7-0.8,1.3-0.6l0,0
				c0.5,0.2,0.8,0.7,0.7,1.3l0,0c-0.1,0.4-0.5,0.7-1,0.7l0,0C487.5,419.7,487.4,419.7,487.3,419.7z M438.3,419
				c-0.5-0.3-0.7-0.9-0.5-1.4l0,0c0.2-0.5,0.8-0.7,1.3-0.4l0,0c0.5,0.2,0.7,0.8,0.5,1.3l0,0c-0.2,0.4-0.5,0.5-0.9,0.5l0,0
				C438.6,419.1,438.5,419.1,438.3,419z M431.2,415.3c-0.5-0.3-0.7-0.9-0.4-1.4l0,0c0.3-0.5,0.9-0.7,1.4-0.4l0,0
				c0.5,0.3,0.7,0.9,0.4,1.4l0,0c-0.2,0.3-0.5,0.5-0.9,0.5l0,0C431.5,415.4,431.4,415.3,431.2,415.3z M487.6,410.8L487.6,410.8
				c0-0.5,0.4-1,1-1l0,0c0.5,0,1,0.4,1,1l0,0c0,0.5-0.4,1-1,1l0,0c0,0,0,0,0,0l0,0C488.1,411.8,487.6,411.4,487.6,410.8z
				 M424.2,411.3L424.2,411.3L424.2,411.3c-0.5-0.3-0.6-0.9-0.4-1.4l0,0c0.3-0.5,0.9-0.6,1.4-0.4l0,0c0.5,0.3,0.6,0.9,0.4,1.4l0,0
				c-0.2,0.3-0.5,0.5-0.9,0.5l0,0C424.5,411.4,424.4,411.4,424.2,411.3z M417.3,407.1L417.3,407.1L417.3,407.1
				c-0.5-0.3-0.6-0.9-0.3-1.4l0,0c0.3-0.5,0.9-0.6,1.4-0.3l0,0c0.5,0.3,0.6,0.9,0.3,1.4l0,0c-0.2,0.3-0.5,0.5-0.9,0.5l0,0
				C417.7,407.3,417.5,407.3,417.3,407.1z M486.8,403.1c-0.1-0.5,0.3-1.1,0.8-1.2l0,0c0.5-0.1,1.1,0.3,1.2,0.8l0,0
				c0.1,0.6-0.3,1.1-0.8,1.2l0,0c0,0-0.1,0-0.2,0l0,0C487.3,403.9,486.9,403.5,486.8,403.1z M410.6,402.9c-0.5-0.3-0.6-0.9-0.3-1.4
				l0,0c0.3-0.5,0.9-0.6,1.4-0.3l0,0c0.5,0.3,0.6,0.9,0.3,1.4l0,0c-0.2,0.3-0.5,0.5-0.8,0.5l0,0C410.9,403,410.7,403,410.6,402.9z
				 M403.9,398.4c-0.5-0.3-0.6-0.9-0.3-1.4l0,0c0.3-0.5,0.9-0.6,1.4-0.3l0,0c0.5,0.3,0.6,0.9,0.3,1.4l0,0c-0.2,0.3-0.5,0.4-0.8,0.4
				l0,0C404.3,398.6,404.1,398.5,403.9,398.4z M485,395.4c-0.2-0.5,0.1-1.1,0.7-1.2l0,0c0.5-0.1,1.1,0.2,1.2,0.7l0,0
				c0.1,0.5-0.2,1.1-0.7,1.2l0,0c-0.1,0-0.2,0-0.3,0l0,0C485.5,396.1,485.1,395.8,485,395.4z M397.3,393.9
				C397.3,393.9,397.3,393.9,397.3,393.9L397.3,393.9c-0.5-0.3-0.6-0.9-0.3-1.4l0,0c0.3-0.5,0.9-0.6,1.4-0.2l0,0
				c0.5,0.3,0.6,0.9,0.3,1.4l0,0c-0.2,0.3-0.5,0.4-0.8,0.4l0,0C397.7,394.1,397.5,394,397.3,393.9z M390.7,389.2
				c-0.4-0.3-0.5-1-0.2-1.4l0,0c0.3-0.4,1-0.5,1.4-0.2l0,0c0.4,0.3,0.5,0.9,0.2,1.4l0,0c-0.2,0.3-0.5,0.4-0.8,0.4l0,0
				C391.1,389.4,390.9,389.3,390.7,389.2z M482.5,387.8c-0.2-0.5,0.1-1.1,0.6-1.3l0,0c0.5-0.2,1.1,0.1,1.3,0.6l0,0
				c0.2,0.5-0.1,1.1-0.6,1.3l0,0c-0.1,0-0.2,0.1-0.3,0.1l0,0C483.1,388.5,482.7,388.2,482.5,387.8z M384.3,384.5
				c-0.4-0.3-0.5-1-0.2-1.4l0,0c0.3-0.5,1-0.5,1.4-0.2l0,0c0.4,0.3,0.5,1,0.2,1.4l0,0c-0.2,0.3-0.5,0.4-0.8,0.4l0,0
				C384.7,384.7,384.5,384.6,384.3,384.5z M479.7,380.4c-0.2-0.5,0-1.1,0.5-1.3l0,0c0.5-0.2,1.1,0,1.3,0.5l0,0c0,0,0,0,0,0l0,0
				c0.2,0.5,0,1.1-0.5,1.3l0,0c-0.1,0-0.3,0.1-0.4,0.1l0,0C480.2,381,479.8,380.8,479.7,380.4z M377.9,379.6c-0.4-0.3-0.5-1-0.2-1.4
				l0,0c0.3-0.4,1-0.5,1.4-0.2l0,0c0.4,0.3,0.5,1,0.2,1.4l0,0c-0.2,0.3-0.5,0.4-0.8,0.4l0,0C378.3,379.9,378.1,379.8,377.9,379.6z
				 M371.5,374.8L371.5,374.8L371.5,374.8c-0.4-0.3-0.5-1-0.2-1.4l0,0c0.3-0.4,1-0.5,1.4-0.2l0,0c0.4,0.3,0.5,1,0.2,1.4l0,0
				c-0.2,0.3-0.5,0.4-0.8,0.4l0,0C371.9,375,371.7,374.9,371.5,374.8z M476.5,373.1c-0.2-0.5,0-1.1,0.5-1.3l0,0
				c0.5-0.2,1.1,0,1.3,0.5l0,0c0.2,0.5,0,1.1-0.5,1.3l0,0c-0.1,0.1-0.3,0.1-0.4,0.1l0,0C477,373.7,476.6,373.5,476.5,373.1z
				 M365.2,369.8c-0.4-0.3-0.5-1-0.2-1.4l0,0c0.3-0.4,1-0.5,1.4-0.2l0,0c0.4,0.3,0.5,1,0.2,1.4l0,0c-0.2,0.3-0.5,0.4-0.8,0.4l0,0
				C365.7,370,365.4,369.9,365.2,369.8z M473,365.9L473,365.9c-0.3-0.5,0-1.1,0.5-1.4l0,0c0.5-0.2,1.1,0,1.3,0.5l0,0l0,0l0,0
				c0.3,0.5,0,1.1-0.5,1.3l0,0c-0.1,0.1-0.3,0.1-0.4,0.1l0,0C473.5,366.5,473.2,366.3,473,365.9z M359,364.8c-0.4-0.4-0.5-1-0.1-1.4
				l0,0c0.3-0.4,1-0.5,1.4-0.1l0,0c0.4,0.4,0.5,1,0.1,1.4l0,0c-0.2,0.2-0.5,0.4-0.8,0.4l0,0C359.4,365,359.2,364.9,359,364.8z
				 M352.8,359.7c-0.4-0.4-0.5-1-0.1-1.4l0,0c0.4-0.4,1-0.5,1.4-0.1l0,0c0.4,0.4,0.5,1,0.1,1.4l0,0c-0.2,0.2-0.5,0.4-0.8,0.4l0,0
				C353.2,359.9,353,359.8,352.8,359.7z M469.3,358.9c-0.3-0.5-0.1-1.1,0.4-1.4l0,0c0.5-0.3,1.1-0.1,1.3,0.4l0,0
				c0.3,0.5,0.1,1.1-0.4,1.4l0,0c-0.2,0.1-0.3,0.1-0.5,0.1l0,0C469.9,359.4,469.5,359.2,469.3,358.9z M346.7,354.5
				c-0.4-0.4-0.5-1-0.1-1.4l0,0c0.4-0.4,1-0.5,1.4-0.1l0,0c0.4,0.3,0.5,1,0.1,1.4l0,0c-0.2,0.2-0.5,0.4-0.8,0.4l0,0
				C347.1,354.8,346.9,354.7,346.7,354.5z M465.5,351.8c-0.3-0.5-0.1-1.1,0.4-1.4l0,0c0.5-0.3,1.1-0.1,1.4,0.4l0,0
				c0.3,0.5,0.1,1.1-0.4,1.4l0,0c-0.2,0.1-0.3,0.1-0.5,0.1l0,0C466.1,352.4,465.7,352.2,465.5,351.8z M340.6,349.3
				c-0.4-0.4-0.5-1-0.1-1.4l0,0c0.4-0.4,1-0.5,1.4-0.1l0,0c0.4,0.4,0.5,1,0.1,1.4l0,0c-0.2,0.2-0.5,0.3-0.8,0.3l0,0
				C341,349.6,340.8,349.5,340.6,349.3z M461.6,344.9L461.6,344.9c-0.3-0.5-0.1-1.1,0.4-1.4l0,0c0.5-0.3,1.1-0.1,1.4,0.4l0,0
				c0.3,0.5,0.1,1.1-0.4,1.4l0,0c-0.2,0.1-0.3,0.1-0.5,0.1l0,0C462.1,345.4,461.7,345.2,461.6,344.9z M334.5,344.1
				c-0.4-0.4-0.5-1-0.1-1.4l0,0c0.4-0.4,1-0.5,1.4-0.1l0,0c0.4,0.4,0.5,1,0.1,1.4l0,0c-0.2,0.2-0.5,0.4-0.8,0.4l0,0
				C334.9,344.4,334.7,344.3,334.5,344.1z M328.5,338.8c-0.4-0.4-0.5-1-0.1-1.4l0,0c0.4-0.4,1-0.4,1.4-0.1l0,0
				c0.4,0.4,0.5,1,0.1,1.4l0,0c-0.2,0.2-0.5,0.3-0.8,0.3l0,0C328.9,339.1,328.7,339,328.5,338.8z M457.5,338.1L457.5,338.1
				c-0.3-0.5-0.1-1.1,0.3-1.4l0,0c0.5-0.3,1.1-0.1,1.4,0.3l0,0c0,0,0,0,0,0l0,0c0.3,0.5,0.1,1.1-0.3,1.4l0,0
				c-0.2,0.1-0.3,0.1-0.5,0.1l0,0C458,338.5,457.7,338.4,457.5,338.1z M322.5,333.5c-0.4-0.4-0.5-1-0.1-1.4l0,0
				c0.4-0.4,1-0.4,1.4-0.1l0,0c0.4,0.4,0.4,1,0.1,1.4l0,0c-0.2,0.2-0.5,0.3-0.7,0.3l0,0C323,333.7,322.7,333.6,322.5,333.5z
				 M453.3,331.3c-0.3-0.5-0.2-1.1,0.3-1.4l0,0c0.5-0.3,1.1-0.2,1.4,0.3l0,0c0.3,0.5,0.1,1.1-0.3,1.4l0,0c-0.2,0.1-0.3,0.2-0.5,0.2
				l0,0C453.8,331.7,453.5,331.6,453.3,331.3z M316.6,328.1c-0.4-0.4-0.4-1-0.1-1.4l0,0c0.4-0.4,1-0.4,1.4-0.1l0,0
				c0.4,0.4,0.4,1,0.1,1.4l0,0c-0.2,0.2-0.5,0.3-0.7,0.3l0,0C317,328.4,316.8,328.3,316.6,328.1z M449,324.5
				c-0.3-0.5-0.2-1.1,0.3-1.4l0,0c0.5-0.3,1.1-0.2,1.4,0.3l0,0c0.3,0.5,0.2,1.1-0.3,1.4l0,0c-0.2,0.1-0.3,0.2-0.5,0.2l0,0
				C449.5,325,449.2,324.8,449,324.5z M310.7,322.7c-0.4-0.4-0.4-1-0.1-1.4l0,0c0.4-0.4,1-0.4,1.4-0.1l0,0c0.4,0.4,0.4,1,0.1,1.4
				l0,0c-0.2,0.2-0.5,0.3-0.7,0.3l0,0C311.1,323,310.9,322.9,310.7,322.7z M444.6,317.8c-0.3-0.5-0.2-1.1,0.3-1.4l0,0
				c0.5-0.3,1.1-0.2,1.4,0.3l0,0c0.3,0.5,0.2,1.1-0.3,1.4l0,0c-0.2,0.1-0.4,0.2-0.6,0.2l0,0C445.1,318.3,444.8,318.1,444.6,317.8z
				 M304.8,317.2C304.8,317.2,304.8,317.2,304.8,317.2L304.8,317.2c-0.4-0.4-0.4-1,0-1.4l0,0c0.4-0.4,1-0.4,1.4,0l0,0
				c0.4,0.4,0.4,1,0,1.4l0,0c-0.2,0.2-0.5,0.3-0.7,0.3l0,0C305.3,317.5,305,317.4,304.8,317.2z M299,311.7c-0.4-0.4-0.4-1,0-1.4l0,0
				c0.4-0.4,1-0.4,1.4,0l0,0c0.4,0.4,0.4,1,0,1.4l0,0c-0.2,0.2-0.5,0.3-0.7,0.3l0,0C299.5,312,299.2,311.9,299,311.7z M440.1,311.2
				L440.1,311.2c-0.3-0.5-0.2-1.1,0.3-1.4l0,0c0.5-0.3,1.1-0.2,1.4,0.3l0,0c0.3,0.5,0.2,1.1-0.3,1.4l0,0c-0.2,0.1-0.4,0.2-0.6,0.2
				l0,0C440.6,311.6,440.3,311.5,440.1,311.2z M293.2,306.2c-0.4-0.4-0.4-1,0-1.4l0,0c0.4-0.4,1-0.4,1.4,0l0,0c0.4,0.4,0.4,1,0,1.4
				l0,0c-0.2,0.2-0.5,0.3-0.7,0.3l0,0C293.7,306.5,293.4,306.4,293.2,306.2z M435.6,304.6c-0.3-0.5-0.2-1.1,0.3-1.4l0,0
				c0.5-0.3,1.1-0.2,1.4,0.3l0,0c0.3,0.5,0.2,1.1-0.3,1.4l0,0c-0.2,0.1-0.4,0.2-0.6,0.2l0,0C436.1,305.1,435.8,304.9,435.6,304.6z
				 M287.5,300.6L287.5,300.6L287.5,300.6c-0.4-0.4-0.4-1,0-1.4l0,0c0.4-0.4,1-0.4,1.4,0l0,0c0.4,0.4,0.4,1,0,1.4l0,0
				c-0.2,0.2-0.5,0.3-0.7,0.3l0,0C287.9,300.9,287.7,300.8,287.5,300.6z M431,298.1c-0.3-0.4-0.2-1.1,0.2-1.4l0,0
				c0.5-0.3,1.1-0.2,1.4,0.2l0,0c0.3,0.4,0.2,1.1-0.2,1.4l0,0c-0.2,0.1-0.4,0.2-0.6,0.2l0,0C431.5,298.5,431.2,298.4,431,298.1z
				 M281.8,295c-0.4-0.4-0.4-1,0-1.4l0,0c0.4-0.4,1-0.4,1.4,0l0,0c0.4,0.4,0.4,1,0,1.4l0,0c-0.2,0.2-0.5,0.3-0.7,0.3l0,0
				C282.2,295.3,282,295.2,281.8,295z M276.1,289.4c-0.4-0.4-0.4-1,0-1.4l0,0c0.4-0.4,1-0.4,1.4,0l0,0c0.4,0.4,0.4,1,0,1.4l0,0
				c-0.2,0.2-0.4,0.3-0.7,0.3l0,0C276.5,289.7,276.3,289.6,276.1,289.4z M270.4,283.7C270.4,283.7,270.4,283.7,270.4,283.7
				L270.4,283.7c-0.4-0.4-0.4-1,0-1.4l0,0c0.4-0.4,1-0.4,1.4,0l0,0c0.4,0.4,0.4,1,0,1.4l0,0c-0.2,0.2-0.5,0.3-0.7,0.3l0,0
				C270.9,284,270.6,283.9,270.4,283.7z M264.8,278c-0.4-0.4-0.4-1,0-1.4l0,0c0.4-0.4,1-0.4,1.4,0l0,0c0.4,0.4,0.4,1,0,1.4l0,0
				c-0.2,0.2-0.5,0.3-0.7,0.3l0,0C265.3,278.3,265,278.2,264.8,278z M259.2,272.3c-0.4-0.4-0.4-1,0-1.4l0,0c0.4-0.4,1-0.4,1.4,0l0,0
				c0.4,0.4,0.4,1,0,1.4l0,0c-0.2,0.2-0.5,0.3-0.7,0.3l0,0C259.7,272.6,259.4,272.5,259.2,272.3z M253.7,266.5c-0.4-0.4-0.4-1,0-1.4
				l0,0c0.4-0.4,1-0.4,1.4,0l0,0c0.4,0.4,0.4,1,0,1.4l0,0c-0.2,0.2-0.4,0.3-0.7,0.3l0,0C254.1,266.8,253.9,266.7,253.7,266.5z
				 M248.1,260.7c-0.4-0.4-0.4-1,0-1.4l0,0c0.4-0.4,1-0.4,1.4,0l0,0c0.4,0.4,0.4,1,0,1.4l0,0c-0.2,0.2-0.4,0.3-0.7,0.3l0,0
				C248.6,261,248.3,260.9,248.1,260.7z M242.7,254.9c-0.4-0.4-0.4-1,0-1.4l0,0c0.4-0.4,1-0.4,1.4,0.1l0,0c0.4,0.4,0.3,1,0,1.4l0,0
				c-0.2,0.2-0.4,0.3-0.7,0.3l0,0C243.1,255.2,242.9,255.1,242.7,254.9z M237.2,249c-0.4-0.4-0.3-1,0-1.4l0,0c0.4-0.4,1-0.4,1.4,0
				l0,0c0.4,0.4,0.3,1,0,1.4l0,0c-0.2,0.2-0.4,0.3-0.7,0.3l0,0C237.7,249.3,237.4,249.2,237.2,249z M231.8,243.1
				c-0.4-0.4-0.3-1,0.1-1.4l0,0c0.4-0.4,1-0.3,1.4,0.1l0,0c0.4,0.4,0.4,1-0.1,1.4l0,0c-0.2,0.2-0.4,0.3-0.7,0.3l0,0
				C232.3,243.4,232,243.3,231.8,243.1z M226.4,237.2c-0.4-0.4-0.3-1,0.1-1.4l0,0c0.4-0.4,1-0.3,1.4,0.1l0,0c0.4,0.4,0.3,1-0.1,1.4
				l0,0c-0.2,0.2-0.4,0.3-0.7,0.3l0,0C226.9,237.5,226.6,237.4,226.4,237.2z M221,231.2c-0.4-0.4-0.3-1.1,0.1-1.4l0,0
				c0.4-0.4,1-0.3,1.4,0.1l0,0c0.4,0.4,0.3,1.1-0.1,1.4l0,0c-0.2,0.2-0.4,0.3-0.7,0.3l0,0C221.5,231.6,221.2,231.4,221,231.2z
				 M215.7,225.2c-0.4-0.4-0.3-1,0.1-1.4l0,0c0.4-0.4,1.1-0.3,1.4,0.1l0,0c0.4,0.4,0.3,1-0.1,1.4l0,0c-0.2,0.2-0.4,0.3-0.7,0.3l0,0
				C216.2,225.6,215.9,225.5,215.7,225.2z M210.5,219.2C210.5,219.2,210.5,219.2,210.5,219.2L210.5,219.2c-0.4-0.4-0.3-1,0.1-1.4
				l0,0c0.4-0.4,1-0.3,1.4,0.1l0,0c0.4,0.4,0.3,1-0.1,1.4l0,0c-0.2,0.2-0.4,0.3-0.6,0.3l0,0C210.9,219.6,210.6,219.4,210.5,219.2z
				 M205.2,213.2c-0.4-0.4-0.3-1.1,0.1-1.4l0,0c0.4-0.4,1-0.3,1.4,0.1l0,0c0.4,0.4,0.3,1-0.1,1.4l0,0c-0.2,0.2-0.4,0.3-0.7,0.3l0,0
				C205.7,213.5,205.4,213.4,205.2,213.2z M200,207.1c-0.4-0.4-0.3-1,0.1-1.4l0,0c0.4-0.4,1-0.3,1.4,0.1l0,0c0.4,0.4,0.3,1-0.1,1.4
				l0,0c-0.2,0.2-0.4,0.2-0.6,0.2l0,0C200.5,207.4,200.2,207.3,200,207.1z M194.8,201c-0.4-0.4-0.3-1,0.1-1.4l0,0
				c0.4-0.4,1.1-0.3,1.4,0.1l0,0c0.4,0.4,0.3,1-0.1,1.4l0,0c-0.2,0.2-0.4,0.2-0.6,0.2l0,0C195.3,201.3,195,201.2,194.8,201z
				 M189.7,194.8C189.7,194.8,189.7,194.8,189.7,194.8L189.7,194.8c-0.3-0.4-0.3-1.1,0.1-1.4l0,0c0.4-0.4,1-0.3,1.4,0.1h0
				c0.4,0.4,0.3,1-0.1,1.4l0,0c-0.2,0.1-0.4,0.2-0.6,0.2l0,0C190.2,195.2,189.9,195.1,189.7,194.8z M184.6,188.6
				C184.6,188.6,184.6,188.6,184.6,188.6L184.6,188.6c-0.4-0.4-0.3-1.1,0.1-1.4l0,0c0.4-0.4,1.1-0.3,1.4,0.1l0,0
				c0.4,0.4,0.3,1.1-0.1,1.4l0,0c-0.2,0.2-0.4,0.2-0.6,0.2l0,0C185.1,189,184.8,188.9,184.6,188.6z M179.5,182.4
				c-0.3-0.4-0.3-1.1,0.1-1.4l0,0c0.4-0.3,1.1-0.3,1.4,0.1l0,0c0.4,0.4,0.3,1.1-0.1,1.4l0,0c-0.2,0.1-0.4,0.2-0.6,0.2l0,0
				C180,182.8,179.7,182.7,179.5,182.4z M176.1,174.9c0.4,0.4,0.3,1.1-0.2,1.4l0,0c-0.2,0.1-0.4,0.2-0.6,0.2l0,0
				c-0.3,0-0.6-0.1-0.8-0.4c-0.3-0.4-0.3-1.1,0.2-1.4l0,0 M169.6,169.9c-0.3-0.4-0.3-1.1,0.2-1.4l0,0c0.4-0.3,1.1-0.3,1.4,0.2l0,0
				c0.4,0.4,0.3,1.1-0.2,1.4l0,0c-0.2,0.1-0.4,0.2-0.6,0.2l0,0C170.1,170.3,169.8,170.1,169.6,169.9z M164.7,163.6L164.7,163.6
				L164.7,163.6c-0.3-0.4-0.3-1.1,0.2-1.4l0,0c0.4-0.3,1.1-0.3,1.4,0.2l0,0c0.3,0.4,0.3,1.1-0.2,1.4l0,0c-0.2,0.1-0.4,0.2-0.6,0.2
				l0,0C165.2,164,164.9,163.8,164.7,163.6z M159.8,157.2c-0.3-0.4-0.3-1.1,0.2-1.4l0,0c0.5-0.3,1.1-0.3,1.4,0.2l0,0
				c0.3,0.4,0.2,1.1-0.2,1.4l0,0c-0.2,0.1-0.4,0.2-0.6,0.2l0,0C160.3,157.6,160,157.5,159.8,157.2z M155,150.8
				c-0.3-0.4-0.3-1.1,0.2-1.4l0,0c0.4-0.3,1.1-0.2,1.4,0.2l0,0c0.3,0.4,0.2,1.1-0.2,1.4l0,0c-0.2,0.1-0.4,0.2-0.6,0.2l0,0
				C155.5,151.2,155.2,151.1,155,150.8z M150.2,144.4c-0.3-0.4-0.2-1.1,0.2-1.4l0,0c0.4-0.3,1.1-0.2,1.4,0.2l0,0
				c0.3,0.4,0.2,1.1-0.2,1.4l0,0c-0.2,0.1-0.4,0.2-0.6,0.2l0,0C150.7,144.8,150.4,144.6,150.2,144.4z M145.5,137.9
				c-0.3-0.4-0.2-1.1,0.2-1.4l0,0c0.5-0.3,1.1-0.2,1.4,0.2l0,0c0.3,0.5,0.2,1.1-0.2,1.4l0,0c-0.2,0.1-0.4,0.2-0.6,0.2l0,0
				C146,138.3,145.7,138.1,145.5,137.9z M140.8,131.4c-0.3-0.5-0.2-1.1,0.3-1.4l0,0c0.5-0.3,1.1-0.2,1.4,0.2l0,0
				c0.3,0.4,0.2,1.1-0.2,1.4l0,0c-0.2,0.1-0.4,0.2-0.6,0.2l0,0C141.4,131.8,141,131.6,140.8,131.4z M136.3,124.8
				c-0.3-0.5-0.2-1.1,0.3-1.4l0,0c0.5-0.3,1.1-0.2,1.4,0.3l0,0c0.3,0.5,0.2,1.1-0.3,1.4l0,0c-0.2,0.1-0.4,0.2-0.6,0.2l0,0
				C136.8,125.2,136.5,125.1,136.3,124.8z M131.7,118.2C131.7,118.2,131.7,118.2,131.7,118.2L131.7,118.2c-0.3-0.5-0.2-1.1,0.3-1.4
				l0,0c0.5-0.3,1.1-0.2,1.4,0.3l0,0c0.3,0.5,0.2,1.1-0.3,1.4l0,0c-0.2,0.1-0.4,0.2-0.6,0.2l0,0
				C132.3,118.6,131.9,118.5,131.7,118.2z M127.3,111.5c-0.3-0.5-0.2-1.1,0.3-1.4l0,0c0.5-0.3,1.1-0.2,1.4,0.3l0,0
				c0.3,0.5,0.2,1.1-0.3,1.4l0,0c-0.2,0.1-0.4,0.2-0.5,0.2l0,0C127.8,111.9,127.5,111.8,127.3,111.5z M123,104.8
				c-0.3-0.5-0.2-1.1,0.3-1.4l0,0c0.5-0.3,1.1-0.2,1.4,0.3v0c0.3,0.5,0.2,1.1-0.3,1.4l0,0c-0.2,0.1-0.4,0.1-0.5,0.1l0,0
				C123.5,105.2,123.1,105.1,123,104.8z M118.7,98L118.7,98L118.7,98c-0.3-0.5-0.1-1.1,0.3-1.4l0,0c0.5-0.3,1.1-0.1,1.4,0.3v0
				c0.3,0.5,0.1,1.1-0.3,1.4l0,0c-0.2,0.1-0.3,0.1-0.5,0.1l0,0C119.2,98.5,118.9,98.3,118.7,98z M114.5,91.1
				c-0.3-0.5-0.1-1.1,0.4-1.4l0,0c0.5-0.3,1.1-0.1,1.4,0.3l0,0c0.3,0.5,0.1,1.1-0.3,1.4l0,0c-0.2,0.1-0.3,0.1-0.5,0.1l0,0
				C115,91.6,114.7,91.4,114.5,91.1z M110.5,84.2c-0.3-0.5-0.1-1.1,0.4-1.4l0,0c0.5-0.3,1.1-0.1,1.4,0.4l0,0
				c0.3,0.5,0.1,1.1-0.4,1.4l0,0c-0.2,0.1-0.3,0.1-0.5,0.1l0,0C111,84.7,110.6,84.5,110.5,84.2z M106.5,77.2
				c-0.3-0.5-0.1-1.1,0.4-1.4l0,0c0.5-0.3,1.1-0.1,1.4,0.4l0,0c0.3,0.5,0.1,1.1-0.4,1.4l0,0c-0.1,0.1-0.3,0.1-0.5,0.1l0,0
				C107.1,77.7,106.7,77.5,106.5,77.2z M102.8,70.1C102.8,70.1,102.8,70.1,102.8,70.1L102.8,70.1c-0.3-0.5-0.1-1.1,0.4-1.3l0,0
				c0.5-0.3,1.1-0.1,1.3,0.4l0,0c0.3,0.5,0.1,1.1-0.4,1.3l0,0c-0.1,0.1-0.3,0.1-0.5,0.1l0,0C103.3,70.7,102.9,70.5,102.8,70.1z
				 M212.5,65.7c-0.4-0.4-0.5-1-0.2-1.4l0,0c0.4-0.4,1-0.5,1.4-0.2l0,0c0.4,0.4,0.5,1,0.2,1.4l0,0c-0.2,0.3-0.5,0.4-0.8,0.4l0,0
				C212.9,66,212.7,65.9,212.5,65.7z M99.2,62.9c-0.2-0.5,0-1.1,0.5-1.3l0,0c0.5-0.2,1.1,0,1.3,0.5l0,0c0.2,0.5,0,1.1-0.5,1.3l0,0
				c-0.1,0.1-0.3,0.1-0.4,0.1l0,0C99.7,63.5,99.3,63.3,99.2,62.9z M206.3,60.8c-0.4-0.3-0.5-1-0.2-1.4l0,0c0.3-0.4,1-0.5,1.4-0.2
				l0,0c0.4,0.4,0.5,1,0.2,1.4l0,0c-0.2,0.3-0.5,0.4-0.8,0.4l0,0C206.7,61,206.4,60.9,206.3,60.8z M95.8,55.6
				c-0.2-0.5,0-1.1,0.5-1.3l0,0c0.5-0.2,1.1,0,1.3,0.5l0,0c0.2,0.5,0,1.1-0.5,1.3l0,0c-0.1,0.1-0.3,0.1-0.4,0.1l0,0
				C96.3,56.3,96,56,95.8,55.6z M200,55.8L200,55.8c-0.4-0.3-0.5-1-0.2-1.4l0,0c0.3-0.4,1-0.5,1.4-0.2l0,0c0.4,0.3,0.5,1,0.2,1.4
				l0,0c-0.2,0.3-0.5,0.4-0.8,0.4l0,0C200.4,56,200.2,56,200,55.8z M193.6,51c-0.4-0.3-0.5-1-0.2-1.4l0,0c0.3-0.4,1-0.5,1.4-0.2l0,0
				c0.4,0.3,0.5,1,0.2,1.4l0,0c-0.2,0.3-0.5,0.4-0.8,0.4l0,0C194,51.2,193.8,51.1,193.6,51z M92.7,48.2c-0.2-0.5,0-1.1,0.6-1.3l0,0
				c0.5-0.2,1.1,0.1,1.3,0.6l0,0c0.2,0.5-0.1,1.1-0.6,1.3l0,0c-0.1,0-0.2,0.1-0.4,0.1l0,0C93.2,48.9,92.8,48.6,92.7,48.2z
				 M187.2,46.2c-0.4-0.3-0.5-0.9-0.2-1.4l0,0c0.3-0.4,0.9-0.5,1.4-0.2l0,0c0.4,0.3,0.5,1,0.2,1.4l0,0c-0.2,0.3-0.5,0.4-0.8,0.4l0,0
				C187.6,46.4,187.4,46.3,187.2,46.2z M180.7,41.5c-0.4-0.3-0.5-0.9-0.2-1.4l0,0c0.3-0.4,0.9-0.6,1.4-0.2l0,0
				c0.5,0.3,0.6,0.9,0.2,1.4l0,0c-0.2,0.3-0.5,0.4-0.8,0.4l0,0C181.1,41.7,180.9,41.6,180.7,41.5z M89.9,40.7L89.9,40.7L89.9,40.7
				c-0.2-0.5,0.1-1.1,0.6-1.3l0,0c0.5-0.2,1.1,0.1,1.3,0.6v0c0.2,0.5-0.1,1.1-0.6,1.3l0,0c-0.1,0-0.2,0-0.3,0l0,0
				C90.5,41.4,90.1,41.1,89.9,40.7z M174.2,36.9c-0.5-0.3-0.6-0.9-0.3-1.4l0,0c0.3-0.5,0.9-0.6,1.4-0.3l0,0c0.5,0.3,0.6,0.9,0.3,1.4
				l0,0c-0.2,0.3-0.5,0.4-0.8,0.4l0,0C174.6,37.1,174.4,37.1,174.2,36.9z M87.7,32.9c-0.1-0.5,0.2-1.1,0.7-1.2l0,0
				c0.5-0.1,1.1,0.2,1.2,0.7l0,0c0.1,0.5-0.2,1.1-0.7,1.2l0,0c-0.1,0-0.2,0-0.2,0l0,0C88.2,33.7,87.8,33.4,87.7,32.9z M167.6,32.5
				c-0.5-0.3-0.6-0.9-0.3-1.4l0,0c0.3-0.5,0.9-0.6,1.4-0.3l0,0c0.5,0.3,0.6,0.9,0.3,1.4l0,0c-0.2,0.3-0.5,0.5-0.8,0.5l0,0
				C168,32.6,167.8,32.6,167.6,32.5z M160.9,28.1L160.9,28.1c-0.5-0.3-0.6-0.9-0.3-1.4l0,0c0.3-0.5,0.9-0.6,1.4-0.3l0,0
				c0.5,0.3,0.6,0.9,0.3,1.4l0,0c-0.2,0.3-0.5,0.5-0.9,0.5l0,0C161.3,28.3,161.1,28.2,160.9,28.1z M86.2,24.9
				c-0.1-0.6,0.3-1.1,0.9-1.1l0,0c0.5-0.1,1,0.3,1.1,0.9l0,0c0.1,0.6-0.3,1.1-0.9,1.1l0,0c0,0-0.1,0-0.1,0l0,0
				C86.7,25.8,86.3,25.4,86.2,24.9z M154.1,23.9c-0.5-0.3-0.6-0.9-0.3-1.4l0,0c0.3-0.5,0.9-0.6,1.4-0.3l0,0c0.5,0.3,0.6,0.9,0.3,1.4
				l0,0c-0.2,0.3-0.5,0.5-0.9,0.5l0,0C154.5,24,154.3,24,154.1,23.9z M147.2,19.9c-0.5-0.3-0.7-0.9-0.4-1.4l0,0
				c0.3-0.5,0.9-0.6,1.4-0.4l0,0c0.5,0.3,0.7,0.9,0.4,1.4l0,0c-0.2,0.3-0.5,0.5-0.9,0.5l0,0C147.6,20,147.4,19.9,147.2,19.9z
				 M87,17.8c-0.6-0.1-1-0.5-0.9-1.1l0,0l0,0l0,0c0.1-0.5,0.5-0.9,1.1-0.9l0,0c0.5,0.1,0.9,0.5,0.9,1.1l0,0
				C88,17.5,87.6,17.8,87,17.8L87,17.8C87,17.8,87,17.8,87,17.8z M140.3,16c-0.5-0.3-0.7-0.9-0.4-1.4l0,0c0.3-0.5,0.9-0.7,1.3-0.4
				l0,0c0.5,0.3,0.7,0.9,0.4,1.3l0,0c-0.2,0.3-0.5,0.5-0.9,0.5l0,0C140.6,16.1,140.4,16.1,140.3,16z M133.1,12.4
				c-0.5-0.2-0.7-0.8-0.5-1.3l0,0c0.2-0.5,0.8-0.7,1.3-0.5l0,0c0.5,0.2,0.7,0.8,0.5,1.3l0,0c-0.2,0.4-0.5,0.6-0.9,0.6l0,0
				C133.4,12.5,133.3,12.5,133.1,12.4z M88.9,10.1c-0.5-0.3-0.6-0.9-0.3-1.4l0,0c0,0,0,0,0,0l0,0c0.3-0.5,0.9-0.6,1.4-0.4l0,0
				c0.5,0.3,0.6,0.9,0.3,1.4l0,0c-0.2,0.3-0.5,0.5-0.9,0.5l0,0C89.2,10.2,89,10.2,88.9,10.1z M125.9,9.2c-0.5-0.2-0.8-0.8-0.5-1.3
				l0,0c0.2-0.5,0.8-0.8,1.3-0.5l0,0c0.5,0.2,0.8,0.8,0.5,1.3l0,0c-0.2,0.4-0.5,0.6-0.9,0.6l0,0C126.1,9.3,126,9.3,125.9,9.2z
				 M118.4,6.5c-0.5-0.2-0.8-0.7-0.6-1.3l0,0c0.2-0.5,0.7-0.8,1.3-0.6l0,0c0.5,0.2,0.8,0.7,0.6,1.3l0,0c-0.1,0.4-0.5,0.7-1,0.7l0,0
				C118.7,6.5,118.5,6.5,118.4,6.5z M94.4,4.5c-0.2-0.5,0-1.1,0.5-1.3l0,0l0,0l0,0c0.5-0.2,1.1,0,1.3,0.5l0,0c0.2,0.5,0,1.1-0.5,1.3
				l0,0c-0.1,0-0.3,0.1-0.4,0.1l0,0C94.9,5.1,94.5,4.8,94.4,4.5z M110.8,4.5c-0.5-0.1-0.9-0.6-0.8-1.2l0,0c0.1-0.5,0.6-0.9,1.2-0.8
				l0,0l0,0l0,0c0.5,0.1,0.9,0.6,0.8,1.2l0,0c-0.1,0.5-0.5,0.8-1,0.8l0,0C111,4.5,110.9,4.5,110.8,4.5z M102.1,2.6c0-0.5,0.4-1,1-1
				l0,0c0.5,0,1,0.4,1,1l0,0c0,0.6-0.4,1-1,1l0,0h0l0,0C102.6,3.6,102.1,3.2,102.1,2.6z"/>
		</g>
	</g>
	<g>
		<g>
			<path class="st5" d="M91.5,416.5c0-0.6,0.4-1,1-1l0,0c0.5,0,1,0.4,1,1l0,0c0,0.5-0.4,1-1,1l0,0c0,0,0,0,0,0l0,0
				C92,417.4,91.6,417,91.5,416.5z M99.5,415.8c-0.1-0.5,0.3-1.1,0.8-1.1v0c0.5-0.1,1.1,0.3,1.2,0.8l0,0c0.1,0.5-0.3,1.1-0.8,1.2
				l0,0c-0.1,0-0.1,0-0.2,0l0,0C100,416.6,99.6,416.3,99.5,415.8z M84.3,416.4L84.3,416.4L84.3,416.4c-0.5-0.2-0.8-0.7-0.7-1.3l0,0
				c0.2-0.5,0.7-0.8,1.3-0.6l0,0c0.5,0.2,0.8,0.7,0.6,1.3l0,0c-0.1,0.4-0.5,0.7-1,0.7l0,0C84.5,416.4,84.4,416.4,84.3,416.4z
				 M107.3,414.1c-0.2-0.5,0.2-1.1,0.7-1.2l0,0c0.5-0.1,1.1,0.2,1.2,0.7l0,0c0.2,0.5-0.1,1.1-0.7,1.2l0,0c-0.1,0-0.2,0-0.3,0l0,0
				C107.8,414.8,107.4,414.5,107.3,414.1z M77.9,412.5c-0.4-0.4-0.4-1,0-1.4l0,0c0.4-0.4,1-0.4,1.4,0v0c0.4,0.4,0.4,1,0,1.4l0,0
				c-0.2,0.2-0.4,0.3-0.7,0.3l0,0C78.4,412.8,78.1,412.7,77.9,412.5z M114.9,411.6c-0.2-0.5,0.1-1.1,0.6-1.3l0,0
				c0.5-0.2,1.1,0.1,1.3,0.6l0,0c0.2,0.5-0.1,1.1-0.6,1.3l0,0c-0.1,0-0.2,0.1-0.3,0.1l0,0C115.5,412.3,115.1,412.1,114.9,411.6z
				 M122.4,408.8c-0.2-0.5,0-1.1,0.5-1.3l0,0c0.5-0.2,1.1,0,1.3,0.5l0,0c0.2,0.5,0,1.1-0.5,1.3l0,0c-0.1,0.1-0.3,0.1-0.4,0.1l0,0
				C122.9,409.4,122.6,409.2,122.4,408.8z M129.7,405.6c-0.2-0.5,0-1.1,0.5-1.3v0c0.5-0.2,1.1,0,1.3,0.5l0,0c0.2,0.5,0,1.1-0.5,1.3
				l0,0c-0.1,0.1-0.3,0.1-0.4,0.1l0,0C130.3,406.2,129.9,406,129.7,405.6z M74.2,404.9c-0.1-0.5,0.3-1.1,0.8-1.2l0,0
				c0.5-0.1,1.1,0.3,1.2,0.8l0,0c0.1,0.5-0.3,1.1-0.8,1.2l0,0c-0.1,0-0.1,0-0.2,0l0,0C74.7,405.7,74.3,405.4,74.2,404.9z M137,402.2
				c-0.3-0.5,0-1.1,0.5-1.3l0,0c0.5-0.2,1.1,0,1.3,0.5l0,0c0.2,0.5,0,1.1-0.5,1.3l0,0c-0.1,0.1-0.3,0.1-0.4,0.1l0,0
				C137.5,402.7,137.1,402.5,137,402.2z M144.1,398.5c-0.3-0.5-0.1-1.1,0.4-1.4v0c0.5-0.3,1.1-0.1,1.4,0.4l0,0
				c0.3,0.5,0.1,1.1-0.4,1.4l0,0l0,0l0,0c-0.1,0.1-0.3,0.1-0.5,0.1l0,0C144.6,399.1,144.3,398.9,144.1,398.5z M74.9,397.7
				c-0.5-0.1-1-0.6-0.9-1.1l0,0l0,0l0,0c0.1-0.6,0.5-1,1.1-0.9l0,0c0.6,0.1,1,0.5,0.9,1.1l0,0C75.9,397.3,75.5,397.7,74.9,397.7
				L74.9,397.7C74.9,397.7,74.9,397.7,74.9,397.7z M151.1,394.7c-0.3-0.5-0.1-1.1,0.4-1.4l0,0c0.5-0.3,1.1-0.1,1.4,0.4l0,0
				c0.3,0.5,0.1,1.1-0.4,1.4l0,0c-0.2,0.1-0.3,0.1-0.5,0.1l0,0C151.7,395.2,151.3,395,151.1,394.7z M158.1,390.8
				c-0.3-0.5-0.1-1.1,0.4-1.4l0,0c0.5-0.3,1.1-0.1,1.4,0.4l0,0c0.3,0.5,0.1,1.1-0.4,1.4l0,0c-0.2,0.1-0.3,0.1-0.5,0.1l0,0
				C158.6,391.3,158.3,391.1,158.1,390.8z M76.2,389.9c-0.5-0.1-0.8-0.7-0.7-1.2l0,0c0.1-0.5,0.7-0.9,1.2-0.7l0,0
				c0.5,0.1,0.9,0.7,0.7,1.2h0c-0.1,0.5-0.5,0.8-1,0.8l0,0C76.4,389.9,76.3,389.9,76.2,389.9z M165,386.7c-0.3-0.5-0.1-1.1,0.3-1.4
				l0,0c0.5-0.3,1.1-0.1,1.4,0.3l0,0c0.3,0.5,0.1,1.1-0.3,1.4l0,0l0,0l0,0c-0.2,0.1-0.3,0.1-0.5,0.1l0,0
				C165.5,387.1,165.2,387,165,386.7z M171.8,382.5c-0.3-0.5-0.2-1.1,0.3-1.4l0,0c0.5-0.3,1.1-0.1,1.4,0.3l0,0
				c0.3,0.5,0.2,1.1-0.3,1.4l0,0l0,0l0,0c-0.2,0.1-0.4,0.2-0.5,0.2l0,0C172.3,383,172,382.8,171.8,382.5z M78.5,382.2
				c-0.5-0.2-0.8-0.8-0.6-1.3l0,0l0,0l0,0c0.2-0.5,0.8-0.8,1.3-0.6l0,0c0.5,0.2,0.8,0.8,0.6,1.3l0,0c-0.2,0.4-0.5,0.7-0.9,0.7l0,0
				C78.7,382.3,78.6,382.2,78.5,382.2z M178.5,378.2c-0.3-0.5-0.2-1.1,0.3-1.4l0,0c0.5-0.3,1.1-0.2,1.4,0.3l0,0
				c0.3,0.5,0.2,1.1-0.3,1.4l0,0c-0.2,0.1-0.4,0.2-0.5,0.2l0,0C179.1,378.6,178.7,378.5,178.5,378.2z M81.5,374.8
				c-0.5-0.2-0.7-0.8-0.5-1.3l0,0c0.2-0.5,0.8-0.7,1.3-0.5l0,0c0.5,0.2,0.7,0.8,0.5,1.3v0c-0.2,0.4-0.5,0.6-0.9,0.6l0,0
				C81.7,374.8,81.6,374.8,81.5,374.8z M185.2,373.8c-0.3-0.5-0.2-1.1,0.3-1.4l0,0c0.5-0.3,1.1-0.2,1.4,0.3l0,0
				c0.3,0.5,0.2,1.1-0.3,1.4l0,0c-0.2,0.1-0.4,0.2-0.5,0.2l0,0C185.8,374.3,185.4,374.1,185.2,373.8z M191.9,369.4
				c-0.3-0.5-0.2-1.1,0.3-1.4l0,0c0.5-0.3,1.1-0.2,1.4,0.3l0,0c0.3,0.5,0.2,1.1-0.3,1.4l0,0l0,0l0,0c-0.2,0.1-0.4,0.2-0.6,0.2l0,0
				C192.4,369.8,192.1,369.6,191.9,369.4z M84.8,367.5c-0.5-0.3-0.7-0.9-0.4-1.4l0,0c0,0,0,0,0,0l0,0c0.2-0.5,0.8-0.7,1.3-0.5l0,0
				c0.5,0.2,0.7,0.8,0.5,1.3l0,0c-0.2,0.3-0.5,0.5-0.9,0.5l0,0C85.1,367.6,85,367.6,84.8,367.5z M198.5,364.8
				c-0.3-0.4-0.2-1.1,0.3-1.4l0,0c0.5-0.3,1.1-0.2,1.4,0.3l0,0c0.3,0.4,0.2,1.1-0.3,1.4l0,0l0,0l0,0c-0.2,0.1-0.4,0.2-0.6,0.2l0,0
				C199,365.3,198.7,365.1,198.5,364.8z M205,360.2c-0.3-0.5-0.2-1.1,0.2-1.4l0,0c0.5-0.3,1.1-0.2,1.4,0.2l0,0
				c0.3,0.5,0.2,1.1-0.2,1.4l0,0c-0.2,0.1-0.4,0.2-0.6,0.2l0,0C205.5,360.6,205.2,360.5,205,360.2z M88.5,360.4
				c-0.5-0.3-0.7-0.9-0.4-1.4l0,0c0.3-0.5,0.9-0.7,1.4-0.4l0,0c0.5,0.3,0.7,0.9,0.4,1.4l0,0c-0.2,0.3-0.5,0.5-0.9,0.5l0,0
				C88.8,360.5,88.6,360.5,88.5,360.4z M211.5,355.6c-0.3-0.5-0.2-1.1,0.2-1.4l0,0c0.5-0.3,1.1-0.2,1.4,0.2l0,0
				c0.3,0.5,0.2,1.1-0.2,1.4l0,0l0,0l0,0c-0.2,0.1-0.4,0.2-0.6,0.2l0,0C212,356,211.7,355.8,211.5,355.6z M92.4,353.4
				c-0.5-0.3-0.6-0.9-0.4-1.4l0,0c0.3-0.5,0.9-0.6,1.4-0.4l0,0c0.5,0.3,0.6,0.9,0.4,1.4l0,0c-0.2,0.3-0.5,0.5-0.9,0.5l0,0
				C92.7,353.6,92.6,353.5,92.4,353.4z M218,350.8c-0.3-0.4-0.2-1.1,0.2-1.4l0,0c0.4-0.3,1.1-0.2,1.4,0.2l0,0
				c0.3,0.4,0.2,1.1-0.2,1.4l0,0c-0.2,0.1-0.4,0.2-0.6,0.2l0,0C218.5,351.2,218.2,351.1,218,350.8z M96.5,346.5
				c-0.5-0.3-0.6-0.9-0.3-1.4l0,0c0.3-0.5,0.9-0.6,1.4-0.3l0,0c0.5,0.3,0.6,0.9,0.3,1.4l0,0c-0.2,0.3-0.5,0.5-0.8,0.5l0,0
				C96.9,346.7,96.7,346.6,96.5,346.5z M224.4,346.1c-0.3-0.4-0.2-1.1,0.2-1.4l0,0c0.4-0.3,1.1-0.2,1.4,0.2l0,0
				c0.3,0.4,0.2,1.1-0.2,1.4l0,0c-0.2,0.1-0.4,0.2-0.6,0.2l0,0C224.9,346.5,224.6,346.3,224.4,346.1z M230.8,341.2
				c-0.3-0.4-0.3-1.1,0.2-1.4l0,0c0.4-0.3,1.1-0.3,1.4,0.2l0,0c0.3,0.4,0.3,1.1-0.2,1.4l0,0c-0.2,0.1-0.4,0.2-0.6,0.2l0,0
				C231.3,341.6,231,341.5,230.8,341.2z M100.8,339.8c-0.5-0.3-0.6-0.9-0.3-1.4l0,0l0,0l0,0c0.3-0.5,0.9-0.6,1.4-0.3l0,0
				c0.5,0.3,0.6,0.9,0.3,1.4l0,0c-0.2,0.3-0.5,0.4-0.8,0.4l0,0C101.2,339.9,101,339.9,100.8,339.8z M237.1,336.4
				c-0.3-0.4-0.3-1.1,0.2-1.4l0,0c0.4-0.3,1.1-0.3,1.4,0.2l0,0c0.3,0.4,0.3,1.1-0.2,1.4l0,0c-0.2,0.1-0.4,0.2-0.6,0.2l0,0
				C237.6,336.7,237.3,336.6,237.1,336.4z M105.2,333.1c-0.5-0.3-0.6-0.9-0.3-1.4l0,0c0.3-0.5,0.9-0.6,1.4-0.3l0,0
				c0.5,0.3,0.6,0.9,0.3,1.4l0,0c-0.2,0.3-0.5,0.4-0.8,0.4l0,0C105.6,333.3,105.4,333.2,105.2,333.1z M243.4,331.4
				c-0.3-0.4-0.3-1.1,0.2-1.4h0c0.4-0.3,1.1-0.3,1.4,0.2l0,0c0.3,0.4,0.3,1.1-0.2,1.4l0,0c-0.2,0.1-0.4,0.2-0.6,0.2l0,0
				C243.9,331.8,243.6,331.7,243.4,331.4z M249.7,326.5c-0.3-0.4-0.3-1.1,0.2-1.4l0,0c0.4-0.3,1.1-0.3,1.4,0.2l0,0
				c0.3,0.4,0.3,1.1-0.2,1.4l0,0c-0.2,0.1-0.4,0.2-0.6,0.2l0,0C250.2,326.8,249.9,326.7,249.7,326.5z M109.7,326.5
				c-0.4-0.3-0.6-0.9-0.3-1.4l0,0c0.3-0.5,0.9-0.6,1.4-0.2l0,0c0.5,0.3,0.6,0.9,0.3,1.4v0c-0.2,0.3-0.5,0.4-0.8,0.4l0,0
				C110.1,326.7,109.9,326.6,109.7,326.5z M255.9,321.4c-0.3-0.4-0.3-1.1,0.1-1.4h0c0.4-0.3,1-0.3,1.4,0.1l0,0
				c0.3,0.4,0.3,1.1-0.1,1.4l0,0c-0.2,0.2-0.4,0.2-0.6,0.2l0,0C256.4,321.8,256.1,321.7,255.9,321.4z M114.4,320
				c-0.5-0.3-0.6-1-0.2-1.4l0,0l0,0l0,0c0.3-0.4,1-0.5,1.4-0.2l0,0c0.4,0.3,0.5,1,0.2,1.4l0,0c-0.2,0.3-0.5,0.4-0.8,0.4l0,0
				C114.7,320.2,114.5,320.1,114.4,320z M262.1,316.4c-0.3-0.4-0.3-1.1,0.1-1.4l0,0c0.4-0.4,1.1-0.3,1.4,0.1l0,0
				c0.4,0.4,0.3,1.1-0.1,1.4l0,0c-0.2,0.1-0.4,0.2-0.6,0.2l0,0C262.6,316.7,262.3,316.6,262.1,316.4z M119.1,313.5
				c-0.4-0.3-0.5-1-0.2-1.4l0,0c0.3-0.4,1-0.5,1.4-0.2l0,0c0.5,0.3,0.5,0.9,0.2,1.4l0,0c-0.2,0.3-0.5,0.4-0.8,0.4l0,0
				C119.5,313.7,119.3,313.6,119.1,313.5z M268.3,311.3c-0.3-0.4-0.3-1,0.1-1.4l0,0c0.4-0.3,1.1-0.3,1.4,0.1l0,0
				c0.3,0.4,0.3,1-0.1,1.4l0,0l0,0l0,0c-0.2,0.2-0.4,0.2-0.6,0.2l0,0C268.8,311.6,268.5,311.5,268.3,311.3z M123.9,307.1
				c-0.4-0.3-0.5-1-0.2-1.4l0,0c0.3-0.4,1-0.5,1.4-0.2l0,0c0.4,0.3,0.5,1,0.2,1.4l0,0c-0.2,0.3-0.5,0.4-0.8,0.4l0,0
				C124.3,307.3,124.1,307.3,123.9,307.1z M274.4,306.1c-0.4-0.4-0.3-1.1,0.1-1.4l0,0c0.4-0.4,1.1-0.3,1.4,0.1l0,0
				c0.4,0.4,0.3,1.1-0.1,1.4l0,0c-0.2,0.2-0.4,0.2-0.6,0.2l0,0C274.9,306.5,274.6,306.4,274.4,306.1z M280.5,301
				c-0.4-0.4-0.3-1.1,0.1-1.4l0,0c0.4-0.4,1.1-0.3,1.4,0.1l0,0c0.4,0.4,0.3,1.1-0.1,1.4l0,0c-0.2,0.2-0.4,0.2-0.7,0.2l0,0
				C281,301.3,280.7,301.2,280.5,301z M128.8,300.8c-0.4-0.3-0.5-1-0.2-1.4l0,0c0.3-0.4,1-0.5,1.4-0.2l0,0c0.4,0.3,0.5,1,0.2,1.4
				l0,0c-0.2,0.3-0.5,0.4-0.8,0.4l0,0C129.2,301,129,300.9,128.8,300.8z M286.6,295.7c-0.4-0.4-0.3-1,0.1-1.4h0
				c0.4-0.4,1-0.3,1.4,0.1l0,0c0.4,0.4,0.3,1.1-0.1,1.4l0,0c-0.2,0.2-0.4,0.3-0.7,0.3l0,0C287.1,296.1,286.8,296,286.6,295.7z
				 M133.7,294.5c-0.4-0.4-0.5-1-0.2-1.4l0,0c0.3-0.4,1-0.5,1.4-0.1l0,0c0.4,0.3,0.5,1,0.2,1.4l0,0c-0.2,0.3-0.5,0.4-0.8,0.4l0,0
				C134.1,294.7,133.9,294.6,133.7,294.5z M292.6,290.5c-0.4-0.4-0.3-1,0.1-1.4l0,0c0.4-0.4,1.1-0.3,1.4,0.1l0,0
				c0.4,0.4,0.3,1-0.1,1.4l0,0c-0.2,0.2-0.4,0.3-0.7,0.3l0,0C293.1,290.8,292.8,290.7,292.6,290.5z M138.7,288.2
				c-0.4-0.4-0.5-1-0.1-1.4l0,0c0.3-0.4,1-0.5,1.4-0.1l0,0c0.4,0.4,0.5,1,0.1,1.4l0,0c-0.2,0.2-0.5,0.4-0.8,0.4l0,0
				C139.1,288.5,138.9,288.4,138.7,288.2z M298.6,285.2c-0.4-0.4-0.3-1,0.1-1.4l0,0c0.4-0.4,1-0.3,1.4,0.1l0,0
				c0.4,0.4,0.3,1.1-0.1,1.4l0,0c-0.2,0.2-0.4,0.3-0.7,0.3l0,0C299.1,285.5,298.8,285.4,298.6,285.2z M304.6,279.9
				c-0.4-0.4-0.3-1,0.1-1.4l0,0c0.4-0.4,1-0.3,1.4,0.1l0,0c0.4,0.4,0.3,1-0.1,1.4l0,0c-0.2,0.2-0.4,0.3-0.7,0.3l0,0
				C305.1,280.2,304.8,280.1,304.6,279.9z M310.6,274.5c-0.4-0.4-0.3-1,0.1-1.4l0,0c0.4-0.4,1-0.3,1.4,0.1l0,0
				c0.4,0.4,0.3,1-0.1,1.4l0,0l0,0l0,0c-0.2,0.2-0.4,0.3-0.7,0.3l0,0C311,274.8,310.8,274.7,310.6,274.5z M316.5,269.1
				c-0.4-0.4-0.3-1,0.1-1.4l0,0c0.4-0.4,1-0.4,1.4,0.1l0,0c0.4,0.4,0.4,1-0.1,1.4l0,0c-0.2,0.2-0.4,0.3-0.7,0.3l0,0
				C316.9,269.4,316.7,269.3,316.5,269.1z M322.4,263.7c-0.4-0.4-0.4-1,0-1.4l0,0c0.4-0.4,1-0.4,1.4,0l0,0c0.4,0.4,0.4,1,0,1.4l0,0
				c-0.2,0.2-0.4,0.3-0.7,0.3l0,0C322.8,264,322.6,263.9,322.4,263.7z M328.2,258.2c-0.4-0.4-0.4-1,0-1.4l0,0c0.4-0.4,1-0.4,1.4,0
				l0,0c0.4,0.4,0.3,1,0,1.4l0,0c-0.2,0.2-0.4,0.3-0.7,0.3l0,0C328.7,258.5,328.4,258.4,328.2,258.2z M334,252.7
				c-0.4-0.4-0.4-1,0-1.4l0,0c0.4-0.4,1-0.4,1.4,0l0,0c0.4,0.4,0.4,1,0,1.4l0,0c-0.2,0.2-0.5,0.3-0.7,0.3l0,0
				C334.5,253.1,334.2,252.9,334,252.7z M339.8,247.2c-0.4-0.4-0.4-1,0-1.4l0,0c0.4-0.4,1-0.4,1.4,0l0,0c0.4,0.4,0.4,1,0,1.4l0,0
				c-0.2,0.2-0.4,0.3-0.7,0.3l0,0C340.3,247.5,340,247.4,339.8,247.2z M345.6,241.6c-0.4-0.4-0.4-1,0-1.4l0,0c0.4-0.4,1-0.4,1.4,0
				l0,0c0.4,0.4,0.4,1,0,1.4l0,0c-0.2,0.2-0.5,0.3-0.7,0.3l0,0C346,242,345.8,241.9,345.6,241.6z M351.3,236.1c-0.4-0.4-0.4-1,0-1.4
				l0,0c0.4-0.4,1-0.4,1.4,0l0,0c0.4,0.4,0.4,1,0,1.4l0,0c-0.2,0.2-0.4,0.3-0.7,0.3l0,0C351.7,236.4,351.5,236.3,351.3,236.1z
				 M357,230.4c-0.4-0.4-0.4-1,0-1.4l0,0c0.4-0.4,1-0.4,1.4,0l0,0c0.4,0.4,0.4,1,0,1.4l0,0c0,0,0,0,0,0l0,0
				c-0.2,0.2-0.4,0.3-0.7,0.3l0,0C357.4,230.7,357.2,230.6,357,230.4z M362.6,224.8c-0.4-0.4-0.4-1,0-1.4l0,0c0.4-0.4,1-0.4,1.4,0
				l0,0c0.4,0.4,0.4,1,0,1.4l0,0c-0.2,0.2-0.5,0.3-0.7,0.3l0,0C363.1,225.1,362.8,225,362.6,224.8z M368.3,219.1
				c-0.4-0.4-0.4-1,0-1.4l0,0c0.4-0.4,1-0.4,1.4,0l0,0c0.4,0.4,0.4,1,0,1.4l0,0c-0.2,0.2-0.5,0.3-0.7,0.3l0,0
				C368.7,219.4,368.5,219.3,368.3,219.1z M373.8,213.4c-0.4-0.4-0.4-1,0-1.4l0,0c0.4-0.4,1-0.4,1.4,0l0,0c0.4,0.4,0.4,1,0,1.4l0,0
				c-0.2,0.2-0.5,0.3-0.7,0.3l0,0C374.3,213.6,374,213.6,373.8,213.4z M379.4,207.6c-0.4-0.4-0.4-1,0-1.4l0,0c0.4-0.4,1-0.4,1.4,0
				l0,0c0.4,0.4,0.4,1,0,1.4l0,0c-0.2,0.2-0.5,0.3-0.7,0.3l0,0C379.8,207.9,379.6,207.8,379.4,207.6z M384.9,201.8
				c-0.4-0.4-0.4-1,0-1.4l0,0c0.4-0.4,1-0.4,1.4,0l0,0c0.4,0.4,0.4,1,0,1.4l0,0c-0.2,0.2-0.5,0.3-0.7,0.3l0,0
				C385.4,202.1,385.1,202,384.9,201.8z M390.4,196c-0.4-0.4-0.4-1,0-1.4l0,0c0.4-0.4,1-0.4,1.4,0l0,0c0.4,0.4,0.4,1,0,1.4l0,0
				c-0.2,0.2-0.5,0.3-0.7,0.3l0,0C390.8,196.2,390.6,196.2,390.4,196z M395.8,190.1c-0.4-0.4-0.4-1-0.1-1.4l0,0
				c0.4-0.4,1-0.4,1.4-0.1l0,0c0.4,0.4,0.4,1,0.1,1.4l0,0l0,0l0,0c-0.2,0.2-0.5,0.3-0.7,0.3l0,0C396.3,190.4,396,190.3,395.8,190.1z
				 M401.2,184.2c-0.4-0.4-0.4-1-0.1-1.4l0,0c0.4-0.4,1-0.4,1.4-0.1l0,0c0.4,0.4,0.4,1,0.1,1.4l0,0c-0.2,0.2-0.5,0.3-0.7,0.3l0,0
				C401.7,184.5,401.4,184.4,401.2,184.2z M406.6,178.3c-0.4-0.4-0.5-1-0.1-1.4l0,0c0.4-0.4,1-0.5,1.4-0.1l0,0
				c0.4,0.4,0.5,1,0.1,1.4l0,0l0,0l0,0c-0.2,0.2-0.5,0.3-0.8,0.3l0,0C407,178.5,406.8,178.4,406.6,178.3z M411.9,172.3
				c-0.4-0.4-0.5-1-0.1-1.4l0,0c0.4-0.4,1-0.5,1.4-0.1l0,0c0.4,0.4,0.5,1,0.1,1.4l0,0c0,0,0,0,0,0l0,0c-0.2,0.2-0.5,0.3-0.8,0.3l0,0
				C412.3,172.5,412.1,172.5,411.9,172.3z M417.2,166.3c-0.4-0.4-0.5-1-0.1-1.4l0,0c0.4-0.4,1-0.5,1.4-0.1l0,0
				c0.4,0.4,0.5,1,0.1,1.4l0,0c-0.2,0.2-0.5,0.3-0.8,0.3l0,0C417.6,166.5,417.4,166.4,417.2,166.3z M422.4,160.2
				c-0.4-0.4-0.5-1-0.1-1.4l0,0c0.3-0.4,1-0.5,1.4-0.1l0,0c0.4,0.4,0.5,1,0.1,1.4l0,0c-0.2,0.2-0.5,0.4-0.8,0.4l0,0
				C422.8,160.4,422.6,160.4,422.4,160.2z M427.6,154.1c-0.4-0.3-0.5-1-0.1-1.4l0,0c0.4-0.4,1-0.5,1.4-0.1l0,0
				c0.4,0.4,0.5,1,0.1,1.4l0,0c-0.2,0.2-0.5,0.4-0.8,0.4l0,0C428,154.3,427.8,154.3,427.6,154.1z M432.7,147.9
				c-0.4-0.4-0.5-1-0.1-1.4l0,0c0.4-0.4,1-0.5,1.4-0.1l0,0c0.4,0.4,0.5,1,0.1,1.4l0,0c-0.2,0.2-0.5,0.4-0.8,0.4l0,0
				C433.1,148.2,432.9,148.1,432.7,147.9z M437.8,141.7c-0.4-0.4-0.5-1-0.2-1.4l0,0c0.4-0.4,1-0.5,1.4-0.1l0,0
				c0.4,0.3,0.5,1,0.2,1.4l0,0c-0.2,0.3-0.5,0.4-0.8,0.4l0,0C438.2,142,438,141.9,437.8,141.7z M442.8,135.5c-0.4-0.3-0.5-1-0.2-1.4
				l0,0c0.3-0.4,1-0.5,1.4-0.2l0,0c0.4,0.3,0.5,1,0.2,1.4l0,0c-0.2,0.3-0.5,0.4-0.8,0.4l0,0C443.2,135.7,443,135.6,442.8,135.5z
				 M447.7,129.2c-0.4-0.3-0.5-1-0.2-1.4l0,0c0.3-0.4,1-0.5,1.4-0.2l0,0c0.4,0.3,0.5,1,0.2,1.4l0,0c-0.2,0.3-0.5,0.4-0.8,0.4l0,0
				C448.1,129.4,447.9,129.3,447.7,129.2z M452.6,122.8c-0.4-0.3-0.5-1-0.2-1.4l0,0c0.3-0.4,1-0.5,1.4-0.2l0,0
				c0.4,0.3,0.5,1,0.2,1.4l0,0c-0.2,0.3-0.5,0.4-0.8,0.4l0,0C453,123,452.7,123,452.6,122.8z M457.4,116.4c-0.4-0.3-0.5-1-0.2-1.4
				l0,0c0.3-0.5,1-0.5,1.4-0.2l0,0c0.4,0.3,0.5,0.9,0.2,1.4l0,0l0,0l0,0c-0.2,0.3-0.5,0.4-0.8,0.4l0,0
				C457.7,116.6,457.5,116.6,457.4,116.4z M462.1,110c-0.5-0.3-0.6-0.9-0.2-1.4l0,0c0.3-0.5,0.9-0.5,1.4-0.2l0,0
				c0.5,0.3,0.5,1,0.2,1.4l0,0c-0.2,0.3-0.5,0.4-0.8,0.4l0,0C462.4,110.1,462.2,110.1,462.1,110z M466.7,103.4
				c-0.5-0.3-0.6-0.9-0.3-1.4l0,0c0.3-0.5,0.9-0.6,1.4-0.3l0,0c0.5,0.3,0.6,0.9,0.3,1.4l0,0c-0.2,0.3-0.5,0.4-0.8,0.4l0,0
				C467,103.6,466.8,103.5,466.7,103.4z M471.2,96.8c-0.5-0.3-0.6-0.9-0.3-1.4l0,0c0.3-0.5,0.9-0.6,1.4-0.3l0,0
				c0.5,0.3,0.6,0.9,0.3,1.4l0,0l0,0l0,0c-0.2,0.3-0.5,0.5-0.8,0.5l0,0C471.5,97,471.4,96.9,471.2,96.8z M475.6,90.1
				c-0.5-0.3-0.6-0.9-0.3-1.4l0,0c0.3-0.5,0.9-0.6,1.4-0.3l0,0c0.5,0.3,0.6,0.9,0.3,1.4l0,0l0,0l0,0c-0.2,0.3-0.5,0.5-0.8,0.5l0,0
				C475.9,90.3,475.7,90.2,475.6,90.1z M479.8,83.3c-0.5-0.3-0.6-0.9-0.3-1.4l0,0c0.3-0.5,0.9-0.6,1.4-0.3l0,0
				c0.5,0.3,0.6,0.9,0.3,1.4l0,0c-0.2,0.3-0.5,0.5-0.9,0.5l0,0C480.1,83.5,480,83.4,479.8,83.3z M483.9,76.4
				c-0.5-0.3-0.7-0.9-0.4-1.4l0,0c0.3-0.5,0.9-0.7,1.4-0.4l0,0c0.5,0.3,0.6,0.9,0.4,1.4l0,0c-0.2,0.3-0.5,0.5-0.9,0.5l0,0
				C484.2,76.6,484,76.5,483.9,76.4z M371.8,70.1c-0.3-0.5-0.2-1.1,0.2-1.4l0,0c0.5-0.3,1.1-0.2,1.4,0.2l0,0
				c0.3,0.5,0.2,1.1-0.2,1.4l0,0c-0.2,0.1-0.4,0.2-0.6,0.2l0,0C372.3,70.5,372,70.4,371.8,70.1z M487.8,69.4
				c-0.5-0.3-0.7-0.9-0.4-1.4l0,0c0.3-0.5,0.9-0.7,1.3-0.4l0,0c0.5,0.3,0.7,0.9,0.4,1.4l0,0c-0.2,0.3-0.5,0.5-0.9,0.5l0,0
				C488.1,69.6,487.9,69.5,487.8,69.4z M378.3,65.5c-0.3-0.4-0.2-1.1,0.3-1.4l0,0l0,0l0,0c0.4-0.3,1.1-0.2,1.4,0.3l0,0
				c0.3,0.5,0.2,1.1-0.3,1.4l0,0c-0.2,0.1-0.4,0.2-0.6,0.2l0,0C378.8,65.9,378.5,65.8,378.3,65.5z M491.4,62.3
				c-0.5-0.2-0.7-0.8-0.5-1.3l0,0c0.2-0.5,0.8-0.7,1.3-0.5l0,0c0.5,0.2,0.7,0.8,0.5,1.3l0,0c0,0,0,0,0,0l0,0
				c-0.2,0.4-0.5,0.6-0.9,0.6l0,0C491.7,62.4,491.5,62.4,491.4,62.3z M384.9,61c-0.3-0.5-0.2-1.1,0.3-1.4l0,0l0,0l0,0
				c0.5-0.3,1.1-0.2,1.4,0.3l0,0c0.3,0.5,0.2,1.1-0.3,1.4l0,0c-0.2,0.1-0.4,0.2-0.6,0.2l0,0C385.4,61.4,385.1,61.3,384.9,61z
				 M391.6,56.5c-0.3-0.5-0.2-1.1,0.3-1.4l0,0c0.5-0.3,1.1-0.2,1.4,0.3l0,0c0.3,0.5,0.2,1.1-0.3,1.4l0,0c-0.2,0.1-0.4,0.2-0.5,0.2
				l0,0C392.1,57,391.8,56.8,391.6,56.5z M494.7,55c-0.5-0.2-0.8-0.8-0.5-1.3l0,0c0.2-0.5,0.8-0.8,1.3-0.5l0,0
				c0.5,0.2,0.8,0.8,0.5,1.3l0,0l0,0l0,0c-0.2,0.4-0.5,0.6-0.9,0.6l0,0C494.9,55.1,494.8,55.1,494.7,55z M398.3,52.2
				c-0.3-0.5-0.2-1.1,0.3-1.4l0,0c0.5-0.3,1.1-0.2,1.4,0.3l0,0c0.3,0.5,0.2,1.1-0.3,1.4l0,0c-0.2,0.1-0.4,0.1-0.5,0.1l0,0
				C398.8,52.6,398.5,52.5,398.3,52.2z M405.1,47.9c-0.3-0.5-0.2-1.1,0.3-1.4l0,0c0.5-0.3,1.1-0.2,1.4,0.3l0,0
				c0.3,0.5,0.1,1.1-0.3,1.4l0,0c-0.2,0.1-0.3,0.1-0.5,0.1l0,0C405.6,48.4,405.2,48.2,405.1,47.9z M497.5,47.5
				c-0.5-0.2-0.8-0.7-0.6-1.3l0,0c0.2-0.5,0.7-0.8,1.3-0.6l0,0c0.5,0.2,0.8,0.7,0.7,1.3l0,0c-0.1,0.4-0.5,0.7-1,0.7l0,0
				C497.7,47.6,497.6,47.6,497.5,47.5z M411.9,43.7c-0.3-0.5-0.1-1.1,0.3-1.4l0,0c0.5-0.3,1.1-0.1,1.4,0.4l0,0
				c0.3,0.5,0.1,1.1-0.3,1.4l0,0c-0.2,0.1-0.3,0.1-0.5,0.1l0,0C412.4,44.2,412.1,44,411.9,43.7z M418.8,39.6
				c-0.3-0.5-0.1-1.1,0.4-1.4l0,0c0.5-0.3,1.1-0.1,1.4,0.4l0,0c0.3,0.5,0.1,1.1-0.4,1.4l0,0c-0.2,0.1-0.3,0.1-0.5,0.1l0,0
				C419.3,40.2,419,40,418.8,39.6z M499.7,39.8c-0.5-0.1-0.9-0.6-0.8-1.2l0,0c0.1-0.5,0.6-0.9,1.2-0.8l0,0c0.5,0.1,0.9,0.6,0.8,1.2
				l0,0c-0.1,0.5-0.5,0.8-1,0.8l0,0C499.8,39.9,499.8,39.9,499.7,39.8z M425.7,35.7c-0.3-0.5-0.1-1.1,0.4-1.4l0,0
				c0.5-0.3,1.1-0.1,1.4,0.4l0,0c0.3,0.5,0.1,1.1-0.4,1.4l0,0c-0.1,0.1-0.3,0.1-0.5,0.1l0,0C426.3,36.2,425.9,36.1,425.7,35.7z
				 M432.8,31.9c-0.3-0.5-0.1-1.1,0.4-1.4l0,0c0,0,0,0,0,0l0,0c0.5-0.3,1.1-0.1,1.3,0.4l0,0c0.3,0.5,0.1,1.1-0.4,1.3v0
				c-0.1,0.1-0.3,0.1-0.5,0.1l0,0C433.3,32.5,433,32.3,432.8,31.9z M499.7,30.9c0-0.5,0.4-1,1-1l0,0c0.6,0,1,0.4,1,1l0,0
				c0,0.5-0.4,1-1,1l0,0h0l0,0C500.2,31.9,499.7,31.5,499.7,30.9z M439.9,28.3c-0.2-0.5,0-1.1,0.5-1.3l0,0c0.5-0.2,1.1,0,1.3,0.5
				l0,0c0.2,0.5,0,1.1-0.5,1.3l0,0c-0.1,0.1-0.3,0.1-0.4,0.1l0,0C440.5,28.9,440.1,28.7,439.9,28.3z M447.2,24.9
				c-0.2-0.5,0-1.1,0.5-1.3l0,0c0,0,0,0,0,0l0,0c0.5-0.2,1.1,0,1.3,0.5l0,0c0.2,0.5,0,1.1-0.5,1.3l0,0c-0.1,0.1-0.3,0.1-0.4,0.1l0,0
				C447.7,25.5,447.4,25.3,447.2,24.9z M498.4,23.5c-0.2-0.5,0-1.1,0.5-1.3l0,0c0.5-0.2,1.1,0,1.3,0.5l0,0c0.2,0.5,0,1.1-0.5,1.3
				l0,0c-0.1,0.1-0.3,0.1-0.4,0.1l0,0C498.9,24.1,498.5,23.9,498.4,23.5z M454.6,21.8c-0.2-0.5,0-1.1,0.6-1.3l0,0
				c0.5-0.2,1.1,0,1.3,0.6l0,0c0.2,0.5-0.1,1.1-0.6,1.3l0,0c-0.1,0-0.3,0.1-0.4,0.1l0,0C455.1,22.4,454.7,22.2,454.6,21.8z
				 M462.1,19c-0.2-0.5,0.1-1.1,0.6-1.3l0,0c0.5-0.2,1.1,0.1,1.3,0.6l0,0c0.2,0.5-0.1,1.1-0.6,1.3l0,0c-0.1,0-0.2,0-0.3,0l0,0
				C462.6,19.7,462.2,19.5,462.1,19z M493.6,18.1c-0.5-0.3-0.6-0.9-0.3-1.4l0,0c0.3-0.5,0.9-0.6,1.4-0.3l0,0
				c0.5,0.3,0.6,0.9,0.3,1.4l0,0c-0.2,0.3-0.5,0.5-0.9,0.5l0,0C493.9,18.2,493.8,18.1,493.6,18.1z M469.7,16.7
				c-0.1-0.5,0.2-1.1,0.7-1.2l0,0c0.5-0.1,1.1,0.2,1.2,0.7l0,0c0.1,0.5-0.2,1.1-0.7,1.2l0,0c-0.1,0-0.2,0-0.2,0l0,0
				C470.2,17.5,469.8,17.2,469.7,16.7z M477.6,15.1c-0.1-0.5,0.3-1,0.9-1.1l0,0c0.5-0.1,1,0.3,1.1,0.9l0,0c0.1,0.6-0.3,1.1-0.9,1.1
				l0,0c0,0-0.1,0-0.1,0l0,0C478,16,477.6,15.7,477.6,15.1z M486.4,15.9c-0.5-0.1-1-0.5-0.9-1.1l0,0c0-0.6,0.5-1,1.1-0.9l0,0
				c0.5,0.1,1,0.5,0.9,1.1l0,0C487.5,15.5,487,15.9,486.4,15.9L486.4,15.9C486.5,15.9,486.5,15.9,486.4,15.9z"/>
		</g>
	</g>
	<circle class="st6" cx="470" cy="99.6" r="7"/>
	<circle class="st6" cx="81.9" cy="185.3" r="7"/>
	<circle class="st6" cx="356.5" cy="360.6" r="7"/>
</g>
</svg>
