<?xml version="1.0" encoding="utf-8"?>
<!-- Generator: Adobe Illustrator 19.2.0, SVG Export Plug-In . SVG Version: 6.00 Build 0)  -->
<svg version="1.1" id="Layer_1" xmlns="http://www.w3.org/2000/svg" xmlns:xlink="http://www.w3.org/1999/xlink" x="0px" y="0px"
	 viewBox="0 0 1040 380.1" style="enable-background:new 0 0 1040 380.1;" xml:space="preserve">
<style type="text/css">
	.st0{fill:#3092C2;}
	.st1{fill:#F4F4F4;}
	.st2{fill:#387B9B;}
	.st3{fill:none;}
</style>
<rect x="0" class="st0" width="1040" height="380.1"/>
<g>
	<circle class="st1" cx="460.6" cy="51.7" r="14.4"/>
	<path class="st1" d="M441.3,126.8h38.5c4.1,0,7.4-3.3,7.4-7.4V77.5c0-4.1-3.3-7.4-7.4-7.4h-38.5c-4.1,0-7.4,3.3-7.4,7.4v41.9
		C433.9,123.5,437.2,126.8,441.3,126.8z"/>
	
		<rect x="441.2" y="121.5" transform="matrix(-1 -4.470658e-11 4.470658e-11 -1 921.0362 292.0138)" class="st1" width="38.6" height="49.1"/>
</g>
<g>
	<circle class="st1" cx="460.6" cy="215.5" r="14.4"/>
	<path class="st1" d="M441.3,290.6h38.5c4.1,0,7.4-3.3,7.4-7.4v-41.9c0-4.1-3.3-7.4-7.4-7.4h-38.5c-4.1,0-7.4,3.3-7.4,7.4v41.9
		C433.9,287.3,437.2,290.6,441.3,290.6z"/>
	
		<rect x="441.2" y="285.3" transform="matrix(-1 -4.465951e-11 4.465951e-11 -1 921.0362 619.6954)" class="st1" width="38.6" height="49.1"/>
</g>
<g>
	<g>
		<circle class="st2" cx="546.5" cy="51.7" r="14.4"/>
		<path class="st2" d="M527.2,126.8h38.5c4.1,0,7.4-3.3,7.4-7.4V77.5c0-4.1-3.3-7.4-7.4-7.4h-38.5c-4.1,0-7.4,3.3-7.4,7.4v41.9
			C519.8,123.5,523.2,126.8,527.2,126.8z"/>
		
			<rect x="527.2" y="121.5" transform="matrix(-1 -4.470658e-11 4.470658e-11 -1 1092.9329 292.0138)" class="st2" width="38.6" height="49.1"/>
	</g>
</g>
<g>
	<circle class="st1" cx="627.5" cy="51.7" r="14.4"/>
	<path class="st1" d="M608.2,126.8h38.5c4.1,0,7.4-3.3,7.4-7.4V77.5c0-4.1-3.3-7.4-7.4-7.4h-38.5c-4.1,0-7.4,3.3-7.4,7.4v41.9
		C600.8,123.5,604.1,126.8,608.2,126.8z"/>
	
		<rect x="608.1" y="121.5" transform="matrix(-1 -4.470658e-11 4.470658e-11 -1 1254.8878 292.0138)" class="st1" width="38.6" height="49.1"/>
</g>
<g>
	<circle class="st1" cx="546.5" cy="215.5" r="14.4"/>
	<path class="st1" d="M527.2,290.6h38.5c4.1,0,7.4-3.3,7.4-7.4v-41.9c0-4.1-3.3-7.4-7.4-7.4h-38.5c-4.1,0-7.4,3.3-7.4,7.4v41.9
		C519.8,287.3,523.2,290.6,527.2,290.6z"/>
	
		<rect x="527.2" y="285.3" transform="matrix(-1 -4.465951e-11 4.465951e-11 -1 1092.9329 619.6954)" class="st1" width="38.6" height="49.1"/>
</g>
<g>
	<g>
		<circle class="st2" cx="627.5" cy="215.5" r="14.4"/>
		<path class="st2" d="M608.2,290.6h38.5c4.1,0,7.4-3.3,7.4-7.4v-41.9c0-4.1-3.3-7.4-7.4-7.4h-38.5c-4.1,0-7.4,3.3-7.4,7.4v41.9
			C600.8,287.3,604.1,290.6,608.2,290.6z"/>
		
			<rect x="608.1" y="285.3" transform="matrix(-1 -4.465951e-11 4.465951e-11 -1 1254.8878 619.6954)" class="st2" width="38.6" height="49.1"/>
	</g>
</g>
<g>
	<g>
		<circle class="st2" cx="712.4" cy="51.7" r="14.4"/>
		<path class="st2" d="M693.1,126.8h38.5c4.1,0,7.4-3.3,7.4-7.4V77.5c0-4.1-3.3-7.4-7.4-7.4h-38.5c-4.1,0-7.4,3.3-7.4,7.4v41.9
			C685.7,123.5,689,126.8,693.1,126.8z"/>
		
			<rect x="693" y="121.5" transform="matrix(-1 -4.470658e-11 4.470658e-11 -1 1424.698 292.0138)" class="st2" width="38.6" height="49.1"/>
	</g>
</g>
<g>
	<g>
		<circle class="st2" cx="793.4" cy="51.7" r="14.4"/>
		<path class="st2" d="M774.1,126.8h38.5c4.1,0,7.4-3.3,7.4-7.4V77.5c0-4.1-3.3-7.4-7.4-7.4h-38.5c-4.1,0-7.4,3.3-7.4,7.4v41.9
			C766.7,123.5,770,126.8,774.1,126.8z"/>
		
			<rect x="774" y="121.5" transform="matrix(-1 -4.470658e-11 4.470658e-11 -1 1586.653 292.0138)" class="st2" width="38.6" height="49.1"/>
	</g>
</g>
<g>
	<circle class="st1" cx="712.4" cy="215.5" r="14.4"/>
	<path class="st1" d="M693.1,290.6h38.5c4.1,0,7.4-3.3,7.4-7.4v-41.9c0-4.1-3.3-7.4-7.4-7.4h-38.5c-4.1,0-7.4,3.3-7.4,7.4v41.9
		C685.7,287.3,689,290.6,693.1,290.6z"/>
	
		<rect x="693" y="285.3" transform="matrix(-1 -4.465951e-11 4.465951e-11 -1 1424.698 619.6954)" class="st1" width="38.6" height="49.1"/>
</g>
<g>
	<circle class="st1" cx="793.4" cy="215.5" r="14.4"/>
	<path class="st1" d="M774.1,290.6h38.5c4.1,0,7.4-3.3,7.4-7.4v-41.9c0-4.1-3.3-7.4-7.4-7.4h-38.5c-4.1,0-7.4,3.3-7.4,7.4v41.9
		C766.7,287.3,770,290.6,774.1,290.6z"/>
	
		<rect x="774" y="285.3" transform="matrix(-1 -4.465951e-11 4.465951e-11 -1 1586.653 619.6954)" class="st1" width="38.6" height="49.1"/>
</g>
<g>
	<circle class="st1" cx="879.3" cy="51.7" r="14.4"/>
	<path class="st1" d="M860,126.8h38.5c4.1,0,7.4-3.3,7.4-7.4V77.5c0-4.1-3.3-7.4-7.4-7.4H860c-4.1,0-7.4,3.3-7.4,7.4v41.9
		C852.6,123.5,856,126.8,860,126.8z"/>
	
		<rect x="860" y="121.5" transform="matrix(-1 -4.470658e-11 4.470658e-11 -1 1758.5497 292.0138)" class="st1" width="38.6" height="49.1"/>
</g>
<g>
	<g>
		<circle class="st2" cx="960.3" cy="51.7" r="14.4"/>
		<path class="st2" d="M941,126.8h38.5c4.1,0,7.4-3.3,7.4-7.4V77.5c0-4.1-3.3-7.4-7.4-7.4H941c-4.1,0-7.4,3.3-7.4,7.4v41.9
			C933.6,123.5,936.9,126.8,941,126.8z"/>
		
			<rect x="940.9" y="121.5" transform="matrix(-1 -4.470658e-11 4.470658e-11 -1 1920.5046 292.0138)" class="st2" width="38.6" height="49.1"/>
	</g>
</g>
<g>
	<g>
		<circle class="st2" cx="879.3" cy="215.5" r="14.4"/>
		<path class="st2" d="M860,290.6h38.5c4.1,0,7.4-3.3,7.4-7.4v-41.9c0-4.1-3.3-7.4-7.4-7.4H860c-4.1,0-7.4,3.3-7.4,7.4v41.9
			C852.6,287.3,856,290.6,860,290.6z"/>
		
			<rect x="860" y="285.3" transform="matrix(-1 -4.465951e-11 4.465951e-11 -1 1758.5497 619.6954)" class="st2" width="38.6" height="49.1"/>
	</g>
</g>
<g>
	<circle class="st1" cx="960.3" cy="215.5" r="14.4"/>
	<path class="st1" d="M941,290.6h38.5c4.1,0,7.4-3.3,7.4-7.4v-41.9c0-4.1-3.3-7.4-7.4-7.4H941c-4.1,0-7.4,3.3-7.4,7.4v41.9
		C933.6,287.3,936.9,290.6,941,290.6z"/>
	
		<rect x="940.9" y="285.3" transform="matrix(-1 -4.465951e-11 4.465951e-11 -1 1920.5046 619.6954)" class="st1" width="38.6" height="49.1"/>
</g>
<g>
	<g>
		<g>
			<path class="st1" d="M226.5,249.8c-0.3-1.6,0.8-3,2.4-3.3l0,0c1.6-0.2,3,0.8,3.3,2.4l0,0c0.2,1.6-0.8,3-2.4,3.3l0,0
				c-0.2,0-0.3,0-0.5,0l0,0C228,252.3,226.8,251.3,226.5,249.8z M205.9,251.8c-1.6-0.3-2.6-1.8-2.3-3.4l0,0c0.3-1.6,1.8-2.6,3.4-2.3
				l0,0c1.6,0.3,2.6,1.8,2.3,3.4l0,0c-0.3,1.4-1.5,2.3-2.8,2.3l0,0C206.3,251.9,206.1,251.9,205.9,251.8z M248.5,243.3
				c-0.8-1.4-0.3-3.1,1.1-3.9l0,0c1.4-0.8,3.1-0.3,3.9,1.1l0,0c0.8,1.4,0.3,3.1-1.1,3.9l0,0c-0.4,0.3-0.9,0.4-1.4,0.4l0,0
				C250,244.7,249,244.2,248.5,243.3z M183.6,243.2c-1.4-0.8-1.8-2.6-1-4l0,0c0.8-1.4,2.6-1.8,4-1l0,0c1.4,0.8,1.8,2.6,1,4l0,0
				c-0.5,0.9-1.5,1.4-2.5,1.4l0,0C184.6,243.6,184.1,243.5,183.6,243.2z M266.8,229.5c-1.2-1-1.4-2.8-0.3-4.1l0,0
				c1-1.2,2.8-1.4,4.1-0.3l0,0c1.2,1,1.4,2.8,0.3,4.1l0,0c-0.6,0.7-1.4,1-2.2,1l0,0C268,230.2,267.3,229.9,266.8,229.5z
				 M165.7,227.4c-1-1.2-0.8-3.1,0.5-4l0,0c1.2-1,3.1-0.8,4,0.5l0,0c1,1.2,0.8,3.1-0.5,4l0,0c-0.5,0.4-1.2,0.6-1.8,0.6l0,0
				C167.1,228.5,166.3,228.1,165.7,227.4z M279.2,210.2c-1.5-0.5-2.3-2.2-1.7-3.7l0,0c0.5-1.5,2.2-2.3,3.7-1.7l0,0
				c1.5,0.5,2.3,2.2,1.7,3.7l0,0c-0.4,1.2-1.5,1.9-2.7,1.9l0,0C279.9,210.4,279.6,210.3,279.2,210.2z M154.3,206.4
				c-0.5-1.5,0.3-3.1,1.8-3.6l0,0c1.5-0.5,3.1,0.3,3.6,1.8l0,0c0.5,1.5-0.3,3.1-1.8,3.6l0,0c-0.3,0.1-0.6,0.1-0.9,0.1l0,0
				C155.9,208.3,154.7,207.6,154.3,206.4z M281.4,185c0-1.6,1.3-2.9,2.9-2.9l0,0c1.6,0,2.9,1.3,2.9,2.9l0,0c0,1.6-1.3,2.9-2.9,2.9
				l0,0C282.6,187.9,281.4,186.6,281.4,185z M153.7,185.7c-1.6-0.1-2.8-1.4-2.8-3l0,0c0.1-1.6,1.4-2.8,3-2.8l0,0
				c1.6,0.1,2.8,1.4,2.8,3l0,0c-0.1,1.6-1.3,2.8-2.9,2.8l0,0C153.8,185.7,153.8,185.7,153.7,185.7z M278.8,167.4L278.8,167.4
				c-0.4-1.5,0.4-3.1,2-3.6l0,0c1.5-0.4,3.1,0.4,3.6,2l0,0c0.4,1.5-0.4,3.1-2,3.6l0,0c-0.3,0.1-0.5,0.1-0.8,0.1l0,0
				C280.4,169.5,279.2,168.7,278.8,167.4z M157.5,163.1c-1.5-0.6-2.2-2.3-1.6-3.7l0,0c0.6-1.5,2.3-2.2,3.8-1.6l0,0
				c1.5,0.6,2.2,2.3,1.6,3.8l0,0c-0.5,1.1-1.5,1.8-2.7,1.8l0,0C158.2,163.3,157.8,163.2,157.5,163.1z M269.1,147.8
				c-0.9-1.3-0.7-3.1,0.6-4l0,0c1.3-0.9,3.1-0.7,4,0.6l0,0c0.9,1.3,0.7,3.1-0.6,4l0,0c-0.5,0.4-1.1,0.6-1.7,0.6l0,0
				C270.5,149,269.6,148.6,269.1,147.8z M168.9,143.2c-1.2-1.1-1.3-2.9-0.2-4.1l0,0c1.1-1.2,2.9-1.3,4.1-0.2l0,0
				c1.2,1.1,1.3,2.9,0.2,4.1l0,0c-0.6,0.6-1.3,0.9-2.1,0.9l0,0C170.1,143.9,169.4,143.7,168.9,143.2z M253.1,132.8
				c-1.3-0.9-1.7-2.7-0.8-4l0,0c0.9-1.3,2.7-1.7,4-0.8l0,0c0,0,0,0,0,0l0,0c1.3,0.9,1.7,2.7,0.8,4l0,0c-0.6,0.8-1.5,1.3-2.4,1.3l0,0
				C254.2,133.3,253.6,133.1,253.1,132.8z M186.4,128.4c-0.7-1.4-0.2-3.1,1.2-3.9l0,0c1.4-0.7,3.1-0.2,3.9,1.2l0,0
				c0.7,1.4,0.2,3.1-1.2,3.9l0,0c-0.4,0.2-0.9,0.3-1.3,0.3l0,0C187.9,130,186.9,129.4,186.4,128.4z M233,124.2
				c-1.6-0.4-2.5-1.9-2.2-3.4l0,0c0.4-1.5,1.9-2.5,3.4-2.2l0,0c1.5,0.4,2.5,1.9,2.2,3.4l0,0c-0.3,1.3-1.5,2.2-2.8,2.2l0,0
				C233.5,124.3,233.2,124.3,233,124.2z M208,120.6c-0.2-1.6,0.9-3,2.5-3.2l0,0c1.6-0.2,3,0.9,3.2,2.5l0,0c0.2,1.6-0.9,3-2.5,3.2
				l0,0c-0.1,0-0.2,0-0.4,0l0,0C209.4,123.1,208.1,122.1,208,120.6z"/>
		</g>
	</g>
	<g>
		<g>
			<path class="st1" d="M209.1,342.5c-1.6-0.1-2.8-1.5-2.7-3.1l0,0c0.1-1.6,1.5-2.8,3.1-2.7l0,0c1.6,0.1,2.8,1.5,2.7,3.1l0,0
				c-0.1,1.5-1.4,2.7-2.9,2.7l0,0C209.2,342.5,209.1,342.5,209.1,342.5z M229.4,339.6c-0.1-1.6,1-3,2.6-3.1l0,0c1.6-0.1,3,1,3.1,2.6
				l0,0c0.1,1.6-1,3-2.6,3.1l0,0c-0.1,0-0.2,0-0.2,0l0,0C230.8,342.2,229.5,341.1,229.4,339.6z M142.1,322.8
				C142.1,322.8,142.1,322.8,142.1,322.8L142.1,322.8c-1.4-0.8-1.9-2.5-1.1-3.9l0,0c0.8-1.4,2.5-1.9,3.9-1.1v0
				c1.4,0.8,1.9,2.5,1.1,3.9l0,0c-0.5,0.9-1.5,1.5-2.5,1.5l0,0C143.1,323.2,142.6,323.1,142.1,322.8z M295,320
				c-0.8-1.4-0.4-3.1,1-3.9l0,0c1.4-0.8,3.1-0.4,3.9,1l0,0c0.8,1.4,0.4,3.1-1,3.9l0,0c-0.5,0.3-1,0.4-1.5,0.4l0,0
				C296.5,321.5,295.5,321,295,320z M122.6,309.9c-1.3-1-1.5-2.8-0.5-4l0,0c1-1.3,2.8-1.5,4-0.5l0,0c1.3,1,1.5,2.8,0.5,4l0,0
				c-0.6,0.7-1.4,1.1-2.3,1.1l0,0C123.7,310.5,123.1,310.3,122.6,309.9z M314.1,307.3c-1-1.2-0.8-3,0.4-4l0,0c1.2-1,3-0.8,4,0.4l0,0
				c1,1.2,0.8,3-0.4,4l0,0c0,0,0,0,0,0l0,0c-0.5,0.4-1.2,0.6-1.8,0.6l0,0C315.5,308.4,314.7,308,314.1,307.3z M105.2,294.2
				c-1.1-1.1-1.1-3,0.1-4.1l0,0c1.1-1.1,3-1.1,4.1,0.1l0,0c1.1,1.1,1.1,3-0.1,4.1l0,0c-0.6,0.5-1.3,0.8-2,0.8l0,0
				C106.5,295.1,105.7,294.8,105.2,294.2z M331.2,291.9c-1.2-1.1-1.2-2.9-0.2-4.1l0,0c1.1-1.2,2.9-1.2,4.1-0.2l0,0
				c1.2,1.1,1.2,2.9,0.2,4.1l0,0c-0.6,0.6-1.3,0.9-2.1,0.9l0,0C332.4,292.6,331.7,292.4,331.2,291.9z M90.2,276.2
				c-0.9-1.3-0.6-3.1,0.7-4l0,0c1.3-0.9,3.1-0.6,4,0.7l0,0c0.9,1.3,0.6,3.1-0.7,4l0,0c-0.5,0.4-1.1,0.5-1.7,0.5l0,0
				C91.7,277.4,90.8,277,90.2,276.2z M345.8,274.1c-1.3-0.9-1.7-2.7-0.8-4l0,0c0.9-1.3,2.7-1.7,4-0.8l0,0c1.3,0.9,1.7,2.7,0.8,4l0,0
				c-0.6,0.8-1.5,1.3-2.4,1.3l0,0C346.8,274.6,346.3,274.4,345.8,274.1z M78.2,256.2c-0.7-1.4-0.2-3.1,1.3-3.9l0,0
				c1.4-0.7,3.2-0.2,3.9,1.3l0,0c0.7,1.4,0.1,3.1-1.3,3.9l0,0c-0.4,0.2-0.9,0.3-1.3,0.3l0,0C79.7,257.7,78.7,257.2,78.2,256.2z
				 M357.6,254.4c-1.4-0.7-2-2.4-1.4-3.8l0,0c0.7-1.4,2.4-2,3.8-1.4l0,0c1.4,0.7,2,2.4,1.4,3.8l0,0c-0.5,1-1.5,1.6-2.6,1.6l0,0
				C358.4,254.6,358,254.6,357.6,254.4z M69.2,234.5c-0.5-1.5,0.3-3.1,1.8-3.6l0,0c1.5-0.5,3.1,0.3,3.6,1.8l0,0
				c0.5,1.5-0.3,3.1-1.8,3.6l0,0c-0.3,0.1-0.6,0.1-0.9,0.1l0,0C70.7,236.5,69.6,235.8,69.2,234.5z M366.3,233.1
				c-1.5-0.5-2.4-2.1-1.9-3.6l0,0c0.5-1.5,2.1-2.4,3.6-1.9l0,0c1.5,0.5,2.4,2.1,1.9,3.6l0,0c0,0,0,0,0,0l0,0c-0.4,1.2-1.5,2-2.7,2
				l0,0C366.9,233.2,366.6,233.2,366.3,233.1z M63.5,211.8c-0.3-1.6,0.8-3.1,2.4-3.3l0,0c1.6-0.3,3.1,0.8,3.3,2.3l0,0
				c0.3,1.6-0.8,3.1-2.3,3.3l0,0c-0.2,0-0.3,0-0.5,0l0,0C64.9,214.2,63.7,213.2,63.5,211.8z M371.8,210.8c-1.6-0.2-2.7-1.7-2.4-3.3
				h0c0.2-1.6,1.7-2.7,3.3-2.4l0,0c1.6,0.2,2.7,1.7,2.4,3.3l0,0c-0.2,1.4-1.4,2.5-2.8,2.5l0,0C372.1,210.8,372,210.8,371.8,210.8z
				 M61.3,188.5c0-1.6,1.2-2.9,2.8-2.9l0,0c1.6,0,2.9,1.2,2.9,2.8l0,0c0,1.6-1.2,2.9-2.8,2.9l0,0c0,0,0,0-0.1,0l0,0
				C62.6,191.3,61.3,190.1,61.3,188.5z M371,185c0-1.6,1.3-2.9,2.9-2.9l0,0c1.6,0,2.9,1.3,2.9,2.9l0,0c0,1.6-1.3,2.9-2.9,2.9l0,0
				C372.3,187.9,371,186.6,371,185z M64.9,168.3c-1.6-0.2-2.7-1.6-2.5-3.2l0,0c0.2-1.6,1.6-2.7,3.2-2.5l0,0c1.6,0.2,2.7,1.6,2.5,3.2
				l0,0c-0.2,1.5-1.4,2.5-2.8,2.5l0,0C65.2,168.4,65.1,168.4,64.9,168.3z M368.2,155.7c-0.3-1.6,0.7-3.1,2.3-3.4l0,0
				c1.6-0.3,3.1,0.7,3.4,2.3l0,0c0.3,1.6-0.7,3.1-2.3,3.4l0,0c-0.2,0-0.4,0.1-0.6,0.1l0,0C369.7,158.1,368.5,157.1,368.2,155.7z
				 M69.1,145.7c-1.5-0.4-2.4-2-2-3.5l0,0c0.4-1.5,2-2.4,3.6-2l0,0c1.5,0.4,2.4,2,2,3.5l0,0c-0.4,1.3-1.5,2.1-2.8,2.1l0,0
				C69.6,145.8,69.3,145.8,69.1,145.7z M362.3,134c-0.5-1.5,0.3-3.1,1.7-3.7l0,0c1.5-0.5,3.1,0.3,3.7,1.7l0,0
				c0.5,1.5-0.2,3.1-1.7,3.7l0,0c-0.3,0.1-0.6,0.2-1,0.2l0,0C363.8,135.9,362.7,135.2,362.3,134z M76.5,124
				c-1.4-0.7-2.1-2.4-1.4-3.8l0,0c0,0,0,0,0,0l0,0c0.7-1.4,2.4-2.1,3.8-1.4l0,0c1.4,0.7,2.1,2.4,1.4,3.8l0,0
				c-0.5,1.1-1.5,1.7-2.6,1.7l0,0C77.3,124.2,76.9,124.1,76.5,124z M353.2,113.4L353.2,113.4c-0.8-1.4-0.2-3.1,1.2-3.9l0,0
				c1.4-0.7,3.1-0.2,3.9,1.2l0,0c0.8,1.4,0.2,3.1-1.2,3.9l0,0c-0.4,0.2-0.9,0.3-1.4,0.3l0,0C354.7,114.9,353.7,114.3,353.2,113.4z
				 M87.2,103.6c-1.3-0.9-1.7-2.6-0.9-4l0,0c0.9-1.3,2.6-1.7,4-0.9l0,0c1.3,0.9,1.7,2.6,0.9,4l0,0c-0.5,0.9-1.5,1.3-2.4,1.3l0,0
				C88.2,104,87.6,103.9,87.2,103.6z M341.1,94.3c-0.9-1.3-0.7-3.1,0.6-4l0,0c1.3-0.9,3.1-0.7,4,0.6l0,0c0.9,1.3,0.7,3.1-0.6,4l0,0
				c-0.5,0.4-1.1,0.6-1.7,0.6l0,0C342.5,95.5,341.6,95.1,341.1,94.3z M100.7,84.9c-1.2-1-1.3-2.9-0.3-4.1l0,0
				c1.1-1.2,2.9-1.3,4.1-0.3l0,0c1.2,1.1,1.3,2.9,0.3,4.1l0,0c-0.6,0.6-1.4,1-2.2,1l0,0C101.9,85.7,101.2,85.4,100.7,84.9z
				 M326.3,77.3c-1.1-1.1-1.1-2.9,0-4.1l0,0c1.1-1.1,2.9-1.1,4.1,0l0,0c1.1,1.1,1.1,2.9,0,4.1l0,0c-0.6,0.6-1.3,0.8-2,0.8l0,0
				C327.6,78.1,326.9,77.8,326.3,77.3z M116.8,68.5c-1-1.2-0.9-3,0.3-4.1l0,0c0,0,0,0,0,0l0,0c1.2-1,3-0.9,4.1,0.3l0,0
				c1,1.2,0.9,3-0.3,4.1v0c-0.5,0.5-1.2,0.7-1.9,0.7l0,0C118.2,69.6,117.4,69.2,116.8,68.5z M309.2,62.6c-1.3-0.9-1.6-2.7-0.6-4l0,0
				c0.9-1.3,2.7-1.6,4-0.6l0,0c1.3,0.9,1.6,2.7,0.6,4l0,0c-0.6,0.8-1.4,1.2-2.3,1.2l0,0C310.3,63.1,309.7,62.9,309.2,62.6z
				 M135.1,54.7c-0.8-1.3-0.4-3.1,0.9-4l0,0c1.3-0.8,3.1-0.4,4,0.9l0,0c0.8,1.3,0.4,3.1-0.9,4l0,0c-0.5,0.3-1,0.4-1.5,0.4l0,0
				C136.6,56,135.7,55.6,135.1,54.7z M290.1,50.5L290.1,50.5c-1.4-0.7-1.9-2.5-1.2-3.9l0,0c0.7-1.4,2.5-1.9,3.9-1.2l0,0
				c1.4,0.7,1.9,2.5,1.2,3.9l0,0c-0.5,1-1.5,1.5-2.5,1.5l0,0C291,50.9,290.5,50.8,290.1,50.5z M155.3,43.7c-0.6-1.5,0-3.2,1.5-3.8
				l0,0c1.5-0.6,3.2,0,3.8,1.5l0,0c0.6,1.5,0,3.2-1.5,3.8l0,0c-0.4,0.2-0.8,0.2-1.1,0.2l0,0C156.9,45.4,155.8,44.8,155.3,43.7z
				 M269.4,41.5c-1.5-0.5-2.3-2.2-1.8-3.7l0,0c0.5-1.5,2.2-2.3,3.7-1.8l0,0c0,0,0,0,0,0l0,0c1.5,0.5,2.3,2.2,1.8,3.7l0,0
				c-0.4,1.2-1.5,1.9-2.7,1.9l0,0C270,41.6,269.7,41.6,269.4,41.5z M176.9,35.8c-0.4-1.5,0.5-3.1,2.1-3.5l0,0
				c1.5-0.4,3.1,0.5,3.5,2.1l0,0c0.4,1.5-0.5,3.1-2.1,3.5l0,0c-0.2,0.1-0.5,0.1-0.7,0.1l0,0C178.4,38,177.3,37.1,176.9,35.8z
				 M247.6,35.6c-1.6-0.3-2.6-1.8-2.3-3.4l0,0c0.3-1.6,1.8-2.6,3.4-2.3l0,0c1.6,0.3,2.6,1.8,2.3,3.4l0,0c-0.3,1.4-1.5,2.3-2.8,2.3
				l0,0C248,35.7,247.8,35.7,247.6,35.6z M199.5,31.3c-0.2-1.6,1-3,2.6-3.2l0,0c0,0,0,0,0,0l0,0c1.6-0.2,3,1,3.2,2.6l0,0
				c0.2,1.6-1,3-2.6,3.2l0,0c-0.1,0-0.2,0-0.3,0l0,0C200.9,33.8,199.6,32.7,199.5,31.3z M225.2,33.1c-1.6-0.1-2.8-1.4-2.8-3l0,0
				c0.1-1.6,1.4-2.8,3-2.8l0,0c1.6,0.1,2.8,1.4,2.8,3l0,0c-0.1,1.6-1.3,2.8-2.9,2.8l0,0C225.3,33.1,225.2,33.1,225.2,33.1z"/>
		</g>
	</g>
</g>
<g>
	<polygon class="st3" points="259.5,351 251.4,329.7 235.3,338.2 	"/>
	<polygon class="st3" points="246.1,316 219.9,247.2 193.6,316.2 219.6,329.9 	"/>
	<polygon class="st3" points="219.6,346.5 172.6,371.3 169.3,380.1 270.5,380.1 267.4,371.7 	"/>
	<polygon class="st3" points="188.4,330 180.5,350.5 203.9,338.2 	"/>
	<path class="st1" d="M172.6,371.3l46.9-24.8l47.8,25.2l3.2,8.3h22.2l-3.8-10l-1.7-4.4L269.9,320l-5.3-13.8L231,218l-4.4-11.5
		c7.1-2.7,12.2-9.6,12.2-17.6c0-10.4-8.5-18.9-18.9-18.9c-10.4,0-18.9,8.5-18.9,18.9c0,8.1,5.1,14.9,12.2,17.6l-4.4,11.5l-33.7,88.4
		l-5.3,13.8l-17.1,45l-2.1,5.5l-3.5,9.3h22.2L172.6,371.3z M259.5,351l-24.2-12.8l16.1-8.5L259.5,351z M219.9,247.2l26.2,68.7
		l-26.5,14l-26-13.7L219.9,247.2z M188.4,330l15.5,8.2l-23.3,12.3L188.4,330z"/>
</g>
</svg>
