<?xml version="1.0" encoding="utf-8"?>
<!-- Generator: Adobe Illustrator 19.2.0, SVG Export Plug-In . SVG Version: 6.00 Build 0)  -->
<svg version="1.1" id="Layer_1" xmlns="http://www.w3.org/2000/svg" xmlns:xlink="http://www.w3.org/1999/xlink" x="0px" y="0px"
	 viewBox="0 0 1040 380.1" style="enable-background:new 0 0 1040 380.1;" xml:space="preserve">
<style type="text/css">
	.st0{fill:#E54E27;}
	.st1{fill:#FFFFFF;stroke:#FFFFFF;stroke-width:2;stroke-miterlimit:10;}
	.st2{fill:#CC3F23;}
	.st3{fill:#BC3822;}
</style>
<rect class="st0" width="1040" height="380.1"/>
<g>
	<circle class="st1" cx="848" cy="340.3" r="1.5"/>
	<circle class="st1" cx="840" cy="340.3" r="1.5"/>
	<circle class="st1" cx="896" cy="340.3" r="1.5"/>
	<circle class="st1" cx="968" cy="340.3" r="1.5"/>
	<circle class="st1" cx="912" cy="340.3" r="1.5"/>
	<circle class="st1" cx="960" cy="340.3" r="1.5"/>
	<circle class="st1" cx="992" cy="340.3" r="1.5"/>
	<circle class="st1" cx="904" cy="340.3" r="1.5"/>
	<circle class="st1" cx="880" cy="340.3" r="1.5"/>
	<circle class="st1" cx="864" cy="340.3" r="1.5"/>
	<circle class="st1" cx="976" cy="340.3" r="1.5"/>
	<circle class="st1" cx="984" cy="340.3" r="1.5"/>
	<circle class="st1" cx="888" cy="340.3" r="1.5"/>
	<circle class="st1" cx="856" cy="340.3" r="1.5"/>
	<circle class="st1" cx="872" cy="340.3" r="1.5"/>
	<circle class="st1" cx="1000" cy="340.3" r="1.5"/>
	<circle class="st1" cx="944" cy="340.3" r="1.5"/>
	<circle class="st1" cx="952" cy="340.3" r="1.5"/>
	<circle class="st1" cx="928" cy="340.3" r="1.5"/>
	<circle class="st1" cx="936" cy="340.3" r="1.5"/>
	<circle class="st1" cx="816" cy="340.3" r="1.5"/>
	<circle class="st1" cx="832" cy="340.3" r="1.5"/>
	<circle class="st1" cx="920" cy="340.3" r="1.5"/>
	<circle class="st1" cx="824" cy="340.3" r="1.5"/>
	<circle class="st1" cx="880" cy="310.3" r="1.5"/>
	<circle class="st1" cx="936" cy="310.3" r="1.5"/>
	<circle class="st1" cx="872" cy="310.3" r="1.5"/>
	<circle class="st1" cx="976" cy="310.3" r="1.5"/>
	<circle class="st1" cx="944" cy="310.3" r="1.5"/>
	<circle class="st1" cx="952" cy="310.3" r="1.5"/>
	<circle class="st1" cx="912" cy="310.3" r="1.5"/>
	<circle class="st1" cx="960" cy="310.3" r="1.5"/>
	<circle class="st1" cx="904" cy="310.3" r="1.5"/>
	<circle class="st1" cx="920" cy="310.3" r="1.5"/>
	<circle class="st1" cx="928" cy="310.3" r="1.5"/>
	<circle class="st1" cx="896" cy="310.3" r="1.5"/>
	<circle class="st1" cx="968" cy="310.3" r="1.5"/>
	<circle class="st1" cx="888" cy="310.3" r="1.5"/>
	<circle class="st1" cx="984" cy="310.3" r="1.5"/>
	<circle class="st1" cx="840" cy="310.3" r="1.5"/>
	<circle class="st1" cx="1000" cy="310.3" r="1.5"/>
	<circle class="st1" cx="856" cy="310.3" r="1.5"/>
	<circle class="st1" cx="992" cy="310.3" r="1.5"/>
	<circle class="st1" cx="848" cy="310.3" r="1.5"/>
	<circle class="st1" cx="824" cy="310.3" r="1.5"/>
	<circle class="st1" cx="832" cy="310.3" r="1.5"/>
	<circle class="st1" cx="864" cy="310.3" r="1.5"/>
	<circle class="st1" cx="816" cy="310.3" r="1.5"/>
	<circle class="st1" cx="824" cy="280.3" r="1.5"/>
	<circle class="st1" cx="928" cy="280.3" r="1.5"/>
	<circle class="st1" cx="960" cy="280.3" r="1.5"/>
	<circle class="st1" cx="912" cy="280.3" r="1.5"/>
	<circle class="st1" cx="1000" cy="280.3" r="1.5"/>
	<circle class="st1" cx="952" cy="280.3" r="1.5"/>
	<circle class="st1" cx="992" cy="280.3" r="1.5"/>
	<circle class="st1" cx="904" cy="280.3" r="1.5"/>
	<circle class="st1" cx="920" cy="280.3" r="1.5"/>
	<circle class="st1" cx="832" cy="280.3" r="1.5"/>
	<circle class="st1" cx="840" cy="280.3" r="1.5"/>
	<circle class="st1" cx="816" cy="280.3" r="1.5"/>
	<circle class="st1" cx="856" cy="280.3" r="1.5"/>
	<circle class="st1" cx="880" cy="280.3" r="1.5"/>
	<circle class="st1" cx="944" cy="280.3" r="1.5"/>
	<circle class="st1" cx="976" cy="280.3" r="1.5"/>
	<circle class="st1" cx="872" cy="280.3" r="1.5"/>
	<circle class="st1" cx="864" cy="280.3" r="1.5"/>
	<circle class="st1" cx="888" cy="280.3" r="1.5"/>
	<circle class="st1" cx="936" cy="280.3" r="1.5"/>
	<circle class="st1" cx="896" cy="280.3" r="1.5"/>
	<circle class="st1" cx="848" cy="280.3" r="1.5"/>
	<circle class="st1" cx="968" cy="280.3" r="1.5"/>
	<circle class="st1" cx="984" cy="280.3" r="1.5"/>
	<circle class="st1" cx="816" cy="250.3" r="1.5"/>
	<circle class="st1" cx="920" cy="250.3" r="1.5"/>
	<circle class="st1" cx="904" cy="250.3" r="1.5"/>
	<circle class="st1" cx="936" cy="250.3" r="1.5"/>
	<circle class="st1" cx="848" cy="250.3" r="1.5"/>
	<circle class="st1" cx="880" cy="250.3" r="1.5"/>
	<circle class="st1" cx="888" cy="250.3" r="1.5"/>
	<circle class="st1" cx="856" cy="250.3" r="1.5"/>
	<circle class="st1" cx="872" cy="250.3" r="1.5"/>
	<circle class="st1" cx="832" cy="250.3" r="1.5"/>
	<circle class="st1" cx="896" cy="250.3" r="1.5"/>
	<circle class="st1" cx="824" cy="250.3" r="1.5"/>
	<circle class="st1" cx="912" cy="250.3" r="1.5"/>
	<circle class="st1" cx="840" cy="250.3" r="1.5"/>
	<circle class="st1" cx="864" cy="250.3" r="1.5"/>
	<circle class="st1" cx="928" cy="250.3" r="1.5"/>
	<circle class="st1" cx="976" cy="250.3" r="1.5"/>
	<circle class="st1" cx="944" cy="250.3" r="1.5"/>
	<circle class="st1" cx="952" cy="250.3" r="1.5"/>
	<circle class="st1" cx="992" cy="250.3" r="1.5"/>
	<circle class="st1" cx="1000" cy="250.3" r="1.5"/>
	<circle class="st1" cx="984" cy="250.3" r="1.5"/>
	<circle class="st1" cx="960" cy="250.3" r="1.5"/>
	<circle class="st1" cx="968" cy="250.3" r="1.5"/>
	<circle class="st1" cx="904" cy="220.3" r="1.5"/>
	<circle class="st1" cx="920" cy="220.3" r="1.5"/>
	<circle class="st1" cx="896" cy="220.3" r="1.5"/>
	<circle class="st1" cx="864" cy="220.3" r="1.5"/>
	<circle class="st1" cx="984" cy="220.3" r="1.5"/>
	<circle class="st1" cx="856" cy="220.3" r="1.5"/>
	<circle class="st1" cx="976" cy="220.3" r="1.5"/>
	<circle class="st1" cx="912" cy="220.3" r="1.5"/>
	<circle class="st1" cx="880" cy="220.3" r="1.5"/>
	<circle class="st1" cx="968" cy="220.3" r="1.5"/>
	<circle class="st1" cx="888" cy="220.3" r="1.5"/>
	<circle class="st1" cx="872" cy="220.3" r="1.5"/>
	<circle class="st1" cx="952" cy="220.3" r="1.5"/>
	<circle class="st1" cx="960" cy="220.3" r="1.5"/>
	<circle class="st1" cx="992" cy="220.3" r="1.5"/>
	<circle class="st1" cx="944" cy="220.3" r="1.5"/>
	<circle class="st1" cx="832" cy="220.3" r="1.5"/>
	<circle class="st1" cx="824" cy="220.3" r="1.5"/>
	<circle class="st1" cx="936" cy="220.3" r="1.5"/>
	<circle class="st1" cx="816" cy="220.3" r="1.5"/>
	<circle class="st1" cx="1000" cy="220.3" r="1.5"/>
	<circle class="st1" cx="928" cy="220.3" r="1.5"/>
	<circle class="st1" cx="848" cy="220.3" r="1.5"/>
	<circle class="st1" cx="840" cy="220.3" r="1.5"/>
	<circle class="st1" cx="888" cy="190.3" r="1.5"/>
	<circle class="st1" cx="856" cy="190.3" r="1.5"/>
	<circle class="st1" cx="976" cy="190.3" r="1.5"/>
	<circle class="st1" cx="960" cy="190.3" r="1.5"/>
	<circle class="st1" cx="816" cy="190.3" r="1.5"/>
	<circle class="st1" cx="1000" cy="190.3" r="1.5"/>
	<circle class="st1" cx="848" cy="190.3" r="1.5"/>
	<circle class="st1" cx="896" cy="190.3" r="1.5"/>
	<circle class="st1" cx="864" cy="190.3" r="1.5"/>
	<circle class="st1" cx="872" cy="190.3" r="1.5"/>
	<circle class="st1" cx="992" cy="190.3" r="1.5"/>
	<circle class="st1" cx="832" cy="190.3" r="1.5"/>
	<circle class="st1" cx="968" cy="190.3" r="1.5"/>
	<circle class="st1" cx="984" cy="190.3" r="1.5"/>
	<circle class="st1" cx="880" cy="190.3" r="1.5"/>
	<circle class="st1" cx="824" cy="190.3" r="1.5"/>
	<circle class="st1" cx="840" cy="190.3" r="1.5"/>
	<circle class="st1" cx="944" cy="190.3" r="1.5"/>
	<circle class="st1" cx="952" cy="190.3" r="1.5"/>
	<circle class="st1" cx="936" cy="190.3" r="1.5"/>
	<circle class="st1" cx="928" cy="190.3" r="1.5"/>
	<circle class="st1" cx="920" cy="190.3" r="1.5"/>
	<circle class="st1" cx="912" cy="190.3" r="1.5"/>
	<circle class="st1" cx="904" cy="190.3" r="1.5"/>
	<circle class="st1" cx="976" cy="160.3" r="1.5"/>
	<circle class="st1" cx="920" cy="160.3" r="1.5"/>
	<circle class="st1" cx="856" cy="160.3" r="1.5"/>
	<circle class="st1" cx="864" cy="160.3" r="1.5"/>
	<circle class="st1" cx="880" cy="160.3" r="1.5"/>
	<circle class="st1" cx="872" cy="160.3" r="1.5"/>
	<circle class="st1" cx="912" cy="160.3" r="1.5"/>
	<circle class="st1" cx="968" cy="160.3" r="1.5"/>
	<circle class="st1" cx="824" cy="160.3" r="1.5"/>
	<circle class="st1" cx="992" cy="160.3" r="1.5"/>
	<circle class="st1" cx="816" cy="160.3" r="1.5"/>
	<circle class="st1" cx="936" cy="160.3" r="1.5"/>
	<circle class="st1" cx="1000" cy="160.3" r="1.5"/>
	<circle class="st1" cx="984" cy="160.3" r="1.5"/>
	<circle class="st1" cx="840" cy="160.3" r="1.5"/>
	<circle class="st1" cx="848" cy="160.3" r="1.5"/>
	<circle class="st1" cx="928" cy="160.3" r="1.5"/>
	<circle class="st1" cx="832" cy="160.3" r="1.5"/>
	<circle class="st1" cx="944" cy="160.3" r="1.5"/>
	<circle class="st1" cx="952" cy="160.3" r="1.5"/>
	<circle class="st1" cx="904" cy="160.3" r="1.5"/>
	<circle class="st1" cx="960" cy="160.3" r="1.5"/>
	<circle class="st1" cx="896" cy="160.3" r="1.5"/>
	<circle class="st1" cx="888" cy="160.3" r="1.5"/>
	<circle class="st1" cx="896" cy="130.3" r="1.5"/>
	<circle class="st1" cx="864" cy="130.3" r="1.5"/>
	<circle class="st1" cx="888" cy="130.3" r="1.5"/>
	<circle class="st1" cx="832" cy="130.3" r="1.5"/>
	<circle class="st1" cx="840" cy="130.3" r="1.5"/>
	<circle class="st1" cx="928" cy="130.3" r="1.5"/>
	<circle class="st1" cx="856" cy="130.3" r="1.5"/>
	<circle class="st1" cx="976" cy="130.3" r="1.5"/>
	<circle class="st1" cx="920" cy="130.3" r="1.5"/>
	<circle class="st1" cx="848" cy="130.3" r="1.5"/>
	<circle class="st1" cx="960" cy="130.3" r="1.5"/>
	<circle class="st1" cx="984" cy="130.3" r="1.5"/>
	<circle class="st1" cx="944" cy="130.3" r="1.5"/>
	<circle class="st1" cx="992" cy="130.3" r="1.5"/>
	<circle class="st1" cx="904" cy="130.3" r="1.5"/>
	<circle class="st1" cx="968" cy="130.3" r="1.5"/>
	<circle class="st1" cx="936" cy="130.3" r="1.5"/>
	<circle class="st1" cx="816" cy="130.3" r="1.5"/>
	<circle class="st1" cx="880" cy="130.3" r="1.5"/>
	<circle class="st1" cx="912" cy="130.3" r="1.5"/>
	<circle class="st1" cx="952" cy="130.3" r="1.5"/>
	<circle class="st1" cx="1000" cy="130.3" r="1.5"/>
	<circle class="st1" cx="872" cy="130.3" r="1.5"/>
	<circle class="st1" cx="824" cy="130.3" r="1.5"/>
	<circle class="st1" cx="848" cy="100.3" r="1.5"/>
	<circle class="st1" cx="1000" cy="100.3" r="1.5"/>
	<circle class="st1" cx="936" cy="100.3" r="1.5"/>
	<circle class="st1" cx="896" cy="100.3" r="1.5"/>
	<circle class="st1" cx="832" cy="100.3" r="1.5"/>
	<circle class="st1" cx="992" cy="100.3" r="1.5"/>
	<circle class="st1" cx="824" cy="100.3" r="1.5"/>
	<circle class="st1" cx="928" cy="100.3" r="1.5"/>
	<circle class="st1" cx="816" cy="100.3" r="1.5"/>
	<circle class="st1" cx="984" cy="100.3" r="1.5"/>
	<circle class="st1" cx="840" cy="100.3" r="1.5"/>
	<circle class="st1" cx="904" cy="100.3" r="1.5"/>
	<circle class="st1" cx="944" cy="100.3" r="1.5"/>
	<circle class="st1" cx="960" cy="100.3" r="1.5"/>
	<circle class="st1" cx="856" cy="100.3" r="1.5"/>
	<circle class="st1" cx="968" cy="100.3" r="1.5"/>
	<circle class="st1" cx="920" cy="100.3" r="1.5"/>
	<circle class="st1" cx="912" cy="100.3" r="1.5"/>
	<circle class="st1" cx="888" cy="100.3" r="1.5"/>
	<circle class="st1" cx="864" cy="100.3" r="1.5"/>
	<circle class="st1" cx="952" cy="100.3" r="1.5"/>
	<circle class="st1" cx="872" cy="100.3" r="1.5"/>
	<circle class="st1" cx="976" cy="100.3" r="1.5"/>
	<circle class="st1" cx="880" cy="100.3" r="1.5"/>
	<circle class="st1" cx="832" cy="70.3" r="1.5"/>
	<circle class="st1" cx="912" cy="70.3" r="1.5"/>
	<circle class="st1" cx="864" cy="70.3" r="1.5"/>
	<circle class="st1" cx="928" cy="70.3" r="1.5"/>
	<circle class="st1" cx="968" cy="70.3" r="1.5"/>
	<circle class="st1" cx="824" cy="70.3" r="1.5"/>
	<circle class="st1" cx="880" cy="70.3" r="1.5"/>
	<circle class="st1" cx="960" cy="70.3" r="1.5"/>
	<circle class="st1" cx="1000" cy="70.3" r="1.5"/>
	<circle class="st1" cx="872" cy="70.3" r="1.5"/>
	<circle class="st1" cx="896" cy="70.3" r="1.5"/>
	<circle class="st1" cx="992" cy="70.3" r="1.5"/>
	<circle class="st1" cx="816" cy="70.3" r="1.5"/>
	<circle class="st1" cx="920" cy="70.3" r="1.5"/>
	<circle class="st1" cx="888" cy="70.3" r="1.5"/>
	<circle class="st1" cx="848" cy="70.3" r="1.5"/>
	<circle class="st1" cx="840" cy="70.3" r="1.5"/>
	<circle class="st1" cx="976" cy="70.3" r="1.5"/>
	<circle class="st1" cx="952" cy="70.3" r="1.5"/>
	<circle class="st1" cx="856" cy="70.3" r="1.5"/>
	<circle class="st1" cx="984" cy="70.3" r="1.5"/>
	<circle class="st1" cx="936" cy="70.3" r="1.5"/>
	<circle class="st1" cx="904" cy="70.3" r="1.5"/>
	<circle class="st1" cx="944" cy="70.3" r="1.5"/>
	<circle class="st1" cx="1000" cy="40.3" r="1.5"/>
	<circle class="st1" cx="816" cy="40.3" r="1.5"/>
	<circle class="st1" cx="872" cy="40.3" r="1.5"/>
	<circle class="st1" cx="952" cy="40.3" r="1.5"/>
	<circle class="st1" cx="976" cy="40.3" r="1.5"/>
	<circle class="st1" cx="848" cy="40.3" r="1.5"/>
	<circle class="st1" cx="896" cy="40.3" r="1.5"/>
	<circle class="st1" cx="880" cy="40.3" r="1.5"/>
	<circle class="st1" cx="920" cy="40.3" r="1.5"/>
	<circle class="st1" cx="960" cy="40.3" r="1.5"/>
	<circle class="st1" cx="968" cy="40.3" r="1.5"/>
	<circle class="st1" cx="824" cy="40.3" r="1.5"/>
	<circle class="st1" cx="944" cy="40.3" r="1.5"/>
	<circle class="st1" cx="832" cy="40.3" r="1.5"/>
	<circle class="st1" cx="912" cy="40.3" r="1.5"/>
	<circle class="st1" cx="984" cy="40.3" r="1.5"/>
	<circle class="st1" cx="936" cy="40.3" r="1.5"/>
	<circle class="st1" cx="864" cy="40.3" r="1.5"/>
	<circle class="st1" cx="856" cy="40.3" r="1.5"/>
	<circle class="st1" cx="888" cy="40.3" r="1.5"/>
	<circle class="st1" cx="992" cy="40.3" r="1.5"/>
	<circle class="st1" cx="840" cy="40.3" r="1.5"/>
	<circle class="st1" cx="928" cy="40.3" r="1.5"/>
	<circle class="st1" cx="904" cy="40.3" r="1.5"/>
	<circle class="st1" cx="744" cy="340.3" r="1.5"/>
	<circle class="st1" cx="616" cy="340.3" r="1.5"/>
	<circle class="st1" cx="760" cy="340.3" r="1.5"/>
	<circle class="st1" cx="656" cy="340.3" r="1.5"/>
	<circle class="st1" cx="672" cy="340.3" r="1.5"/>
	<circle class="st1" cx="680" cy="340.3" r="1.5"/>
	<circle class="st1" cx="664" cy="340.3" r="1.5"/>
	<circle class="st1" cx="752" cy="340.3" r="1.5"/>
	<circle class="st1" cx="608" cy="340.3" r="1.5"/>
	<circle class="st1" cx="688" cy="340.3" r="1.5"/>
	<circle class="st1" cx="704" cy="340.3" r="1.5"/>
	<circle class="st1" cx="768" cy="340.3" r="1.5"/>
	<circle class="st1" cx="712" cy="340.3" r="1.5"/>
	<circle class="st1" cx="728" cy="340.3" r="1.5"/>
	<circle class="st1" cx="696" cy="340.3" r="1.5"/>
	<circle class="st1" cx="720" cy="340.3" r="1.5"/>
	<circle class="st1" cx="736" cy="340.3" r="1.5"/>
	<circle class="st1" cx="600" cy="340.3" r="1.5"/>
	<circle class="st1" cx="776" cy="340.3" r="1.5"/>
	<circle class="st1" cx="624" cy="340.3" r="1.5"/>
	<circle class="st1" cx="632" cy="340.3" r="1.5"/>
	<circle class="st1" cx="784" cy="340.3" r="1.5"/>
	<circle class="st1" cx="640" cy="340.3" r="1.5"/>
	<circle class="st1" cx="648" cy="340.3" r="1.5"/>
	<circle class="st1" cx="768" cy="310.3" r="1.5"/>
	<circle class="st1" cx="680" cy="310.3" r="1.5"/>
	<circle class="st1" cx="696" cy="310.3" r="1.5"/>
	<circle class="st1" cx="656" cy="310.3" r="1.5"/>
	<circle class="st1" cx="736" cy="310.3" r="1.5"/>
	<circle class="st1" cx="776" cy="310.3" r="1.5"/>
	<circle class="st1" cx="608" cy="310.3" r="1.5"/>
	<circle class="st1" cx="784" cy="310.3" r="1.5"/>
	<circle class="st1" cx="688" cy="310.3" r="1.5"/>
	<circle class="st1" cx="648" cy="310.3" r="1.5"/>
	<circle class="st1" cx="720" cy="310.3" r="1.5"/>
	<circle class="st1" cx="728" cy="310.3" r="1.5"/>
	<circle class="st1" cx="624" cy="310.3" r="1.5"/>
	<circle class="st1" cx="632" cy="310.3" r="1.5"/>
	<circle class="st1" cx="640" cy="310.3" r="1.5"/>
	<circle class="st1" cx="664" cy="310.3" r="1.5"/>
	<circle class="st1" cx="752" cy="310.3" r="1.5"/>
	<circle class="st1" cx="600" cy="310.3" r="1.5"/>
	<circle class="st1" cx="712" cy="310.3" r="1.5"/>
	<circle class="st1" cx="704" cy="310.3" r="1.5"/>
	<circle class="st1" cx="672" cy="310.3" r="1.5"/>
	<circle class="st1" cx="616" cy="310.3" r="1.5"/>
	<circle class="st1" cx="760" cy="310.3" r="1.5"/>
	<circle class="st1" cx="744" cy="310.3" r="1.5"/>
	<circle class="st1" cx="696" cy="280.3" r="1.5"/>
	<circle class="st1" cx="624" cy="280.3" r="1.5"/>
	<circle class="st1" cx="664" cy="280.3" r="1.5"/>
	<circle class="st1" cx="656" cy="280.3" r="1.5"/>
	<circle class="st1" cx="616" cy="280.3" r="1.5"/>
	<circle class="st1" cx="640" cy="280.3" r="1.5"/>
	<circle class="st1" cx="648" cy="280.3" r="1.5"/>
	<circle class="st1" cx="704" cy="280.3" r="1.5"/>
	<circle class="st1" cx="680" cy="280.3" r="1.5"/>
	<circle class="st1" cx="688" cy="280.3" r="1.5"/>
	<circle class="st1" cx="672" cy="280.3" r="1.5"/>
	<circle class="st1" cx="632" cy="280.3" r="1.5"/>
	<circle class="st1" cx="760" cy="280.3" r="1.5"/>
	<circle class="st1" cx="744" cy="280.3" r="1.5"/>
	<circle class="st1" cx="768" cy="280.3" r="1.5"/>
	<circle class="st1" cx="720" cy="280.3" r="1.5"/>
	<circle class="st1" cx="736" cy="280.3" r="1.5"/>
	<circle class="st1" cx="776" cy="280.3" r="1.5"/>
	<circle class="st1" cx="752" cy="280.3" r="1.5"/>
	<circle class="st1" cx="600" cy="280.3" r="1.5"/>
	<circle class="st1" cx="728" cy="280.3" r="1.5"/>
	<circle class="st1" cx="608" cy="280.3" r="1.5"/>
	<circle class="st1" cx="784" cy="280.3" r="1.5"/>
	<circle class="st1" cx="712" cy="280.3" r="1.5"/>
	<circle class="st1" cx="752" cy="250.3" r="1.5"/>
	<circle class="st1" cx="776" cy="250.3" r="1.5"/>
	<circle class="st1" cx="768" cy="250.3" r="1.5"/>
	<circle class="st1" cx="600" cy="250.3" r="1.5"/>
	<circle class="st1" cx="744" cy="250.3" r="1.5"/>
	<circle class="st1" cx="664" cy="250.3" r="1.5"/>
	<circle class="st1" cx="624" cy="250.3" r="1.5"/>
	<circle class="st1" cx="640" cy="250.3" r="1.5"/>
	<circle class="st1" cx="656" cy="250.3" r="1.5"/>
	<circle class="st1" cx="760" cy="250.3" r="1.5"/>
	<circle class="st1" cx="616" cy="250.3" r="1.5"/>
	<circle class="st1" cx="784" cy="250.3" r="1.5"/>
	<circle class="st1" cx="632" cy="250.3" r="1.5"/>
	<circle class="st1" cx="648" cy="250.3" r="1.5"/>
	<circle class="st1" cx="680" cy="250.3" r="1.5"/>
	<circle class="st1" cx="712" cy="250.3" r="1.5"/>
	<circle class="st1" cx="608" cy="250.3" r="1.5"/>
	<circle class="st1" cx="696" cy="250.3" r="1.5"/>
	<circle class="st1" cx="720" cy="250.3" r="1.5"/>
	<circle class="st1" cx="736" cy="250.3" r="1.5"/>
	<circle class="st1" cx="728" cy="250.3" r="1.5"/>
	<circle class="st1" cx="704" cy="250.3" r="1.5"/>
	<circle class="st1" cx="672" cy="250.3" r="1.5"/>
	<circle class="st1" cx="688" cy="250.3" r="1.5"/>
	<circle class="st1" cx="608" cy="220.3" r="1.5"/>
	<circle class="st1" cx="768" cy="220.3" r="1.5"/>
	<circle class="st1" cx="640" cy="220.3" r="1.5"/>
	<circle class="st1" cx="736" cy="220.3" r="1.5"/>
	<circle class="st1" cx="624" cy="220.3" r="1.5"/>
	<circle class="st1" cx="616" cy="220.3" r="1.5"/>
	<circle class="st1" cx="712" cy="220.3" r="1.5"/>
	<circle class="st1" cx="784" cy="220.3" r="1.5"/>
	<circle class="st1" cx="696" cy="220.3" r="1.5"/>
	<circle class="st1" cx="632" cy="220.3" r="1.5"/>
	<circle class="st1" cx="776" cy="220.3" r="1.5"/>
	<circle class="st1" cx="680" cy="220.3" r="1.5"/>
	<circle class="st1" cx="656" cy="220.3" r="1.5"/>
	<circle class="st1" cx="688" cy="220.3" r="1.5"/>
	<circle class="st1" cx="728" cy="220.3" r="1.5"/>
	<circle class="st1" cx="600" cy="220.3" r="1.5"/>
	<circle class="st1" cx="672" cy="220.3" r="1.5"/>
	<circle class="st1" cx="664" cy="220.3" r="1.5"/>
	<circle class="st1" cx="744" cy="220.3" r="1.5"/>
	<circle class="st1" cx="720" cy="220.3" r="1.5"/>
	<circle class="st1" cx="752" cy="220.3" r="1.5"/>
	<circle class="st1" cx="704" cy="220.3" r="1.5"/>
	<circle class="st1" cx="760" cy="220.3" r="1.5"/>
	<circle class="st1" cx="648" cy="220.3" r="1.5"/>
	<circle class="st1" cx="600" cy="190.3" r="1.5"/>
	<circle class="st1" cx="616" cy="190.3" r="1.5"/>
	<circle class="st1" cx="608" cy="190.3" r="1.5"/>
	<circle class="st1" cx="672" cy="190.3" r="1.5"/>
	<circle class="st1" cx="736" cy="190.3" r="1.5"/>
	<circle class="st1" cx="744" cy="190.3" r="1.5"/>
	<circle class="st1" cx="720" cy="190.3" r="1.5"/>
	<circle class="st1" cx="752" cy="190.3" r="1.5"/>
	<circle class="st1" cx="712" cy="190.3" r="1.5"/>
	<circle class="st1" cx="728" cy="190.3" r="1.5"/>
	<circle class="st1" cx="784" cy="190.3" r="1.5"/>
	<circle class="st1" cx="776" cy="190.3" r="1.5"/>
	<circle class="st1" cx="768" cy="190.3" r="1.5"/>
	<circle class="st1" cx="760" cy="190.3" r="1.5"/>
	<circle class="st1" cx="688" cy="190.3" r="1.5"/>
	<circle class="st1" cx="648" cy="190.3" r="1.5"/>
	<circle class="st1" cx="640" cy="190.3" r="1.5"/>
	<circle class="st1" cx="632" cy="190.3" r="1.5"/>
	<circle class="st1" cx="704" cy="190.3" r="1.5"/>
	<circle class="st1" cx="656" cy="190.3" r="1.5"/>
	<circle class="st1" cx="680" cy="190.3" r="1.5"/>
	<circle class="st1" cx="624" cy="190.3" r="1.5"/>
	<circle class="st1" cx="664" cy="190.3" r="1.5"/>
	<circle class="st1" cx="696" cy="190.3" r="1.5"/>
	<circle class="st1" cx="484" cy="340.3" r="1.5"/>
	<circle class="st1" cx="540" cy="340.3" r="1.5"/>
	<circle class="st1" cx="516" cy="340.3" r="1.5"/>
	<circle class="st1" cx="428" cy="340.3" r="1.5"/>
	<circle class="st1" cx="556" cy="340.3" r="1.5"/>
	<circle class="st1" cx="404" cy="340.3" r="1.5"/>
	<circle class="st1" cx="396" cy="340.3" r="1.5"/>
	<circle class="st1" cx="420" cy="340.3" r="1.5"/>
	<circle class="st1" cx="452" cy="340.3" r="1.5"/>
	<circle class="st1" cx="548" cy="340.3" r="1.5"/>
	<circle class="st1" cx="524" cy="340.3" r="1.5"/>
	<circle class="st1" cx="460" cy="340.3" r="1.5"/>
	<circle class="st1" cx="476" cy="340.3" r="1.5"/>
	<circle class="st1" cx="444" cy="340.3" r="1.5"/>
	<circle class="st1" cx="500" cy="340.3" r="1.5"/>
	<circle class="st1" cx="436" cy="340.3" r="1.5"/>
	<circle class="st1" cx="532" cy="340.3" r="1.5"/>
	<circle class="st1" cx="492" cy="340.3" r="1.5"/>
	<circle class="st1" cx="380" cy="340.3" r="1.5"/>
	<circle class="st1" cx="468" cy="340.3" r="1.5"/>
	<circle class="st1" cx="508" cy="340.3" r="1.5"/>
	<circle class="st1" cx="564" cy="340.3" r="1.5"/>
	<circle class="st1" cx="412" cy="340.3" r="1.5"/>
	<circle class="st1" cx="388" cy="340.3" r="1.5"/>
	<circle class="st1" cx="452" cy="310.3" r="1.5"/>
	<circle class="st1" cx="412" cy="310.3" r="1.5"/>
	<circle class="st1" cx="524" cy="310.3" r="1.5"/>
	<circle class="st1" cx="516" cy="310.3" r="1.5"/>
	<circle class="st1" cx="444" cy="310.3" r="1.5"/>
	<circle class="st1" cx="492" cy="310.3" r="1.5"/>
	<circle class="st1" cx="500" cy="310.3" r="1.5"/>
	<circle class="st1" cx="436" cy="310.3" r="1.5"/>
	<circle class="st1" cx="428" cy="310.3" r="1.5"/>
	<circle class="st1" cx="532" cy="310.3" r="1.5"/>
	<circle class="st1" cx="508" cy="310.3" r="1.5"/>
	<circle class="st1" cx="484" cy="310.3" r="1.5"/>
	<circle class="st1" cx="420" cy="310.3" r="1.5"/>
	<circle class="st1" cx="556" cy="310.3" r="1.5"/>
	<circle class="st1" cx="540" cy="310.3" r="1.5"/>
	<circle class="st1" cx="388" cy="310.3" r="1.5"/>
	<circle class="st1" cx="396" cy="310.3" r="1.5"/>
	<circle class="st1" cx="468" cy="310.3" r="1.5"/>
	<circle class="st1" cx="460" cy="310.3" r="1.5"/>
	<circle class="st1" cx="380" cy="310.3" r="1.5"/>
	<circle class="st1" cx="564" cy="310.3" r="1.5"/>
	<circle class="st1" cx="548" cy="310.3" r="1.5"/>
	<circle class="st1" cx="404" cy="310.3" r="1.5"/>
	<circle class="st1" cx="476" cy="310.3" r="1.5"/>
	<circle class="st1" cx="444" cy="280.3" r="1.5"/>
	<circle class="st1" cx="428" cy="280.3" r="1.5"/>
	<circle class="st1" cx="404" cy="280.3" r="1.5"/>
	<circle class="st1" cx="412" cy="280.3" r="1.5"/>
	<circle class="st1" cx="500" cy="280.3" r="1.5"/>
	<circle class="st1" cx="380" cy="280.3" r="1.5"/>
	<circle class="st1" cx="564" cy="280.3" r="1.5"/>
	<circle class="st1" cx="492" cy="280.3" r="1.5"/>
	<circle class="st1" cx="436" cy="280.3" r="1.5"/>
	<circle class="st1" cx="476" cy="280.3" r="1.5"/>
	<circle class="st1" cx="460" cy="280.3" r="1.5"/>
	<circle class="st1" cx="556" cy="280.3" r="1.5"/>
	<circle class="st1" cx="540" cy="280.3" r="1.5"/>
	<circle class="st1" cx="548" cy="280.3" r="1.5"/>
	<circle class="st1" cx="508" cy="280.3" r="1.5"/>
	<circle class="st1" cx="396" cy="280.3" r="1.5"/>
	<circle class="st1" cx="516" cy="280.3" r="1.5"/>
	<circle class="st1" cx="524" cy="280.3" r="1.5"/>
	<circle class="st1" cx="452" cy="280.3" r="1.5"/>
	<circle class="st1" cx="484" cy="280.3" r="1.5"/>
	<circle class="st1" cx="388" cy="280.3" r="1.5"/>
	<circle class="st1" cx="468" cy="280.3" r="1.5"/>
	<circle class="st1" cx="532" cy="280.3" r="1.5"/>
	<circle class="st1" cx="420" cy="280.3" r="1.5"/>
	<circle class="st1" cx="460" cy="250.3" r="1.5"/>
	<circle class="st1" cx="468" cy="250.3" r="1.5"/>
	<circle class="st1" cx="484" cy="250.3" r="1.5"/>
	<circle class="st1" cx="476" cy="250.3" r="1.5"/>
	<circle class="st1" cx="444" cy="250.3" r="1.5"/>
	<circle class="st1" cx="452" cy="250.3" r="1.5"/>
	<circle class="st1" cx="412" cy="250.3" r="1.5"/>
	<circle class="st1" cx="404" cy="250.3" r="1.5"/>
	<circle class="st1" cx="524" cy="250.3" r="1.5"/>
	<circle class="st1" cx="396" cy="250.3" r="1.5"/>
	<circle class="st1" cx="532" cy="250.3" r="1.5"/>
	<circle class="st1" cx="540" cy="250.3" r="1.5"/>
	<circle class="st1" cx="380" cy="250.3" r="1.5"/>
	<circle class="st1" cx="564" cy="250.3" r="1.5"/>
	<circle class="st1" cx="492" cy="250.3" r="1.5"/>
	<circle class="st1" cx="556" cy="250.3" r="1.5"/>
	<circle class="st1" cx="388" cy="250.3" r="1.5"/>
	<circle class="st1" cx="548" cy="250.3" r="1.5"/>
	<circle class="st1" cx="508" cy="250.3" r="1.5"/>
	<circle class="st1" cx="428" cy="250.3" r="1.5"/>
	<circle class="st1" cx="500" cy="250.3" r="1.5"/>
	<circle class="st1" cx="436" cy="250.3" r="1.5"/>
	<circle class="st1" cx="516" cy="250.3" r="1.5"/>
	<circle class="st1" cx="420" cy="250.3" r="1.5"/>
	<circle class="st1" cx="412" cy="220.3" r="1.5"/>
	<circle class="st1" cx="380" cy="220.3" r="1.5"/>
	<circle class="st1" cx="420" cy="220.3" r="1.5"/>
	<circle class="st1" cx="460" cy="220.3" r="1.5"/>
	<circle class="st1" cx="404" cy="220.3" r="1.5"/>
	<circle class="st1" cx="436" cy="220.3" r="1.5"/>
	<circle class="st1" cx="428" cy="220.3" r="1.5"/>
	<circle class="st1" cx="452" cy="220.3" r="1.5"/>
	<circle class="st1" cx="396" cy="220.3" r="1.5"/>
	<circle class="st1" cx="388" cy="220.3" r="1.5"/>
	<circle class="st1" cx="444" cy="220.3" r="1.5"/>
	<circle class="st1" cx="532" cy="220.3" r="1.5"/>
	<circle class="st1" cx="548" cy="220.3" r="1.5"/>
	<circle class="st1" cx="524" cy="220.3" r="1.5"/>
	<circle class="st1" cx="476" cy="220.3" r="1.5"/>
	<circle class="st1" cx="540" cy="220.3" r="1.5"/>
	<circle class="st1" cx="508" cy="220.3" r="1.5"/>
	<circle class="st1" cx="500" cy="220.3" r="1.5"/>
	<circle class="st1" cx="492" cy="220.3" r="1.5"/>
	<circle class="st1" cx="516" cy="220.3" r="1.5"/>
	<circle class="st1" cx="484" cy="220.3" r="1.5"/>
	<circle class="st1" cx="556" cy="220.3" r="1.5"/>
	<circle class="st1" cx="564" cy="220.3" r="1.5"/>
	<circle class="st1" cx="468" cy="220.3" r="1.5"/>
	<circle class="st1" cx="516" cy="190.3" r="1.5"/>
	<circle class="st1" cx="380" cy="190.3" r="1.5"/>
	<circle class="st1" cx="412" cy="190.3" r="1.5"/>
	<circle class="st1" cx="508" cy="190.3" r="1.5"/>
	<circle class="st1" cx="420" cy="190.3" r="1.5"/>
	<circle class="st1" cx="564" cy="190.3" r="1.5"/>
	<circle class="st1" cx="500" cy="190.3" r="1.5"/>
	<circle class="st1" cx="532" cy="190.3" r="1.5"/>
	<circle class="st1" cx="548" cy="190.3" r="1.5"/>
	<circle class="st1" cx="396" cy="190.3" r="1.5"/>
	<circle class="st1" cx="556" cy="190.3" r="1.5"/>
	<circle class="st1" cx="388" cy="190.3" r="1.5"/>
	<circle class="st1" cx="540" cy="190.3" r="1.5"/>
	<circle class="st1" cx="404" cy="190.3" r="1.5"/>
	<circle class="st1" cx="524" cy="190.3" r="1.5"/>
	<circle class="st1" cx="428" cy="190.3" r="1.5"/>
	<circle class="st1" cx="484" cy="190.3" r="1.5"/>
	<circle class="st1" cx="452" cy="190.3" r="1.5"/>
	<circle class="st1" cx="492" cy="190.3" r="1.5"/>
	<circle class="st1" cx="436" cy="190.3" r="1.5"/>
	<circle class="st1" cx="460" cy="190.3" r="1.5"/>
	<circle class="st1" cx="476" cy="190.3" r="1.5"/>
	<circle class="st1" cx="468" cy="190.3" r="1.5"/>
	<circle class="st1" cx="444" cy="190.3" r="1.5"/>
	<circle class="st1" cx="524" cy="160.3" r="1.5"/>
	<circle class="st1" cx="476" cy="160.3" r="1.5"/>
	<circle class="st1" cx="532" cy="160.3" r="1.5"/>
	<circle class="st1" cx="420" cy="160.3" r="1.5"/>
	<circle class="st1" cx="404" cy="160.3" r="1.5"/>
	<circle class="st1" cx="548" cy="160.3" r="1.5"/>
	<circle class="st1" cx="500" cy="160.3" r="1.5"/>
	<circle class="st1" cx="468" cy="160.3" r="1.5"/>
	<circle class="st1" cx="540" cy="160.3" r="1.5"/>
	<circle class="st1" cx="388" cy="160.3" r="1.5"/>
	<circle class="st1" cx="396" cy="160.3" r="1.5"/>
	<circle class="st1" cx="564" cy="160.3" r="1.5"/>
	<circle class="st1" cx="444" cy="160.3" r="1.5"/>
	<circle class="st1" cx="452" cy="160.3" r="1.5"/>
	<circle class="st1" cx="492" cy="160.3" r="1.5"/>
	<circle class="st1" cx="436" cy="160.3" r="1.5"/>
	<circle class="st1" cx="412" cy="160.3" r="1.5"/>
	<circle class="st1" cx="556" cy="160.3" r="1.5"/>
	<circle class="st1" cx="460" cy="160.3" r="1.5"/>
	<circle class="st1" cx="508" cy="160.3" r="1.5"/>
	<circle class="st1" cx="428" cy="160.3" r="1.5"/>
	<circle class="st1" cx="380" cy="160.3" r="1.5"/>
	<circle class="st1" cx="516" cy="160.3" r="1.5"/>
	<circle class="st1" cx="484" cy="160.3" r="1.5"/>
	<circle class="st1" cx="564" cy="130.3" r="1.5"/>
	<circle class="st1" cx="460" cy="130.3" r="1.5"/>
	<circle class="st1" cx="388" cy="130.3" r="1.5"/>
	<circle class="st1" cx="452" cy="130.3" r="1.5"/>
	<circle class="st1" cx="548" cy="130.3" r="1.5"/>
	<circle class="st1" cx="380" cy="130.3" r="1.5"/>
	<circle class="st1" cx="556" cy="130.3" r="1.5"/>
	<circle class="st1" cx="508" cy="130.3" r="1.5"/>
	<circle class="st1" cx="484" cy="130.3" r="1.5"/>
	<circle class="st1" cx="420" cy="130.3" r="1.5"/>
	<circle class="st1" cx="412" cy="130.3" r="1.5"/>
	<circle class="st1" cx="436" cy="130.3" r="1.5"/>
	<circle class="st1" cx="428" cy="130.3" r="1.5"/>
	<circle class="st1" cx="492" cy="130.3" r="1.5"/>
	<circle class="st1" cx="500" cy="130.3" r="1.5"/>
	<circle class="st1" cx="404" cy="130.3" r="1.5"/>
	<circle class="st1" cx="396" cy="130.3" r="1.5"/>
	<circle class="st1" cx="444" cy="130.3" r="1.5"/>
	<circle class="st1" cx="516" cy="130.3" r="1.5"/>
	<circle class="st1" cx="540" cy="130.3" r="1.5"/>
	<circle class="st1" cx="532" cy="130.3" r="1.5"/>
	<circle class="st1" cx="468" cy="130.3" r="1.5"/>
	<circle class="st1" cx="524" cy="130.3" r="1.5"/>
	<circle class="st1" cx="476" cy="130.3" r="1.5"/>
</g>
<g>
	<g>
		<path class="st2" d="M174.4,66.3c-75.9,0-137.2,61.4-137.2,137.2s61.4,137.2,137.2,137.2s137.2-61.4,137.2-137.2H174.4V66.3z"/>
		<g>
			<path class="st3" d="M187.3,41.7v148.9h148.9C336.2,108.2,269.4,41.7,187.3,41.7z"/>
		</g>
	</g>
</g>
</svg>
