<?xml version="1.0" encoding="utf-8"?>
<!-- Generator: Adobe Illustrator 19.2.0, SVG Export Plug-In . SVG Version: 6.00 Build 0)  -->
<svg version="1.1" id="Layer_1" xmlns="http://www.w3.org/2000/svg" xmlns:xlink="http://www.w3.org/1999/xlink" x="0px" y="0px"
	 viewBox="0 0 80 80" style="enable-background:new 0 0 80 80;" xml:space="preserve">
<style type="text/css">
	.st0{fill:#6DA523;}
	.st1{fill:#FFFFFF;}
</style>
<g>
	<circle class="st0" cx="40" cy="40" r="39.7"/>
	<path class="st1" d="M61.5,25.5c-1.4-1.4-3.8-1.4-5.2,0L31.7,50.2l-8.4-8.4c-1.3-1.3-3.5-1.3-4.9,0l0,0c-1.3,1.3-1.3,3.5,0,4.9
		l11.2,11.2l0,0c1.3,1.3,3.5,1.3,4.9,0l0,0l0,0l0,0l27.1-27.1C63,29.3,63,27,61.5,25.5z"/>
	<g>
		<path class="st1" d="M38.9,74c-0.3,0-0.5-0.2-0.5-0.5l0,0c0-0.3,0.2-0.5,0.5-0.5l0,0c0.3,0,0.5,0.2,0.5,0.5l0,0
			C39.4,73.8,39.2,74,38.9,74L38.9,74L38.9,74z M42.3,73.4c0-0.3,0.2-0.5,0.4-0.5l0,0c0.3,0,0.5,0.2,0.5,0.4l0,0
			c0,0.3-0.2,0.5-0.4,0.5l0,0c0,0,0,0,0,0l0,0C42.5,73.9,42.3,73.7,42.3,73.4z M35,73.6C35,73.6,35,73.6,35,73.6L35,73.6
			c-0.3,0-0.4-0.3-0.4-0.5l0,0c0-0.3,0.3-0.4,0.5-0.4l0,0c0.3,0,0.4,0.3,0.4,0.5l0,0C35.5,73.5,35.3,73.6,35,73.6L35,73.6
			C35.1,73.6,35,73.6,35,73.6z M46.1,73c-0.1-0.3,0.1-0.5,0.4-0.6l0,0c0.3-0.1,0.5,0.1,0.6,0.4l0,0c0.1,0.3-0.1,0.5-0.4,0.6l0,0
			c0,0-0.1,0-0.1,0l0,0C46.3,73.4,46.1,73.2,46.1,73z M31.2,72.8c-0.3-0.1-0.4-0.3-0.3-0.6l0,0c0.1-0.3,0.3-0.4,0.6-0.3l0,0
			c0.3,0.1,0.4,0.3,0.3,0.6l0,0c-0.1,0.2-0.2,0.4-0.5,0.4l0,0C31.3,72.9,31.2,72.8,31.2,72.8z M49.8,72.1c-0.1-0.3,0.1-0.5,0.3-0.6
			l0,0c0.2-0.1,0.5,0.1,0.6,0.3l0,0c0.1,0.3-0.1,0.5-0.3,0.6l0,0c0,0-0.1,0-0.1,0l0,0C50,72.4,49.9,72.3,49.8,72.1z M27.5,71.6
			c-0.2-0.1-0.4-0.4-0.3-0.6l0,0c0.1-0.2,0.4-0.4,0.6-0.3l0,0c0.2,0.1,0.4,0.4,0.3,0.6l0,0c-0.1,0.2-0.3,0.3-0.4,0.3l0,0
			C27.6,71.6,27.6,71.6,27.5,71.6z M53.4,70.7c-0.1-0.2,0-0.5,0.2-0.6l0,0c0.2-0.1,0.5,0,0.6,0.2l0,0c0.1,0.2,0,0.5-0.2,0.6l0,0
			c-0.1,0-0.1,0-0.2,0l0,0C53.6,71,53.5,70.9,53.4,70.7z M24,70c-0.2-0.1-0.3-0.4-0.2-0.6l0,0c0.1-0.2,0.4-0.3,0.6-0.2l0,0
			c0.2,0.1,0.3,0.4,0.2,0.6l0,0c-0.1,0.2-0.2,0.3-0.4,0.3l0,0C24.1,70,24,70,24,70z M56.8,69c-0.1-0.2-0.1-0.5,0.2-0.7l0,0
			c0.2-0.1,0.5-0.1,0.7,0.2l0,0c0.1,0.2,0.1,0.5-0.2,0.7l0,0c-0.1,0-0.2,0.1-0.2,0.1l0,0C57.1,69.2,56.9,69.1,56.8,69z M20.6,67.9
			L20.6,67.9L20.6,67.9c-0.2-0.2-0.3-0.5-0.1-0.7l0,0c0.1-0.2,0.5-0.3,0.7-0.1l0,0c0.2,0.2,0.3,0.5,0.1,0.7l0,0
			C21.2,68,21.1,68,20.9,68l0,0C20.8,68,20.7,68,20.6,67.9z M60,66.9c-0.2-0.2-0.1-0.5,0.1-0.7l0,0c0.2-0.2,0.5-0.1,0.7,0.1l0,0
			c0.2,0.2,0.1,0.5-0.1,0.7l0,0l0,0l0,0c-0.1,0.1-0.2,0.1-0.3,0.1l0,0C60.2,67.1,60.1,67,60,66.9z M17.6,65.5
			c-0.2-0.2-0.2-0.5,0-0.7l0,0c0.2-0.2,0.5-0.2,0.7,0l0,0c0.2,0.2,0.2,0.5,0,0.7l0,0c-0.1,0.1-0.2,0.2-0.4,0.2l0,0
			C17.8,65.7,17.7,65.6,17.6,65.5z M63,64.4c-0.2-0.2-0.2-0.5,0-0.7l0,0c0.2-0.2,0.5-0.2,0.7,0l0,0c0.2,0.2,0.2,0.5,0,0.7l0,0
			c-0.1,0.1-0.2,0.1-0.3,0.1l0,0C63.2,64.6,63,64.5,63,64.4z M14.8,62.8c-0.2-0.2-0.2-0.5,0-0.7l0,0c0.2-0.2,0.5-0.2,0.7,0l0,0
			c0.2,0.2,0.2,0.5,0,0.7l0,0c-0.1,0.1-0.2,0.1-0.3,0.1l0,0C15,63,14.9,62.9,14.8,62.8z M65.6,61.6c-0.2-0.2-0.2-0.5-0.1-0.7l0,0
			c0.2-0.2,0.5-0.2,0.7-0.1l0,0c0.2,0.2,0.2,0.5,0.1,0.7l0,0c-0.1,0.1-0.2,0.2-0.4,0.2l0,0C65.8,61.7,65.7,61.7,65.6,61.6z
			 M12.4,59.8C12.4,59.8,12.4,59.8,12.4,59.8L12.4,59.8c-0.2-0.2-0.1-0.5,0.1-0.7l0,0c0.2-0.2,0.5-0.1,0.7,0.1l0,0
			c0.2,0.2,0.1,0.5-0.1,0.7l0,0C12.9,60,12.8,60,12.8,60l0,0C12.6,60,12.5,59.9,12.4,59.8z M67.9,58.6c-0.2-0.1-0.3-0.4-0.1-0.7l0,0
			c0.1-0.2,0.4-0.3,0.7-0.1l0,0c0.2,0.1,0.3,0.4,0.1,0.7l0,0c-0.1,0.1-0.2,0.2-0.4,0.2l0,0C68.1,58.6,68,58.6,67.9,58.6z M10.3,56.5
			c-0.1-0.2,0-0.5,0.2-0.7l0,0c0.2-0.1,0.5,0,0.7,0.2l0,0c0.1,0.2,0,0.5-0.2,0.7l0,0c-0.1,0-0.2,0.1-0.2,0.1l0,0
			C10.5,56.7,10.4,56.7,10.3,56.5z M69.8,55.3c-0.2-0.1-0.3-0.4-0.2-0.6l0,0c0.1-0.2,0.4-0.3,0.6-0.2l0,0c0.2,0.1,0.3,0.4,0.2,0.6
			l0,0c-0.1,0.2-0.3,0.3-0.4,0.3l0,0C70,55.3,69.9,55.3,69.8,55.3z M8.6,53c-0.1-0.2,0-0.5,0.3-0.6l0,0c0.2-0.1,0.5,0,0.6,0.3l0,0
			c0.1,0.2,0,0.5-0.3,0.6l0,0c-0.1,0-0.1,0-0.2,0l0,0C8.8,53.3,8.7,53.2,8.6,53z M71.4,51.7c-0.2-0.1-0.4-0.4-0.3-0.6l0,0
			c0.1-0.2,0.4-0.4,0.6-0.3l0,0c0.2,0.1,0.4,0.4,0.3,0.6l0,0c-0.1,0.2-0.3,0.3-0.5,0.3l0,0C71.5,51.8,71.5,51.8,71.4,51.7z
			 M7.3,49.3L7.3,49.3L7.3,49.3c-0.1-0.3,0.1-0.5,0.3-0.6l0,0c0.3-0.1,0.5,0.1,0.6,0.3l0,0c0.1,0.3-0.1,0.5-0.3,0.6l0,0
			c0,0-0.1,0-0.1,0l0,0C7.6,49.7,7.4,49.5,7.3,49.3z M72.5,48.1c-0.3-0.1-0.4-0.3-0.4-0.6l0,0c0.1-0.3,0.3-0.4,0.6-0.4l0,0
			c0.3,0.1,0.4,0.3,0.4,0.6l0,0c-0.1,0.2-0.2,0.4-0.5,0.4l0,0C72.6,48.1,72.6,48.1,72.5,48.1z M6.5,45.5c0-0.3,0.1-0.5,0.4-0.6l0,0
			c0.3,0,0.5,0.1,0.6,0.4l0,0c0,0.3-0.1,0.5-0.4,0.6l0,0c0,0,0,0-0.1,0l0,0C6.7,45.9,6.5,45.8,6.5,45.5z M73.2,44.3
			c-0.3,0-0.5-0.3-0.4-0.5l0,0c0-0.3,0.3-0.5,0.5-0.4l0,0c0.3,0,0.5,0.3,0.4,0.5l0,0C73.7,44.1,73.5,44.3,73.2,44.3L73.2,44.3
			C73.3,44.3,73.3,44.3,73.2,44.3z M6.1,41.7L6.1,41.7L6.1,41.7c0-0.3,0.2-0.5,0.5-0.5l0,0c0.3,0,0.5,0.2,0.5,0.5l0,0
			c0,0.3-0.2,0.5-0.5,0.5l0,0c0,0,0,0,0,0h0C6.3,42.1,6.1,41.9,6.1,41.7z M73,40c0-0.3,0.2-0.5,0.5-0.5l0,0c0.3,0,0.5,0.2,0.5,0.5
			l0,0c0,0.3-0.2,0.5-0.5,0.5l0,0C73.2,40.5,73,40.3,73,40z M6.5,38.3c-0.3,0-0.5-0.2-0.4-0.5l0,0c0-0.3,0.2-0.5,0.5-0.4l0,0
			c0.3,0,0.5,0.2,0.4,0.5l0,0C7,38.1,6.8,38.3,6.5,38.3L6.5,38.3C6.6,38.3,6.5,38.3,6.5,38.3z M72.9,36.8L72.9,36.8
			c0-0.3,0.2-0.5,0.4-0.5l0,0c0.3,0,0.5,0.2,0.5,0.4l0,0c0,0.3-0.2,0.5-0.4,0.5l0,0c0,0,0,0,0,0l0,0C73.1,37.2,72.9,37,72.9,36.8z
			 M6.9,34.5c-0.3,0-0.4-0.3-0.4-0.6l0,0c0-0.3,0.3-0.4,0.6-0.4l0,0c0.3,0,0.4,0.3,0.4,0.6l0,0C7.5,34.3,7.3,34.5,6.9,34.5L6.9,34.5
			C7,34.5,7,34.5,6.9,34.5z M72.3,33.1c-0.1-0.3,0.1-0.5,0.4-0.6l0,0c0.3-0.1,0.5,0.1,0.6,0.4l0,0l0,0l0,0c0.1,0.3-0.1,0.5-0.4,0.6
			l0,0c0,0-0.1,0-0.1,0l0,0C72.5,33.4,72.3,33.3,72.3,33.1z M7.8,30.7c-0.3-0.1-0.4-0.3-0.3-0.6l0,0c0.1-0.3,0.3-0.4,0.6-0.3l0,0
			c0.3,0.1,0.4,0.3,0.3,0.6l0,0c-0.1,0.2-0.3,0.3-0.5,0.3l0,0C7.9,30.7,7.8,30.7,7.8,30.7z M71.3,29.4c-0.1-0.3,0.1-0.5,0.3-0.6l0,0
			c0.2-0.1,0.5,0,0.6,0.3l0,0c0.1,0.2-0.1,0.5-0.3,0.6l0,0c-0.1,0-0.1,0-0.2,0l0,0C71.5,29.7,71.4,29.6,71.3,29.4z M9.1,27.1
			c-0.2-0.1-0.4-0.4-0.2-0.6l0,0l0,0l0,0c0.1-0.2,0.4-0.4,0.6-0.2l0,0c0.2,0.1,0.4,0.4,0.2,0.6l0,0c-0.1,0.2-0.3,0.3-0.4,0.3l0,0
			C9.2,27.1,9.1,27.1,9.1,27.1z M69.9,25.9c-0.1-0.2,0-0.5,0.2-0.6l0,0c0.2-0.1,0.5,0,0.6,0.2l0,0c0.1,0.2,0,0.5-0.2,0.6l0,0
			c-0.1,0-0.1,0-0.2,0l0,0C70.1,26.2,70,26.1,69.9,25.9z M10.7,23.6c-0.2-0.1-0.3-0.4-0.2-0.7l0,0c0.1-0.2,0.4-0.3,0.7-0.2l0,0
			c0.2,0.1,0.3,0.4,0.2,0.7l0,0c-0.1,0.2-0.2,0.2-0.4,0.2l0,0C10.9,23.7,10.8,23.7,10.7,23.6z M68.1,22.6L68.1,22.6
			c-0.1-0.2-0.1-0.5,0.2-0.7l0,0c0.2-0.1,0.5-0.1,0.7,0.2l0,0c0.1,0.2,0.1,0.5-0.2,0.7l0,0c-0.1,0-0.2,0.1-0.3,0.1l0,0
			C68.3,22.8,68.2,22.7,68.1,22.6z M12.8,20.4c-0.2-0.2-0.3-0.5-0.1-0.7l0,0c0.2-0.2,0.5-0.3,0.7-0.1l0,0c0.2,0.2,0.3,0.5,0.1,0.7
			l0,0c-0.1,0.1-0.2,0.2-0.4,0.2l0,0C13,20.5,12.9,20.5,12.8,20.4z M65.9,19.5L65.9,19.5c-0.2-0.2-0.1-0.5,0.1-0.7l0,0
			c0.2-0.2,0.5-0.1,0.7,0.1l0,0c0.2,0.2,0.1,0.5-0.1,0.7l0,0c-0.1,0.1-0.2,0.1-0.3,0.1l0,0C66.1,19.7,66,19.6,65.9,19.5z M15.2,17.4
			c-0.2-0.2-0.2-0.5,0-0.7l0,0l0,0l0,0c0.2-0.2,0.5-0.2,0.7,0l0,0c0.2,0.2,0.2,0.5,0,0.7l0,0c-0.1,0.1-0.2,0.1-0.4,0.1l0,0
			C15.4,17.6,15.3,17.5,15.2,17.4z M63.4,16.7c-0.2-0.2-0.2-0.5,0-0.7l0,0c0.2-0.2,0.5-0.2,0.7,0l0,0c0.2,0.2,0.2,0.5,0,0.7l0,0
			c-0.1,0.1-0.2,0.1-0.3,0.1l0,0C63.6,16.8,63.5,16.8,63.4,16.7z M18,14.7c-0.2-0.2-0.1-0.5,0.1-0.7l0,0c0.2-0.2,0.5-0.1,0.7,0.1
			l0,0c0.2,0.2,0.1,0.5-0.1,0.7l0,0c-0.1,0.1-0.2,0.1-0.3,0.1l0,0C18.2,14.9,18.1,14.9,18,14.7z M60.6,14.1
			c-0.2-0.2-0.2-0.5-0.1-0.7l0,0c0.2-0.2,0.5-0.2,0.7-0.1l0,0c0.2,0.2,0.2,0.5,0.1,0.7l0,0c-0.1,0.1-0.2,0.2-0.4,0.2l0,0
			C60.7,14.2,60.6,14.2,60.6,14.1z M21,12.4c-0.1-0.2-0.1-0.5,0.1-0.7l0,0l0,0l0,0c0.2-0.1,0.5-0.1,0.7,0.1l0,0
			c0.1,0.2,0.1,0.5-0.1,0.7l0,0c-0.1,0.1-0.2,0.1-0.3,0.1l0,0C21.2,12.6,21.1,12.5,21,12.4z M57.5,12c-0.2-0.1-0.3-0.4-0.1-0.7l0,0
			c0.1-0.2,0.4-0.3,0.7-0.2l0,0c0.2,0.1,0.3,0.4,0.2,0.7l0,0C58,12,57.9,12,57.7,12l0,0C57.6,12,57.5,12,57.5,12z M24.3,10.4
			c-0.1-0.2,0-0.5,0.2-0.6l0,0c0.2-0.1,0.5,0,0.6,0.2l0,0c0.1,0.2,0,0.5-0.2,0.6l0,0c-0.1,0-0.1,0.1-0.2,0.1l0,0
			C24.5,10.7,24.4,10.6,24.3,10.4z M54.1,10.1L54.1,10.1c-0.2-0.1-0.3-0.4-0.2-0.6l0,0c0.1-0.2,0.4-0.3,0.6-0.2l0,0
			c0.2,0.1,0.3,0.4,0.2,0.6l0,0c-0.1,0.2-0.3,0.3-0.4,0.3l0,0C54.3,10.2,54.2,10.2,54.1,10.1z M27.8,8.8c-0.1-0.2,0-0.5,0.3-0.6l0,0
			c0.2-0.1,0.5,0,0.6,0.3l0,0c0.1,0.2,0,0.5-0.3,0.6l0,0c-0.1,0-0.1,0-0.2,0l0,0C28,9.1,27.8,9,27.8,8.8z M50.6,8.7
			c-0.3-0.1-0.4-0.4-0.3-0.6l0,0c0.1-0.3,0.4-0.4,0.6-0.3l0,0c0.2,0.1,0.4,0.4,0.3,0.6l0,0c-0.1,0.2-0.3,0.3-0.5,0.3l0,0
			C50.7,8.7,50.7,8.7,50.6,8.7z M31.4,7.6c-0.1-0.3,0.1-0.5,0.4-0.6l0,0C32,7,32.3,7.1,32.3,7.4l0,0c0.1,0.3-0.1,0.5-0.3,0.6l0,0
			c0,0-0.1,0-0.1,0l0,0C31.7,8,31.5,7.8,31.4,7.6z M47,7.7c-0.3-0.1-0.4-0.3-0.4-0.6l0,0c0.1-0.3,0.3-0.4,0.6-0.4l0,0
			c0.3,0.1,0.4,0.3,0.4,0.6l0,0c0,0.2-0.2,0.4-0.5,0.4l0,0C47.1,7.7,47,7.7,47,7.7z M35.2,6.8c0-0.3,0.1-0.5,0.4-0.5l0,0l0,0l0,0
			c0.3,0,0.5,0.1,0.5,0.4l0,0c0,0.3-0.2,0.5-0.4,0.5l0,0c0,0,0,0-0.1,0l0,0C35.4,7.3,35.2,7.1,35.2,6.8z M43.3,7.1
			c-0.3,0-0.5-0.3-0.4-0.5l0,0c0-0.3,0.3-0.5,0.5-0.4l0,0c0.3,0,0.5,0.3,0.4,0.5l0,0C43.8,6.9,43.5,7.1,43.3,7.1L43.3,7.1
			C43.3,7.1,43.3,7.1,43.3,7.1z M39,6.5C39,6.2,39.2,6,39.5,6l0,0c0.3,0,0.5,0.2,0.5,0.5l0,0C40,6.8,39.7,7,39.5,7l0,0h0l0,0
			C39.2,7,39,6.8,39,6.5z"/>
	</g>
</g>
</svg>
