<?xml version="1.0" encoding="utf-8"?>
<!-- Generator: Adobe Illustrator 19.2.0, SVG Export Plug-In . SVG Version: 6.00 Build 0)  -->
<svg version="1.1" id="Layer_1" xmlns="http://www.w3.org/2000/svg" xmlns:xlink="http://www.w3.org/1999/xlink" x="0px" y="0px"
	 viewBox="0 0 44 44" style="enable-background:new 0 0 44 44;" xml:space="preserve">
<style type="text/css">
	.st0{fill-rule:evenodd;clip-rule:evenodd;fill:#353B3D;}
</style>
<g>
	<g>
		<path class="st0" d="M25.1,13.1c-0.8-0.8-2.1-0.8-2.9,0l-0.7,0.7L11.3,24l0,0l-0.3,0.3c0,0-1,1-3.3,8.5c0,0.1,0,0.1,0,0.2
			c0,0.1-0.1,0.3-0.1,0.4c0,0.1-0.1,0.2-0.1,0.4c0,0.1-0.1,0.2-0.1,0.3c-0.1,0.2-0.1,0.5-0.2,0.7c-0.2,0.6-0.6,1.8-0.1,2.3
			c0.4,0.4,1.7,0.1,2.3-0.1c0.3-0.1,0.5-0.1,0.7-0.2c0.1,0,0.2-0.1,0.3-0.1c0.1,0,0.2-0.1,0.3-0.1c0.1,0,0.3-0.1,0.4-0.1
			c0,0,0.1,0,0.1,0c7.1-2.2,8.4-3.2,8.5-3.3c0,0,0,0,0,0c0,0,0,0,0,0l0.3-0.3l0,0l10.2-10.2l0.7-0.7c0.8-0.8,0.8-2.1,0-2.9
			L25.1,13.1z M18.5,31.7C18.5,31.7,18.4,31.8,18.5,31.7C18.4,31.8,18.4,31.8,18.5,31.7C18.4,31.8,18.4,31.8,18.5,31.7
			c-0.1,0.1-0.1,0.1-0.1,0.1C18,32,17,32.5,14.6,33.4c-0.3,0.1-0.6,0.2-0.9,0.3l-3.4-3.4c0.1-0.3,0.2-0.6,0.3-0.9
			c0.9-2.4,1.4-3.4,1.6-3.8c0,0,0,0,0,0c0,0,0,0,0,0c0,0,0,0,0,0c0,0,0,0,0,0l0.3-0.3l6.2,6.2L18.5,31.7z M36.7,13.1l-5.8-5.8
			c-0.8-0.8-2.1-0.8-2.9,0l-1.5,1.5c-0.8,0.8-0.8,2.1,0,2.9l5.8,5.8c0.8,0.8,2.1,0.8,2.9,0l1.5-1.5C37.5,15.2,37.5,13.9,36.7,13.1
			L36.7,13.1z M36.7,13.1"/>
	</g>
</g>
</svg>
