<?xml version="1.0" encoding="utf-8"?>
<!-- Generator: Adobe Illustrator 19.2.0, SVG Export Plug-In . SVG Version: 6.00 Build 0)  -->
<svg version="1.1" id="Layer_1" xmlns="http://www.w3.org/2000/svg" xmlns:xlink="http://www.w3.org/1999/xlink" x="0px" y="0px"
	 viewBox="0 0 44 44" style="enable-background:new 0 0 44 44;" xml:space="preserve">
<style type="text/css">
	.st0{fill:#353B3D;}
</style>
<g>
	<path class="st0" d="M39.4,4H4.6C3.3,4,2.2,5.1,2.2,6.4v31.2c0,1.3,1.1,2.4,2.4,2.4h34.8c1.3,0,2.4-1.1,2.4-2.4V6.4
		C41.8,5.1,40.7,4,39.4,4L39.4,4z M32.2,8c0-0.5,0.4-0.9,0.9-0.9H34c0.5,0,0.9,0.4,0.9,0.9v1c0,0.5-0.4,0.9-0.9,0.9h-0.9
		c-0.5,0-0.9-0.4-0.9-0.9V8z M28.2,8c0-0.5,0.4-0.9,0.9-0.9h0.9c0.5,0,0.9,0.4,0.9,0.9v1c0,0.5-0.4,0.9-0.9,0.9H29
		c-0.5,0-0.9-0.4-0.9-0.9V8z M38.9,37.1H5.1V12.5h33.8L38.9,37.1L38.9,37.1z M38.9,9c0,0.5-0.4,0.9-0.9,0.9h-0.9
		c-0.5,0-0.9-0.4-0.9-0.9V8c0-0.5,0.4-0.9,0.9-0.9h0.9c0.5,0,0.9,0.4,0.9,0.9V9z M38.9,9"/>
	<path class="st0" d="M10.7,25.8l6.4,3c0.2,0.1,0.3,0.1,0.5,0.1c0.2,0,0.5-0.1,0.7-0.2c0.4-0.2,0.6-0.6,0.6-1v0
		c0-0.5-0.3-0.9-0.7-1.1l-4-1.8l4-1.8c0.4-0.2,0.7-0.6,0.7-1.1v0c0-0.4-0.2-0.8-0.6-1c-0.2-0.1-0.4-0.2-0.7-0.2
		c-0.2,0-0.4,0-0.5,0.1l-6.4,3c-0.4,0.2-0.7,0.6-0.7,1.1v0.1C10,25.1,10.3,25.5,10.7,25.8L10.7,25.8z M10.7,25.8"/>
	<path class="st0" d="M18.9,31.8c0.2,0.3,0.6,0.5,1,0.5h0c0.5,0,1-0.3,1.2-0.9l4.2-13c0.1-0.4,0.1-0.8-0.2-1.1
		c-0.2-0.3-0.6-0.5-1-0.5h0c-0.5,0-1,0.3-1.2,0.9l-4.2,13C18.6,31,18.7,31.5,18.9,31.8L18.9,31.8z M18.9,31.8"/>
	<path class="st0" d="M25.2,21.6c0,0.5,0.3,0.9,0.7,1.1l4,1.8l-4,1.8c-0.4,0.2-0.7,0.6-0.7,1.1v0c0,0.4,0.2,0.8,0.6,1
		c0.2,0.1,0.4,0.2,0.7,0.2c0.2,0,0.4,0,0.5-0.1l6.4-3c0.4-0.2,0.7-0.6,0.7-1.1v-0.1c0-0.5-0.3-0.9-0.7-1.1l-6.4-3
		c-0.2-0.1-0.3-0.1-0.5-0.1c-0.2,0-0.5,0.1-0.7,0.2C25.4,20.8,25.2,21.2,25.2,21.6L25.2,21.6z M25.2,21.6"/>
</g>
</svg>
