<?xml version="1.0" encoding="utf-8"?>
<!-- Generator: Adobe Illustrator 19.2.0, SVG Export Plug-In . SVG Version: 6.00 Build 0)  -->
<svg version="1.1" id="Layer_1" xmlns="http://www.w3.org/2000/svg" xmlns:xlink="http://www.w3.org/1999/xlink" x="0px" y="0px"
	 viewBox="0 0 44 44" style="enable-background:new 0 0 44 44;" xml:space="preserve">
<style type="text/css">
	.st0{fill:#353B3D;}
</style>
<g>
	<path class="st0" d="M31.9,3.2c-0.5-0.2-1.1,0.1-1.3,0.6c-0.2,0.5,0.1,1.1,0.6,1.3c2.2,0.8,4.1,2.2,5.5,4.2c1.4,2,2.2,4.3,2.3,6.7
		c0,0.5,0.5,1,1,1c0.2,0,0.4-0.1,0.6-0.2c0.3-0.2,0.4-0.5,0.4-0.8c0-2.8-1-5.5-2.7-7.8C36.7,5.8,34.5,4.1,31.9,3.2L31.9,3.2z
		 M31.9,3.2"/>
	<path class="st0" d="M30.9,7.3c-0.5-0.2-1.1,0.1-1.3,0.6c-0.2,0.5,0.1,1.1,0.6,1.3c1.3,0.5,2.4,1.3,3.2,2.5
		c0.8,1.2,1.3,2.5,1.3,3.9c0,0.5,0.5,1,1,1c0.2,0,0.4-0.1,0.6-0.2c0.3-0.2,0.4-0.5,0.4-0.8c0-1.8-0.6-3.5-1.7-5
		C34,9,32.5,7.9,30.9,7.3L30.9,7.3z M30.9,7.3"/>
	<path class="st0" d="M20.6,1.3c-0.5,0.4-0.8,1-0.8,1.8c0,0.1-0.2,5.4-5.3,12.1c-0.5,0.6-1.1,1.3-1.1,1.3c-0.1,0.1-0.1,0.2-0.2,0.2
		c-0.7-0.2-1.4,0-2,0.4L4.4,22c-1.1,0.8-1.4,2.4-0.6,3.5l0.3,0.5c-1.3,0.9-1.6,2.6-0.8,3.8l3.2,4.4c0.8,1.1,2.5,1.3,3.8,0.4l0.2,0.3
		c0.8,1.1,2.3,1.3,3.4,0.6l7.9,6.7c1.1,1,3,1,4.2,0.2l2.2-1.6c0.7-0.5,1.1-1.2,1.1-2c0-0.8-0.3-1.6-1-2.1l-7.3-6.3
		c0.5-0.4,0.8-1,0.8-1.7c0.1,0,0.2-0.1,0.3-0.1c0,0,0.8-0.4,1.5-0.6c8-2.7,13.1-1.3,13.1-1.2c0.8,0.2,1.5,0.2,2-0.2
		c0.6-0.4,0.8-1.1,0.7-1.7c-0.1-0.4-0.2-0.7-0.5-1.1L23.4,2C22.4,0.6,21.2,0.9,20.6,1.3z M22.4,5.7l12.9,17.8
		c-2.6-0.2-6.9-0.2-12.5,1.7c-0.9,0.3-1.8,0.7-1.8,0.7c-0.1,0-0.3,0-0.4-0.1l-5-6.9c-0.1-0.1,0-0.3,0-0.4c0,0,0.7-0.7,1.3-1.5
		C20.4,12.3,21.8,8.2,22.4,5.7z M18.8,28.4l-6,4.3l-6.2-8.6l6-4.3L18.8,28.4z M26.5,39C26.5,39,26.5,39,26.5,39l0.3-0.4L26.5,39z
		 M18.6,32.2l7.6,6.5L24.4,40c-0.1,0.1-0.4,0.1-0.5,0l-7.3-6.3L18.6,32.2z"/>
</g>
</svg>
