<?xml version="1.0" encoding="utf-8"?>
<!-- Generator: Adobe Illustrator 19.1.0, SVG Export Plug-In . SVG Version: 6.00 Build 0)  -->
<svg version="1.1" id="Layer_1" xmlns="http://www.w3.org/2000/svg" xmlns:xlink="http://www.w3.org/1999/xlink" x="0px" y="0px"
	 viewBox="0 0 29.1 42"  width="29" height="42"  style="enable-background:new 0 0 29.1 42;" xml:space="preserve">
<style type="text/css">
	.st0{fill:#BC2020;}
	.st1{fill:#8E2624;}
</style>
<g>
	<g id="XMLID_111_">
		<path id="XMLID_439_" class="st0" d="M14.5,1.2C7.3,1.2,1.4,7.1,1.4,14.3c0,2.9,1.9,7.7,5.7,14.5c2.7,4.8,5.4,8.9,5.5,9.1l1.9,3
			l1.9-3c0.1-0.2,2.8-4.2,5.5-9.1c3.8-6.9,5.7-11.6,5.7-14.5C27.6,7.1,21.8,1.2,14.5,1.2L14.5,1.2z M14.5,21c-3.8,0-6.8-3-6.8-6.8
			c0-3.8,3-6.8,6.8-6.8c3.8,0,6.8,3,6.8,6.8C21.3,18,18.3,21,14.5,21L14.5,21z M14.5,21"/>
	</g>
	<circle class="st1" cx="14.8" cy="14.2" r="7.1"/>
</g>
</svg>
