<?xml version="1.0" encoding="utf-8"?>
<!-- Generator: Adobe Illustrator 19.2.0, SVG Export Plug-In . SVG Version: 6.00 Build 0)  -->
<svg version="1.1" id="Layer_1" xmlns="http://www.w3.org/2000/svg" xmlns:xlink="http://www.w3.org/1999/xlink" x="0px" y="0px"
	 viewBox="0 0 44 44" style="enable-background:new 0 0 44 44;" xml:space="preserve">
<style type="text/css">
	.st0{fill:#353B3D;}
</style>
<g>
	<g>
		<path class="st0" d="M30,1H12.5c-2.1,0-3.7,1.8-3.7,3.9v34.1c0,2.2,1.7,3.9,3.7,3.9H30c2.1,0,3.7-1.8,3.7-3.9V4.9
			C33.7,2.8,32,1,30,1L30,1z M16.2,3h10v1.3h-10V3z M21.2,40.4c-1.4,0-2.5-1.1-2.5-2.5c0-1.4,1.1-2.5,2.5-2.5c1.4,0,2.5,1.1,2.5,2.5
			C23.7,39.2,22.6,40.4,21.2,40.4L21.2,40.4z M31.2,32.5h-20V6.2h20V32.5z M31.2,32.5"/>
	</g>
</g>
</svg>
