<?xml version="1.0" encoding="utf-8"?>
<!-- Generator: Adobe Illustrator 19.2.0, SVG Export Plug-In . SVG Version: 6.00 Build 0)  -->
<svg version="1.1" id="Layer_1" xmlns="http://www.w3.org/2000/svg" xmlns:xlink="http://www.w3.org/1999/xlink" x="0px" y="0px"
	 viewBox="0 0 32 32" style="enable-background:new 0 0 32 32;" xml:space="preserve">
<style type="text/css">
	.st0{fill:#E2E2DC;}
</style>
<path class="st0" d="M31.1,24.8c0.1,0.5-0.1,0.9-0.4,1.3l-4.3,4.2c-0.2,0.2-0.4,0.4-0.8,0.5c-0.3,0.1-0.6,0.2-0.9,0.3
	c0,0-0.1,0-0.2,0c-0.1,0-0.2,0-0.4,0c-0.4,0-1.1-0.1-2-0.2c-0.9-0.1-2-0.5-3.3-1c-1.3-0.5-2.8-1.4-4.5-2.5c-1.7-1.1-3.4-2.6-5.3-4.5
	c-1.5-1.5-2.7-2.9-3.7-4.2c-1-1.3-1.8-2.6-2.4-3.7c-0.6-1.1-1-2.2-1.3-3.1C1.3,10.9,1.1,10.1,1,9.5C0.9,8.8,0.8,8.3,0.8,7.9
	c0-0.4,0-0.6,0-0.6c0-0.3,0.1-0.6,0.3-0.9C1.3,6,1.5,5.8,1.7,5.6L6,1.3C6.3,1,6.6,0.8,7,0.8c0.3,0,0.5,0.1,0.7,0.2
	C8,1.3,8.1,1.4,8.3,1.7l3.4,6.5c0.2,0.3,0.2,0.7,0.2,1.1c-0.1,0.4-0.3,0.7-0.5,1l-1.6,1.6c0,0-0.1,0.1-0.1,0.2c0,0.1,0,0.2,0,0.2
	c0.1,0.4,0.3,1,0.6,1.5c0.3,0.5,0.7,1.1,1.2,1.9c0.5,0.7,1.3,1.6,2.3,2.6c1,1,1.8,1.7,2.6,2.3c0.7,0.5,1.4,0.9,1.9,1.2
	c0.5,0.3,0.9,0.4,1.2,0.5l0.4,0.1c0,0,0.1,0,0.2,0c0.1,0,0.2-0.1,0.2-0.1l1.8-1.9c0.4-0.3,0.8-0.5,1.3-0.5c0.4,0,0.7,0.1,0.9,0.2h0
	l6.2,3.7C30.8,24,31.1,24.3,31.1,24.8L31.1,24.8z M31.1,24.8"/>
</svg>
