<?xml version="1.0" encoding="utf-8"?>
<!-- Generator: Adobe Illustrator 19.2.0, SVG Export Plug-In . SVG Version: 6.00 Build 0)  -->
<svg version="1.1" id="Layer_1" xmlns="http://www.w3.org/2000/svg" xmlns:xlink="http://www.w3.org/1999/xlink" x="0px" y="0px"
	 viewBox="0 0 25 25"  width="25" height="25"  style="enable-background:new 0 0 25 25;" xml:space="preserve">
<style type="text/css">
	.st0{fill:#6DA523;}
</style>
<path class="st0" d="M24.2,19.3c0,0.4-0.1,0.7-0.3,1l-3.3,3.3c-0.1,0.2-0.3,0.3-0.6,0.4c-0.2,0.1-0.5,0.2-0.7,0.2c0,0-0.1,0-0.1,0
	c-0.1,0-0.2,0-0.3,0c-0.3,0-0.8-0.1-1.5-0.2c-0.7-0.1-1.6-0.4-2.6-0.8c-1-0.4-2.2-1.1-3.5-1.9c-1.3-0.8-2.7-2-4.1-3.5
	C6,16.7,5,15.7,4.2,14.6c-0.8-1-1.4-2-1.8-2.9c-0.5-0.9-0.8-1.7-1-2.4C1.1,8.6,1,8,0.9,7.5C0.8,6.9,0.8,6.5,0.8,6.2
	c0-0.3,0-0.5,0-0.5C0.8,5.5,0.9,5.3,1,5c0.1-0.2,0.3-0.4,0.4-0.6l3.3-3.3C5,0.9,5.3,0.8,5.5,0.8C5.8,0.8,6,0.9,6.1,1
	c0.2,0.1,0.3,0.3,0.4,0.5l2.7,5C9.3,6.7,9.4,7,9.3,7.3C9.3,7.7,9.1,7.9,8.9,8.1L7.7,9.3c0,0-0.1,0.1-0.1,0.2c0,0.1,0,0.1,0,0.2
	C7.6,10,7.8,10.4,8,10.9c0.2,0.4,0.5,0.9,0.9,1.5c0.4,0.6,1,1.2,1.8,2c0.7,0.8,1.4,1.4,2,1.8c0.6,0.4,1.1,0.7,1.5,0.9
	c0.4,0.2,0.7,0.3,0.9,0.4l0.3,0.1c0,0,0.1,0,0.2,0c0.1,0,0.1-0.1,0.2-0.1l1.4-1.4c0.3-0.3,0.6-0.4,1-0.4c0.3,0,0.5,0,0.7,0.1h0
	l4.8,2.8C23.9,18.7,24.1,18.9,24.2,19.3L24.2,19.3z M24.2,19.3"/>
</svg>
