<?xml version="1.0" encoding="utf-8"?>
<!-- Generator: Adobe Illustrator 19.2.0, SVG Export Plug-In . SVG Version: 6.00 Build 0)  -->
<svg version="1.1" id="Layer_1" xmlns="http://www.w3.org/2000/svg" xmlns:xlink="http://www.w3.org/1999/xlink" x="0px" y="0px"
	 viewBox="0 0 44 44" style="enable-background:new 0 0 44 44;" xml:space="preserve">
<style type="text/css">
	.st0{fill:#353B3D;}
</style>
<g>
	<path class="st0" d="M20.1,42c9.9,0,18-8.1,18-18c0-3.1-0.8-5.9-2.1-8.4c-0.1,0-0.3,0-0.4,0c-0.1,0-0.2,0-0.3,0L33,15.4l-1.6,1.6
		c1.3,2,2,4.4,2,7c0,7.3-5.9,13.2-13.2,13.2S6.9,31.3,6.9,24s5.9-13.2,13.2-13.2c2.6,0,4.9,0.7,7,2l1.5-1.5l-0.2-2.6
		c0-0.2,0-0.4,0-0.6c-2.5-1.3-5.3-2-8.3-2c-9.9,0-18,8.1-18,18C2.1,33.9,10.1,42,20.1,42L20.1,42z M20.1,42"/>
	<path class="st0" d="M20.1,19.4c0.1,0,0.2,0,0.4,0l3.3-3.3l0.1-0.1c-1.1-0.5-2.4-0.8-3.7-0.8c-4.9,0-8.9,4-8.9,8.9
		c0,4.9,4,8.9,8.9,8.9c4.9,0,8.9-4,8.9-8.9c0-1.3-0.3-2.6-0.8-3.7L28,20.3l-3.3,3.3c0,0.1,0,0.2,0,0.4c0,2.6-2.1,4.6-4.6,4.6
		s-4.6-2.1-4.6-4.6S17.5,19.4,20.1,19.4L20.1,19.4z M20.1,19.4"/>
	<path class="st0" d="M38.6,8l1.1-1.1c0.5-0.5,0.5-1.3,0-1.8l-0.7-0.7c-0.2-0.2-0.6-0.4-0.9-0.4s-0.6,0.1-0.9,0.4L36,5.6l-0.3-3.3
		c0-0.2-0.2-0.4-0.4-0.4c-0.1,0-0.2,0-0.3,0.1l-4.8,4.8c-0.4,0.4-0.7,1-0.6,1.6l0,0.2l0.2,3l-1.7,1.7L25,16.6l-0.1,0.1l-3,3
		l-1.3,1.3c-0.2,0.2-0.3,0.4-0.3,0.7l-0.1,1.1c-0.1,0.6,0.4,1.1,1,1.1h0.1l1.1-0.1c0.3,0,0.5-0.1,0.7-0.3l9.4-9.4l2.7,0.2l0.1,0
		c0.1,0,0.1,0,0.2,0c0.6,0,1.1-0.2,1.5-0.6l4.8-4.8c0.3-0.3,0.1-0.7-0.3-0.7L38.6,8z M38.6,8"/>
</g>
</svg>
